<?xml version="1.0" encoding="UTF-8"?>
<svg id="Livello_1" data-name="Livello 1" xmlns="http://www.w3.org/2000/svg" xmlns:xlink="http://www.w3.org/1999/xlink" viewBox="0 0 236.33 164.12">
  <defs>
    <style>
      .cls-1, .cls-2, .cls-3, .cls-4, .cls-5, .cls-6, .cls-7, .cls-8, .cls-9, .cls-10, .cls-11, .cls-12, .cls-13 {
        fill: none;
      }

      .cls-2 {
        stroke: #139446;
        stroke-dasharray: 2.35 4.7;
        stroke-width: 2.35px;
      }

      .cls-2, .cls-4, .cls-6, .cls-7, .cls-8, .cls-9, .cls-10, .cls-12 {
        stroke-linejoin: round;
      }

      .cls-14 {
        fill: #231f20;
      }

      .cls-3, .cls-5 {
        stroke-miterlimit: 10;
      }

      .cls-3, .cls-5, .cls-10, .cls-11, .cls-12 {
        stroke-width: .29px;
      }

      .cls-3, .cls-11, .cls-13 {
        stroke: #010101;
      }

      .cls-15 {
        fill: #141819;
      }

      .cls-4 {
        stroke-linecap: square;
      }

      .cls-4, .cls-5, .cls-9, .cls-10 {
        stroke: #231f20;
      }

      .cls-4, .cls-8, .cls-9, .cls-13 {
        stroke-width: .44px;
      }

      .cls-16 {
        fill: #fff;
      }

      .cls-6 {
        stroke-dasharray: .12 7.05;
        stroke-width: 1.76px;
      }

      .cls-6, .cls-12 {
        stroke: #e73730;
        stroke-linecap: round;
      }

      .cls-7 {
        stroke: #1f3360;
        stroke-width: 1px;
      }

      .cls-8 {
        stroke: #fff;
      }

      .cls-11, .cls-13 {
        stroke-miterlimit: 3.8;
      }

      .cls-17 {
        clip-path: url(#clippath);
      }
    </style>
    <clipPath id="clippath">
      <rect class="cls-1" x="2.64" y="35.23" width="13.4" height="83.95"/>
    </clipPath>
  </defs>
  <rect class="cls-8" x="28.85" y="4.64" width="205.51" height="141.23"/>
  <line class="cls-9" x1="28.85" y1="4.64" x2="234.78" y2="4.64"/>
  <polyline class="cls-9" points="28.85 145.88 234.78 145.88 234.78 4.64"/>
  <line class="cls-9" x1="28.85" y1="145.88" x2="28.85" y2="4.64"/>
  <line class="cls-9" x1="28.85" y1="145.88" x2="234.78" y2="145.88"/>
  <line class="cls-9" x1="28.85" y1="145.88" x2="28.85" y2="4.64"/>
  <line class="cls-9" x1="91.44" y1="145.88" x2="91.44" y2="144.73"/>
  <line class="cls-9" x1="91.44" y1="4.64" x2="91.44" y2="5.67"/>
  <line class="cls-9" x1="88.33" y1="145.88" x2="88.33" y2="144.73"/>
  <line class="cls-9" x1="88.33" y1="4.64" x2="88.33" y2="5.67"/>
  <line class="cls-9" x1="84.79" y1="145.88" x2="84.79" y2="144.73"/>
  <line class="cls-9" x1="84.79" y1="4.64" x2="84.79" y2="5.67"/>
  <line class="cls-9" x1="80.8" y1="145.88" x2="80.8" y2="144.73"/>
  <line class="cls-9" x1="80.8" y1="4.64" x2="80.8" y2="5.67"/>
  <line class="cls-9" x1="76.26" y1="145.88" x2="76.26" y2="144.73"/>
  <line class="cls-9" x1="76.26" y1="4.64" x2="76.26" y2="5.67"/>
  <line class="cls-9" x1="70.83" y1="145.88" x2="70.83" y2="144.73"/>
  <line class="cls-9" x1="70.83" y1="4.64" x2="70.83" y2="5.67"/>
  <line class="cls-9" x1="64.19" y1="145.88" x2="64.19" y2="144.73"/>
  <line class="cls-9" x1="64.19" y1="4.64" x2="64.19" y2="5.67"/>
  <line class="cls-9" x1="55.55" y1="145.88" x2="55.55" y2="144.73"/>
  <line class="cls-9" x1="55.55" y1="4.64" x2="55.55" y2="5.67"/>
  <line class="cls-9" x1="43.47" y1="145.88" x2="43.47" y2="144.73"/>
  <line class="cls-9" x1="43.47" y1="4.64" x2="43.47" y2="5.67"/>
  <line class="cls-9" x1="91.44" y1="145.88" x2="91.44" y2="143.7"/>
  <line class="cls-9" x1="91.44" y1="4.64" x2="91.44" y2="6.7"/>
  <line class="cls-10" x1="185.35" y1="145.87" x2="185.35" y2="144.73"/>
  <line class="cls-10" x1="185.35" y1="4.64" x2="185.35" y2="5.67"/>
  <line class="cls-10" x1="197.79" y1="145.87" x2="197.79" y2="144.73"/>
  <line class="cls-10" x1="197.79" y1="4.64" x2="197.79" y2="5.67"/>
  <line class="cls-10" x1="206.7" y1="145.87" x2="206.7" y2="144.73"/>
  <line class="cls-10" x1="206.7" y1="4.64" x2="206.7" y2="5.67"/>
  <line class="cls-10" x1="213.55" y1="145.87" x2="213.55" y2="144.73"/>
  <line class="cls-10" x1="213.55" y1="4.64" x2="213.55" y2="5.67"/>
  <line class="cls-10" x1="219.14" y1="145.87" x2="219.14" y2="144.73"/>
  <line class="cls-10" x1="219.14" y1="4.64" x2="219.14" y2="5.67"/>
  <line class="cls-10" x1="223.82" y1="145.87" x2="223.82" y2="144.73"/>
  <line class="cls-10" x1="223.82" y1="4.64" x2="223.82" y2="5.67"/>
  <line class="cls-10" x1="227.93" y1="145.87" x2="227.93" y2="144.73"/>
  <line class="cls-10" x1="227.93" y1="4.64" x2="227.93" y2="5.67"/>
  <line class="cls-10" x1="231.58" y1="145.87" x2="231.58" y2="144.73"/>
  <line class="cls-10" x1="231.58" y1="4.64" x2="231.58" y2="5.67"/>
  <line class="cls-10" x1="234.78" y1="145.87" x2="234.78" y2="144.73"/>
  <line class="cls-10" x1="234.78" y1="4.64" x2="234.78" y2="5.67"/>
  <line class="cls-10" x1="234.78" y1="145.87" x2="234.78" y2="143.7"/>
  <line class="cls-10" x1="234.78" y1="4.64" x2="234.78" y2="6.7"/>
  <line class="cls-10" x1="114.69" y1="145.87" x2="114.69" y2="144.73"/>
  <line class="cls-10" x1="114.69" y1="4.64" x2="114.69" y2="5.67"/>
  <line class="cls-10" x1="127.13" y1="145.87" x2="127.13" y2="144.73"/>
  <line class="cls-10" x1="127.13" y1="4.64" x2="127.13" y2="5.67"/>
  <line class="cls-10" x1="135.92" y1="145.87" x2="135.92" y2="144.73"/>
  <line class="cls-10" x1="135.92" y1="4.64" x2="135.92" y2="5.67"/>
  <line class="cls-10" x1="142.77" y1="145.87" x2="142.77" y2="144.73"/>
  <line class="cls-10" x1="142.77" y1="4.64" x2="142.77" y2="5.67"/>
  <line class="cls-10" x1="148.36" y1="145.87" x2="148.36" y2="144.73"/>
  <line class="cls-10" x1="148.36" y1="4.64" x2="148.36" y2="5.67"/>
  <line class="cls-10" x1="153.16" y1="145.87" x2="153.16" y2="144.73"/>
  <line class="cls-10" x1="153.16" y1="4.64" x2="153.16" y2="5.67"/>
  <line class="cls-10" x1="157.27" y1="145.87" x2="157.27" y2="144.73"/>
  <line class="cls-10" x1="157.27" y1="4.64" x2="157.27" y2="5.67"/>
  <line class="cls-10" x1="160.81" y1="145.87" x2="160.81" y2="144.73"/>
  <line class="cls-10" x1="160.81" y1="4.64" x2="160.81" y2="5.67"/>
  <line class="cls-10" x1="164.12" y1="145.87" x2="164.12" y2="144.73"/>
  <line class="cls-10" x1="164.12" y1="4.64" x2="164.12" y2="5.67"/>
  <line class="cls-10" x1="164.12" y1="145.87" x2="164.12" y2="143.7"/>
  <line class="cls-10" x1="164.12" y1="4.64" x2="164.12" y2="6.7"/>
  <path class="cls-14" d="M87.97,157.93c.37.47.89.7,1.54.7.49,0,.9-.13,1.23-.4.32-.27.57-.64.73-1.13.16-.49.25-1.13.25-1.92,0-.67-.05-1.21-.15-1.6-.1-.4-.24-.73-.42-1.01-.18-.27-.4-.49-.68-.63-.27-.15-.59-.22-.96-.22-.49,0-.9.13-1.23.4-.33.27-.57.64-.74,1.13-.16.49-.25,1.13-.25,1.93,0,1.27.22,2.19.67,2.75M88.59,152.89c.23-.32.53-.48.91-.48s.71.18.97.55c.26.37.39,1.11.39,2.22s-.13,1.85-.39,2.22c-.26.37-.58.55-.96.55s-.7-.18-.96-.55c-.26-.37-.39-1.11-.39-2.22s.14-1.87.43-2.29ZM93.03,158.51h.95v-.95h-.95v.95Z"/>
  <path class="cls-14" d="M98.32,151.72h-.54c-.15.29-.39.59-.74.91-.35.31-.76.58-1.22.79v.8c.26-.1.55-.24.88-.43.32-.19.59-.38.79-.57v5.3h.83v-6.8"/>
  <path class="cls-14" d="M165.34,151.57h-.54c-.15.29-.39.59-.74.91-.35.31-.75.58-1.22.79v.8c.26-.1.55-.24.88-.43.32-.19.59-.38.79-.57v5.3h.83v-6.8M229.79,151.57h-.54c-.14.29-.39.59-.74.91-.35.31-.76.58-1.22.79v.8c.26-.1.55-.24.88-.43.32-.19.59-.38.79-.57v5.3h.83v-6.8Z"/>
  <path class="cls-14" d="M232.58,157.78c.37.47.89.7,1.54.7.5,0,.9-.13,1.23-.4.33-.27.57-.64.73-1.13.16-.49.24-1.13.24-1.92,0-.67-.05-1.2-.15-1.6-.1-.4-.24-.73-.42-1.01-.18-.28-.4-.49-.68-.63-.27-.15-.59-.22-.95-.22-.49,0-.9.13-1.23.4-.33.27-.57.64-.74,1.13-.16.49-.25,1.13-.25,1.93,0,1.27.22,2.19.67,2.75M233.19,152.75c.23-.32.53-.48.91-.48s.71.18.97.55c.26.37.39,1.11.39,2.22s-.13,1.85-.39,2.22c-.26.37-.58.55-.96.55s-.7-.18-.96-.55c-.26-.37-.39-1.11-.39-2.22s.14-1.87.43-2.28Z"/>
  <path class="cls-14" d="M23.56,157.93c.37.47.89.7,1.54.7.5,0,.91-.13,1.23-.4.33-.27.57-.64.73-1.13.16-.49.25-1.13.25-1.92,0-.67-.05-1.2-.15-1.6-.1-.39-.24-.73-.42-1.01-.18-.27-.4-.49-.68-.63-.28-.15-.59-.22-.96-.22-.49,0-.9.13-1.23.4-.33.27-.57.64-.73,1.13-.17.49-.25,1.13-.25,1.93,0,1.27.22,2.19.67,2.75M24.17,152.89c.23-.32.53-.48.91-.48s.71.18.97.55c.26.37.39,1.11.39,2.22s-.13,1.85-.39,2.22c-.26.37-.58.55-.96.55s-.7-.18-.96-.55c-.26-.37-.39-1.11-.39-2.22s.14-1.87.43-2.29ZM28.61,158.51h.95v-.95h-.95v.95ZM31.44,157.93c.37.47.89.7,1.54.7.5,0,.91-.13,1.23-.4.33-.27.57-.64.73-1.13.16-.49.24-1.13.24-1.92,0-.67-.05-1.2-.15-1.6-.1-.39-.24-.73-.42-1.01-.18-.27-.41-.49-.68-.63-.27-.15-.59-.22-.96-.22-.49,0-.9.13-1.23.4-.33.27-.57.64-.74,1.13-.16.49-.25,1.13-.25,1.93,0,1.27.22,2.19.67,2.75ZM32.06,152.89c.23-.32.53-.48.91-.48s.71.18.97.55.39,1.11.39,2.22-.13,1.85-.39,2.22c-.26.37-.58.55-.96.55s-.7-.18-.96-.55c-.26-.37-.39-1.11-.39-2.22s.14-1.87.43-2.29ZM39.17,151.72h-.54c-.14.29-.39.59-.74.91-.35.31-.75.58-1.22.79v.8c.26-.1.55-.24.88-.43.33-.19.59-.38.79-.57v5.3h.83v-6.8Z"/>
  <line class="cls-10" x1="28.85" y1="51.72" x2="30.84" y2="51.72"/>
  <line class="cls-10" x1="234.78" y1="51.72" x2="232.68" y2="51.72"/>
  <line class="cls-10" x1="28.85" y1="98.8" x2="30.84" y2="98.8"/>
  <line class="cls-10" x1="234.78" y1="98.8" x2="232.68" y2="98.8"/>
  <line class="cls-10" x1="28.49" y1="145.87" x2="29.94" y2="145.87"/>
  <line class="cls-10" x1="178.17" y1="145.87" x2="176.64" y2="145.87"/>
  <line class="cls-9" x1="28.85" y1="4.64" x2="30.84" y2="4.64"/>
  <line class="cls-9" x1="234.78" y1="4.64" x2="232.67" y2="4.64"/>
  <path class="cls-14" d="M22.49,149.01c.37.47.88.7,1.53.7.49,0,.9-.13,1.22-.4.32-.27.57-.64.73-1.12.16-.49.24-1.12.24-1.91,0-.67-.05-1.2-.15-1.59-.1-.39-.24-.73-.42-1-.18-.28-.4-.48-.67-.63-.27-.15-.59-.22-.95-.22-.49,0-.9.13-1.22.4-.32.26-.57.64-.73,1.12-.16.48-.25,1.13-.25,1.92,0,1.26.22,2.18.67,2.74M23.1,144c.23-.32.53-.48.91-.48s.71.18.97.55c.26.36.39,1.1.39,2.21s-.13,1.84-.39,2.21c-.26.37-.58.55-.96.55s-.7-.18-.96-.55c-.26-.37-.39-1.1-.39-2.21s.14-1.86.43-2.27Z"/>
  <path class="cls-14" d="M22.87,101.29c.09-.15.21-.3.35-.45.14-.15.46-.43.96-.85.59-.5,1.02-.9,1.28-1.18.25-.29.44-.56.55-.82.11-.26.17-.53.17-.79,0-.53-.19-.97-.57-1.33-.38-.36-.89-.54-1.53-.54s-1.15.17-1.53.5c-.38.33-.6.82-.66,1.45l.85.09c0-.42.12-.75.36-.99.24-.24.56-.36.96-.36.38,0,.68.11.92.34.23.22.35.5.35.83s-.13.64-.39.99c-.26.35-.75.83-1.48,1.43-.47.39-.83.73-1.08,1.02-.25.29-.43.59-.54.89-.07.18-.1.38-.1.58h4.45v-.79h-3.3"/>
  <path class="cls-14" d="M25.3,54.57v-1.61h.91v-.76h-.91v-4.36h-.67l-3.07,4.36v.76h2.92v1.61h.83M22.37,52.2l2.11-3.04v3.04h-2.11Z"/>
  <path class="cls-14" d="M25.5.74c-.34-.3-.77-.45-1.3-.45-.71,0-1.28.26-1.69.77-.48.59-.72,1.54-.72,2.84,0,1.16.22,2,.65,2.51.44.51,1,.76,1.69.76.4,0,.76-.1,1.08-.29.32-.19.57-.47.75-.83.18-.36.27-.76.27-1.18,0-.64-.19-1.17-.58-1.57-.39-.41-.86-.61-1.41-.61-.32,0-.62.07-.9.22-.29.15-.53.37-.73.67,0-.67.08-1.19.23-1.56.15-.36.36-.64.62-.83.2-.15.43-.22.69-.22.33,0,.6.12.83.35.13.15.24.38.31.71l.82-.07c-.07-.52-.27-.93-.61-1.23M23.13,3.82c.26-.27.58-.4.95-.4s.69.13.94.4c.25.27.37.64.37,1.1s-.12.87-.38,1.15c-.25.28-.55.42-.9.42-.24,0-.47-.07-.69-.2-.22-.14-.39-.33-.51-.59-.12-.26-.18-.53-.18-.82,0-.43.13-.79.39-1.05Z"/>
  <path class="cls-14" d="M122.75,156.21c0-.07.04-.15.04-.24,0-.21-.15-.34-.38-.34-.13,0-.47.09-.51.55-.24-.47-.68-.79-1.18-.79-1.43,0-3,1.77-3,3.59,0,1.24.77,1.99,1.69,1.99.73,0,1.33-.6,1.46-.73-.26,1.13-.41,1.65-.41,1.67-.06.11-.47,1.37-1.82,1.37-.23,0-.66-.02-.99-.13.38-.11.51-.45.51-.66s-.13-.45-.47-.45c-.28,0-.69.24-.69.73,0,.53.47.77,1.69.77,1.58,0,2.48-.98,2.67-1.73l1.41-5.6M121.09,159.35c-.07.32-.36.64-.64.88-.26.23-.66.45-1.01.45-.64,0-.83-.66-.83-1.16,0-.6.36-2.09.71-2.74.34-.6.88-1.11,1.41-1.11.83,0,1.01,1.02,1.01,1.07,0,.08-.04.15-.04.19l-.62,2.42"/>
  <path class="cls-14" d="M127.35,160.04c0-.98-.11-1.67-.51-2.29-.28-.41-.83-.75-1.54-.75-2.05,0-2.05,2.41-2.05,3.04s0,3.01,2.05,3.01,2.05-2.37,2.05-3.01M125.3,162.79c-.4,0-.94-.22-1.13-.96-.11-.52-.11-1.24-.11-1.9s0-1.32.13-1.8c.19-.69.75-.88,1.11-.88.49,0,.94.28,1.11.81.13.47.15,1.11.15,1.88,0,.66,0,1.31-.13,1.86-.17.81-.77.99-1.13.99"/>
  <path class="cls-14" d="M134.05,151.98c.06-.17.06-.22.06-.22,0-.15-.11-.26-.26-.26-.07,0-.17.04-.21.11l-4.38,12.02c-.06.17-.06.22-.06.22,0,.15.11.26.24.26.17,0,.21-.1.28-.32l4.32-11.82"/>
  <path class="cls-14" d="M142.41,156.27c0-.56-.23-.88-.51-.88-.32,0-.66.3-.66.58,0,.13.05.28.19.39.21.19.43.53.43,1.05s-.23,1.22-.62,1.8c-.38.54-.85.97-1.45.97-.71,0-1.11-.45-1.22-1.14.13-.32.43-1.13.43-1.49,0-.15-.06-.28-.23-.28-.11,0-.24.04-.34.22-.15.24-.3,1.07-.3,1.52-.41.6-.92,1.16-1.71,1.16s-1.09-.75-1.09-1.45c0-1.58,1.28-2.91,1.28-3.08,0-.13-.1-.23-.24-.23s-.24.15-.32.26c-.64.94-1.13,2.44-1.13,3.59,0,.86.28,1.8,1.33,1.8.88,0,1.48-.62,1.93-1.31.11.73.6,1.31,1.39,1.31.98,0,1.58-.77,2.05-1.71.3-.62.77-2.33.77-3.12"/>
  <path class="cls-14" d="M146.56,159.48c-.32.06-.45.3-.45.49,0,.24.19.34.34.34.19,0,.51-.15.51-.57,0-.62-.69-.77-1.16-.77-1.33,0-2.55,1.22-2.55,2.44,0,.75.53,1.54,1.63,1.54,1.48,0,2.2-.88,2.2-.99,0-.06-.09-.15-.15-.15s-.07.02-.15.08c-.7.83-1.73.83-1.88.83-.64,0-.92-.43-.92-1,0-.24.11-1.22.58-1.82.34-.43.79-.67,1.24-.67.11,0,.54.02.77.26"/>
  <g class="cls-17">
    <path class="cls-14" d="M15.41,116.27s-.06,0-.28.22c-1.58,1.58-3.96,1.97-5.9,1.97-2.2,0-4.4-.47-5.97-2.03-.15-.17-.17-.17-.21-.17-.1,0-.13.06-.13.13,0,.13.87,1.26,2.46,2.01,1.39.64,2.78.79,3.85.79.98,0,2.5-.13,3.93-.83,1.56-.77,2.39-1.84,2.39-1.97,0-.08-.04-.13-.13-.13"/>
  </g>
  <path class="cls-14" d="M9.43,106.58c-.06-.02-.15-.06-.17-.06-.02,0-.15,0-.15.15,0,.11.07.13.17.17,1.86.81,2.71,1.28,2.71,3.44v1.84c0,.17,0,.21-.02.28,0,.13-.02.17-.13.17-.04,0-.06,0-.28-.08l-3.44-.85v-1.26c0-1.07.26-1.07.58-1.07.07,0,.23,0,.62.09.06.02.09.04.13.04.06,0,.13-.06.13-.17,0-.1-.06-.13-.25-.19l-2.95-.71c-.08,0-.15.06-.15.15,0,.11.08.13.23.17.96.26,1.26.49,1.26,1.65v1.18l-3.04-.75c-.43-.11-.49-.13-.49-.68v-1.78c0-1.54.36-1.92,1.39-1.92.32,0,.34,0,.68.06h.22c.06,0,.15-.04.15-.15,0-.13-.08-.15-.32-.17l-2.18-.26c-.34-.04-.34.04-.34.34v6.39c0,.24,0,.38.26.38.13,0,.13-.11.13-.36,0-.47,0-.83.23-.83.06,0,.08,0,.3.08l6.67,1.65c.51.13.6.15.6,1.15,0,.23,0,.36.24.36.15,0,.15-.11.15-.36v-6.54c0-.3-.02-.3-.23-.39l-2.72-1.16"/>
  <path class="cls-14" d="M9.47,94.29c0-.21,0-.45-.24-.45-.26,0-.26.24-.26.45v6.82c0,.23,0,.45.26.45.24,0,.24-.23.24-.45v-6.82"/>
  <path class="cls-14" d="M9.43,81.05c-.06-.04-.15-.08-.17-.08-.02,0-.15,0-.15.15,0,.13.07.15.17.17,1.86.83,2.71,1.3,2.71,3.46v1.84c0,.17,0,.19-.02.26,0,.13-.02.17-.13.17-.04,0-.06,0-.28-.06l-3.44-.86v-1.24c0-1.09.26-1.09.58-1.09.07,0,.23,0,.62.09.06.04.09.04.13.04.06,0,.13-.04.13-.17,0-.09-.06-.13-.25-.19l-2.95-.71c-.08,0-.15.06-.15.15,0,.11.08.15.23.19.96.26,1.26.49,1.26,1.65v1.18l-3.04-.77c-.43-.11-.49-.11-.49-.67v-1.78c0-1.52.36-1.92,1.39-1.92.32,0,.34,0,.68.06.08,0,.17.02.22.02s.15-.04.15-.15c0-.15-.08-.15-.32-.19l-2.18-.24c-.34-.04-.34.02-.34.34v6.37c0,.26,0,.38.26.38.13,0,.13-.11.13-.36,0-.45,0-.81.23-.81.06,0,.08,0,.3.06l6.67,1.67c.51.13.6.15.6,1.15,0,.21,0,.36.24.36.15,0,.15-.11.15-.36v-6.55c0-.28-.02-.3-.23-.38l-2.72-1.16"/>
  <path class="cls-14" d="M11.46,76.11c-.98,0-1.67.11-2.29.51-.41.28-.75.83-.75,1.54,0,2.05,2.41,2.05,3.04,2.05s3.01,0,3.01-2.05-2.37-2.05-3.01-2.05M14.21,78.15c0,.39-.23.94-.96,1.13-.53.11-1.24.11-1.9.11s-1.32,0-1.8-.13c-.69-.19-.88-.75-.88-1.11,0-.49.28-.94.81-1.11.47-.13,1.11-.15,1.88-.15.66,0,1.31,0,1.86.13.81.17,1,.77,1,1.13"/>
  <path class="cls-14" d="M9.23,71.3c-1,0-2.52.15-3.94.84-1.54.75-2.37,1.84-2.37,1.95,0,.08.06.13.13.13.04,0,.06,0,.28-.24,1.26-1.24,3.25-1.95,5.9-1.95,2.16,0,4.38.47,5.95,2.03.17.17.19.17.22.17.08,0,.13-.05.13-.13,0-.11-.86-1.26-2.46-1.99-1.39-.66-2.8-.81-3.85-.81"/>
  <path class="cls-14" d="M3.4,64.54c-.17-.06-.22-.06-.22-.06-.15,0-.26.11-.26.24,0,.09.04.19.11.23l12.02,4.38c.17.06.22.06.22.06.15,0,.26-.11.26-.24,0-.17-.09-.21-.32-.28l-11.82-4.32"/>
  <path class="cls-14" d="M15.41,59.56s-.06,0-.28.21c-1.58,1.58-3.96,1.99-5.9,1.99-2.2,0-4.4-.49-5.97-2.03-.15-.17-.17-.17-.21-.17-.1,0-.13.06-.13.13,0,.11.87,1.26,2.46,1.99,1.39.66,2.78.81,3.85.81.98,0,2.5-.15,3.93-.84,1.56-.75,2.39-1.84,2.39-1.95,0-.07-.04-.13-.13-.13"/>
  <path class="cls-14" d="M5.43,55.58v-2.44c0-.23,0-.36-.15-.36s-.15.15-.15.4v2.33c-.32-.09-.36-.09-.66-.17-.23-.06-.68-.17-.69-.17-.11,0-.15.08-.15.17,0,.24.09,1.24.11,1.54.02.11.04.24.28.24.13,0,.13-.13.13-.3,0-.6.09-.64.21-.64.09,0,.51.11.77.19v.69c0,.26,0,.4.15.4s.15-.11.15-.36v-.66l6.44,1.61c.19.04.21.04.28.04.28,0,.36-.21.36-.36,0-.24-.17-.41-.34-.47-.06-.02-.64-.17-.94-.24l-1.13-.28c-.19-.04-.68-.17-.87-.21-.21-.06-.58-.15-.62-.17-.23-.09-1.54-.77-1.54-2.03,0-.56.45-.7.86-.7.79,0,2.33.58,2.89.81.21.08.39.15.62.15.66,0,1.05-.47,1.05-1.03,0-1.22-1.86-1.65-1.94-1.65-.13,0-.13.11-.13.15,0,.11.04.11.23.19,1.3.36,1.56.92,1.56,1.28,0,.22-.15.3-.41.3-.32,0-.66-.13-.88-.21-.54-.21-2.07-.79-2.78-.79-.92,0-1.35.58-1.35,1.47,0,.38.09,1.15.96,1.86l-2.33-.58"/>
  <path class="cls-14" d="M7.69,44.33c-.56,0-.88.23-.88.51,0,.32.3.66.58.66.13,0,.28-.05.39-.19.19-.21.53-.43,1.05-.43s1.22.23,1.8.62c.54.38.98.85.98,1.45,0,.71-.45,1.11-1.15,1.22-.32-.13-1.13-.43-1.48-.43-.15,0-.28.06-.28.23,0,.09.04.24.23.34.24.15,1.07.3,1.52.3.6.41,1.16.92,1.16,1.71s-.75,1.09-1.45,1.09c-1.58,0-2.91-1.28-3.08-1.28-.13,0-.23.09-.23.24s.15.24.26.32c.94.64,2.44,1.13,3.59,1.13.86,0,1.8-.3,1.8-1.33,0-.88-.62-1.48-1.31-1.93.73-.11,1.31-.6,1.31-1.39,0-.98-.77-1.58-1.71-2.05-.62-.3-2.33-.77-3.12-.77"/>
  <path class="cls-14" d="M10.9,40.25c.06.32.3.45.49.45.24,0,.34-.19.34-.34,0-.21-.15-.51-.56-.51-.62,0-.77.69-.77,1.16,0,1.33,1.22,2.55,2.44,2.55.75,0,1.54-.53,1.54-1.63,0-1.5-.88-2.2-1-2.2-.06,0-.15.07-.15.15,0,.06.02.08.08.15.83.68.83,1.73.83,1.88,0,.64-.43.92-1,.92-.24,0-1.22-.13-1.82-.58-.43-.34-.68-.81-.68-1.24,0-.13.02-.54.26-.77"/>
  <path class="cls-14" d="M9.23,35.33c-1,0-2.52.13-3.94.83-1.54.77-2.37,1.84-2.37,1.97,0,.08.06.13.13.13.04,0,.06,0,.28-.25,1.26-1.24,3.25-1.95,5.9-1.95,2.16,0,4.38.47,5.95,2.03.17.17.19.17.22.17.08,0,.13-.06.13-.13,0-.13-.86-1.26-2.46-2.01-1.39-.64-2.8-.79-3.85-.79"/>
  <rect class="cls-16" x="183.27" y="4.64" width="51.24" height="37.43"/>
  <rect class="cls-5" x="183.27" y="4.64" width="51.24" height="37.43"/>
  <line class="cls-7" x1="186.32" y1="13.05" x2="204.29" y2="13.05"/>
  <line class="cls-2" x1="186.32" y1="23.89" x2="204.29" y2="23.89"/>
  <line class="cls-6" x1="186.32" y1="35.37" x2="204.29" y2="35.37"/>
  <path class="cls-14" d="M216.59,32.92c.08-.29.1-.38.72-.38.21,0,.28,0,.28-.17,0-.1-.1-.1-.13-.1-.22,0-.83.03-1.07.03s-.84-.03-1.09-.03c-.07,0-.15,0-.15.17,0,.1.07.1.24.1.01,0,.17,0,.31.01.15.01.23.03.23.14,0,.03,0,.04-.03.16l-.51,2.06h-2.56l.49-1.99c.09-.29.1-.38.71-.38.23,0,.3,0,.3-.17,0-.1-.1-.1-.13-.1-.23,0-.83.03-1.07.03s-.84-.03-1.08-.03c-.07,0-.15,0-.15.17,0,.1.07.1.22.1.01,0,.18,0,.32.01.15.01.23.03.23.14,0,.03,0,.06-.03.16l-1.13,4.51c-.09.34-.1.41-.78.41-.14,0-.23,0-.23.15,0,.1.1.1.13.1.23,0,.83-.03,1.06-.03.18,0,.37.01.55.01s.37.01.54.01c.07,0,.17,0,.17-.17,0-.08-.07-.08-.23-.08-.31,0-.55,0-.55-.16,0-.06.02-.1.03-.14l.56-2.31h2.56c-.35,1.4-.55,2.2-.58,2.32-.08.27-.24.28-.76.28-.13,0-.21,0-.21.15,0,.1.11.1.13.1.24,0,.83-.03,1.07-.03.17,0,.35.01.54.01s.37.01.55.01c.06,0,.17,0,.17-.17,0-.08-.08-.08-.24-.08-.31,0-.55,0-.55-.16,0-.06.02-.1.03-.14l1.13-4.55"/>
  <path class="cls-14" d="M222.84,30.45s-.01-.07-.08-.07t-.1.07l-.44.45c-.06-.07-.38-.52-1.11-.52-1.42,0-2.83,1.27-2.83,2.59,0,.97.76,1.68,1.82,1.68.31,0,.87-.07,1.48-.59.48-.4.61-.9.61-.94,0-.09-.07-.09-.1-.09-.08,0-.1.03-.11.1-.24.8-1.07,1.3-1.78,1.3-.63,0-1.32-.32-1.32-1.27,0-.17.04-1.1.72-1.85.41-.45,1.03-.72,1.59-.72.68,0,1.08.49,1.08,1.16,0,.17-.03.2-.03.24,0,.07.08.07.11.07.1,0,.1-.01.13-.13l.37-1.48"/>
  <path class="cls-14" d="M220.13,38.07c.54-.13,1.07-.48,1.07-.96,0-.59-.79-1.07-1.7-1.07h-1.99v.21h.14c.45,0,.46.07.46.27v3.08c0,.2-.01.25-.46.25h-.14v.21s.63-.01.87-.01c.26,0,.59.01.87.01v-.21h-.14c-.45,0-.46-.06-.46-.25v-1.46h.79c.11,0,.41,0,.68.24.2.18.2.34.2.73s0,.62.28.85c.25.21.6.24.76.24.51,0,.63-.48.63-.66,0-.04,0-.11-.1-.11-.08,0-.1.06-.1.11-.03.35-.23.49-.41.49-.34,0-.38-.35-.45-.89-.07-.47-.08-.56-.25-.76-.07-.06-.23-.21-.55-.31M219.43,37.97h-.78v-1.48c0-.17.01-.21.17-.22.04-.02.24-.02.37-.02.56,0,1.38,0,1.38.86,0,.66-.52.86-1.14.86"/>
  <path class="cls-14" d="M224.72,38.5c0-.31,0-.53-.27-.75-.25-.21-.53-.3-.87-.3-.56,0-.96.21-.96.56,0,.2.13.3.28.3s.28-.13.28-.28c0-.1-.05-.22-.21-.27.21-.15.55-.15.59-.15.33,0,.69.23.69.72v.18c-.32.01-.72.03-1.15.18-.52.2-.69.52-.69.79,0,.51.62.66,1.03.66.48,0,.76-.27.87-.51.03.25.18.48.46.48,0,0,.58,0,.58-.56v-.32h-.2v.31c0,.07,0,.35-.23.35-.21,0-.21-.28-.21-.35v-1.04M224.26,39.24c0,.58-.49.73-.76.73-.31,0-.59-.2-.59-.49,0-.32.28-.78,1.35-.82v.58"/>
  <path class="cls-14" d="M226.6,35.99l-.89.06v.21c.41,0,.45.06.45.35v3.47h.2l.2-.35c.23.3.55.42.87.42.77,0,1.44-.59,1.44-1.34s-.6-1.32-1.38-1.32c-.35,0-.68.14-.89.35v-1.84M226.63,38.1c.15-.27.48-.47.83-.47s.56.2.69.37c.11.18.18.41.18.8,0,.13,0,.58-.24.85-.24.27-.52.32-.69.32-.48,0-.72-.37-.77-.49v-1.38"/>
  <path class="cls-14" d="M230.43,36.44c0-.17-.14-.34-.35-.34-.17,0-.34.14-.34.34,0,.21.18.34.34.34.2,0,.35-.14.35-.34M229.53,37.54v.21c.37,0,.42.04.42.32v1.54c0,.25-.06.25-.44.25v.21s.42-.02.66-.02c.2,0,.41,0,.62.02v-.21c-.34,0-.4,0-.4-.24v-2.14l-.87.06"/>
  <path class="cls-14" d="M216.59,21.44c.08-.29.1-.38.72-.38.21,0,.28,0,.28-.17,0-.1-.1-.1-.13-.1-.22,0-.83.03-1.07.03s-.84-.03-1.09-.03c-.07,0-.15,0-.15.17,0,.1.07.1.24.1.01,0,.17,0,.31.01.15.01.23.03.23.14,0,.03,0,.04-.03.15l-.51,2.06h-2.56l.49-1.99c.09-.29.1-.38.71-.38.23,0,.3,0,.3-.17,0-.1-.1-.1-.13-.1-.23,0-.83.03-1.07.03s-.84-.03-1.08-.03c-.07,0-.15,0-.15.17,0,.1.07.1.22.1.01,0,.18,0,.32.01.15.01.23.03.23.14,0,.03,0,.06-.03.15l-1.13,4.51c-.09.34-.1.41-.78.41-.14,0-.23,0-.23.16,0,.1.1.1.13.1.23,0,.83-.03,1.06-.03.18,0,.37.02.55.02s.37.01.54.01c.07,0,.17,0,.17-.17,0-.08-.07-.08-.23-.08-.31,0-.55,0-.55-.16,0-.05.02-.1.03-.14l.56-2.31h2.56c-.35,1.4-.55,2.2-.58,2.33-.08.27-.24.28-.76.28-.13,0-.21,0-.21.16,0,.1.11.1.13.1.24,0,.83-.03,1.07-.03.17,0,.35.02.54.02s.37.01.55.01c.06,0,.17,0,.17-.17,0-.08-.08-.08-.24-.08-.31,0-.55,0-.55-.16,0-.05.02-.1.03-.14l1.13-4.55"/>
  <path class="cls-14" d="M218.98,22.58c-.06.21-.06.25-.52.25-.11,0-.18,0-.18.13,0,.08.07.08.18.08h2.1c1.31,0,2.58-1.2,2.58-2.49,0-.86-.61-1.53-1.56-1.53h-2.14c-.13,0-.2,0-.2.13,0,.08.07.08.2.08.1,0,.11,0,.22.02.11.01.13.03.13.08,0,.01,0,.04-.03.13l-.77,3.13M220.3,19.42c.04-.18.04-.2.3-.2h.76c.66,0,1.21.34,1.21,1.13,0,.14-.06,1.17-.65,1.83-.24.27-.75.65-1.46.65h-.8q-.18,0-.18-.06s0-.04.01-.13l.82-3.23"/>
  <path class="cls-14" d="M220.13,26.59c.54-.13,1.07-.48,1.07-.96,0-.59-.79-1.07-1.7-1.07h-1.99v.21h.14c.45,0,.46.07.46.27v3.08c0,.2-.01.25-.46.25h-.14v.21s.63-.01.87-.01c.26,0,.59.01.87.01v-.21h-.14c-.45,0-.46-.06-.46-.25v-1.46h.79c.11,0,.41,0,.68.24.2.18.2.34.2.73s0,.62.28.85c.25.21.6.24.76.24.51,0,.63-.48.63-.66,0-.04,0-.11-.1-.11-.08,0-.1.06-.1.11-.03.35-.23.49-.41.49-.34,0-.38-.35-.45-.89-.07-.47-.08-.56-.25-.76-.07-.06-.23-.21-.55-.31M219.43,26.49h-.78v-1.48c0-.17.01-.21.17-.22.04-.02.24-.02.37-.02.56,0,1.38,0,1.38.86,0,.66-.52.86-1.14.86"/>
  <path class="cls-14" d="M224.72,27.01c0-.31,0-.53-.27-.75-.25-.21-.53-.3-.87-.3-.56,0-.96.21-.96.56,0,.2.13.3.28.3s.28-.13.28-.28c0-.1-.05-.22-.21-.27.21-.15.55-.15.59-.15.33,0,.69.22.69.72v.18c-.32.01-.72.03-1.15.18-.52.2-.69.52-.69.79,0,.51.62.66,1.03.66.48,0,.76-.27.87-.51.03.25.18.48.46.48,0,0,.58,0,.58-.56v-.32h-.2v.31c0,.07,0,.35-.23.35-.21,0-.21-.28-.21-.35v-1.04M224.26,27.76c0,.58-.49.73-.76.73-.31,0-.59-.2-.59-.49,0-.33.28-.78,1.35-.82v.58"/>
  <path class="cls-14" d="M226.6,24.51l-.89.06v.21c.41,0,.45.06.45.35v3.47h.2l.2-.35c.23.29.55.42.87.42.77,0,1.44-.59,1.44-1.34s-.6-1.32-1.38-1.32c-.35,0-.68.14-.89.35v-1.85M226.63,26.62c.15-.27.48-.47.83-.47s.56.2.69.37c.11.18.18.41.18.8,0,.13,0,.58-.24.85s-.52.32-.69.32c-.48,0-.72-.37-.77-.49v-1.38"/>
  <path class="cls-14" d="M230.43,24.96c0-.17-.14-.34-.35-.34-.17,0-.34.14-.34.34,0,.21.18.34.34.34.2,0,.35-.14.35-.34M229.53,26.06v.21c.37,0,.42.04.42.32v1.54c0,.25-.06.25-.44.25v.21s.42-.01.66-.01c.2,0,.41,0,.62.01v-.21c-.34,0-.4,0-.4-.24v-2.14l-.87.06"/>
  <path class="cls-14" d="M211.74,15.5v-2.87h2.96v-.74h-2.96v-1.96h3.42v-.74h-4.26v6.31h.84M219.84,15.5v-4.57h-.77v2.45c0,.39-.04.69-.13.89-.08.21-.23.37-.43.49-.2.12-.42.18-.65.18s-.43-.06-.58-.17c-.16-.12-.26-.28-.31-.48-.03-.14-.05-.41-.05-.82v-2.54h-.77v2.83c0,.33.01.57.05.72.04.23.12.42.24.58.11.16.29.29.52.39.23.1.49.16.76.16.61,0,1.1-.26,1.45-.78v.67h.69ZM221.04,15.5h.77v-6.31h-.77v6.31ZM223,15.5h.77v-6.31h-.77v6.31Z"/>
  <polyline class="cls-12" points="28.64 122.06 43.68 122.06 47.33 121.94 54.52 121.94 58.17 121.82 61.71 121.82 65.36 121.7 69.01 121.7 72.55 121.58 83.39 121.22 85.05 121.1 86.81 121.1 88.48 120.99 90.25 120.87 91.91 120.75 93.67 120.63 95.33 120.51 97.1 120.39 98.76 120.27 100.53 120.03 102.19 119.92 103.96 119.67 105.62 119.44 107.39 119.2 109.05 118.96 110.82 118.6 112.48 118.37 114.24 117.89 115.9 117.53 117.67 117.06 119.33 116.58 121.1 116.1 122.76 115.51 124.53 114.91 126.19 114.2 127.96 113.48 129.62 112.65 131.39 111.7 133.05 110.74 134.82 109.67 136.48 108.48 138.25 107.29 139.91 105.86 141.67 104.43 143.33 102.77 145.1 101.1 146.76 99.19 148.53 97.17 150.19 95.03 151.96 92.76 152.73 91.45 153.62 90.26 154.5 88.95 155.39 87.64 156.16 86.21 157.05 84.78 157.93 83.24 158.82 81.69 159.59 80.14 160.48 78.47 161.36 76.81 162.25 75.02 163.02 73.23 163.9 71.33 164.79 69.42 165.68 67.4 166.45 65.25 167.33 63.23 168.22 60.97 169.1 58.7 169.88 56.32 170.76 53.94 171.65 51.44 172.53 48.94 173.31 46.2 174.19 43.58 175.08 40.72 175.96 37.86 176.73 34.89 177.62 31.79 178.5 28.58 179.39 25.36 180.16 21.91 181.05 18.46 181.93 14.88 182.82 11.19 183.59 7.38 184.14 5"/>
  <polyline class="cls-12" points="28.99 122.3 29.66 122.3 33.2 122.42 51.22 122.42 54.87 122.53 65.71 122.53 69.36 122.65 76.55 122.65 80.09 122.77 88.83 122.77 90.6 122.89 99.11 122.89 100.88 123.01 135.17 123.01 136.83 122.89 145.45 122.89 147.11 122.77 154.86 122.77 155.74 122.65 164.26 122.65 165.14 122.53 177.97 122.53 178.86 122.42 198.54 122.42 199.43 122.3 234.71 122.3"/>
  <polyline class="cls-12" points="28.64 28.58 32.84 28.58 36.49 28.7 65.36 28.7 69.01 28.58 72.55 28.58 76.2 28.46 79.74 28.22 83.39 27.98 85.05 27.74 86.81 27.62 88.48 27.39 90.25 27.15 91.91 26.91 93.67 26.55 95.33 26.2 97.1 25.84 98.76 25.36 100.53 24.77 102.19 24.17 103.96 23.58 105.62 22.74 107.39 21.91 109.05 20.96 110.82 19.88 112.48 18.69 114.24 17.26 115.9 15.83 117.67 14.17 119.33 12.26 121.1 10.12 122.76 7.86 124.53 5.36 124.75 5"/>
  <polyline class="cls-12" points="28.64 51.56 32.84 51.56 36.49 51.44 40.14 51.44 43.68 51.32 47.33 51.32 50.87 51.2 58.17 50.96 61.71 50.73 65.36 50.61 69.01 50.37 72.55 50.01 76.2 49.65 79.74 49.3 83.39 48.7 85.05 48.46 86.81 48.11 88.48 47.87 90.25 47.39 91.91 47.03 93.67 46.56 95.33 46.08 97.1 45.49 98.76 44.89 100.53 44.18 102.19 43.46 103.96 42.63 105.62 41.68 107.39 40.72 109.05 39.65 110.82 38.34 112.48 37.03 114.24 35.6 115.9 33.94 117.67 32.15 119.33 30.24 121.1 28.1 122.76 25.72 124.53 23.22 126.19 20.36 127.96 17.26 129.62 13.93 131.39 10.24 133.05 6.31 133.6 5"/>
  <polyline class="cls-12" points="28.64 52.04 36.49 52.04 40.14 52.15 69.01 52.15 72.55 52.04 76.2 52.04 79.74 51.92 83.39 51.68 85.05 51.56 86.81 51.44 88.48 51.32 90.25 51.2 91.91 50.97 93.67 50.73 95.33 50.49 97.1 50.13 98.76 49.77 100.53 49.42 102.19 48.94 103.96 48.46 105.62 47.87 107.39 47.27 109.05 46.56 110.82 45.73 112.48 44.89 114.24 43.82 115.9 42.75 117.67 41.44 119.33 40.01 121.1 38.46 122.76 36.79 124.53 34.89 126.19 32.75 127.96 30.48 129.62 27.98 131.39 25.12 133.05 22.15 134.82 18.81 136.48 15.24 138.25 11.31 139.91 7.14 140.79 5"/>
  <polyline class="cls-12" points="28.64 75.14 29.3 75.02 36.49 75.02 40.14 74.9 43.68 74.9 47.33 74.78 50.87 74.78 58.17 74.54 61.71 74.42 65.36 74.3 69.01 74.07 72.55 73.83 76.2 73.59 79.74 73.23 83.39 72.88 85.05 72.64 86.81 72.4 88.48 72.16 90.25 71.92 91.91 71.57 93.67 71.21 95.33 70.85 97.1 70.38 98.76 69.9 100.53 69.42 102.19 68.83 103.96 68.23 105.62 67.52 107.39 66.8 109.05 65.97 110.82 65.02 112.48 64.06 114.24 62.99 115.9 61.8 117.67 60.37 119.33 58.94 121.1 57.39 124.53 53.7 126.19 51.56 127.96 49.3 129.62 46.8 131.39 44.06 133.05 41.08 134.82 37.86 138.25 30.48 139.91 26.32 141.67 21.91 143.33 17.03 145.1 11.91 146.76 6.31 147.21 5"/>
  <polyline class="cls-12" points="28.64 75.5 40.14 75.5 43.68 75.61 76.2 75.61 79.74 75.5 83.39 75.5 85.05 75.38 86.81 75.26 88.48 75.26 90.25 75.14 91.91 75.02 93.67 74.78 95.33 74.66 97.1 74.42 98.76 74.3 100.53 74.07 102.19 73.71 103.96 73.35 105.62 72.99 107.39 72.64 109.05 72.16 110.82 71.57 112.48 70.97 114.24 70.38 115.9 69.54 117.67 68.71 119.33 67.76 121.1 66.8 122.76 65.61 124.53 64.3 126.19 62.87 127.96 61.33 129.62 59.66 131.39 57.87 133.05 55.85 134.82 53.58 136.48 51.2 138.25 48.58 139.91 45.72 141.67 42.75 143.33 39.41 145.1 35.84 146.76 32.03 148.53 27.98 150.19 23.58 151.96 18.81 152.73 16.31 153.62 13.69 154.5 11.07 155.39 8.33 156.16 5.48 156.39 5"/>
  <polyline class="cls-12" points="28.64 98.6 32.84 98.6 36.49 98.48 43.68 98.48 47.33 98.36 50.87 98.36 54.52 98.24 58.17 98.24 72.55 97.77 76.2 97.53 79.74 97.29 83.39 97.05 85.05 96.93 86.81 96.69 88.48 96.57 90.25 96.34 91.91 96.1 93.67 95.86 95.33 95.62 97.1 95.38 98.76 95.03 100.53 94.67 102.19 94.31 103.96 93.95 105.62 93.48 107.39 93 109.05 92.41 110.82 91.81 112.48 91.09 114.24 90.38 115.9 89.55 117.67 88.71 119.33 87.76 121.1 86.69 122.76 85.5 124.53 84.19 126.19 82.88 127.96 81.33 129.62 79.66 131.39 77.88 133.05 75.85 134.82 73.71 136.48 71.33 138.25 68.83 139.91 66.09 141.67 63.11 143.33 59.89 145.1 56.44 146.76 52.75 148.53 48.7 150.19 44.42 151.96 39.77 152.73 37.39 153.62 34.77 154.5 32.27 155.39 29.53 156.16 26.67 157.05 23.81 157.93 20.84 158.82 17.74 159.59 14.53 160.48 11.31 161.36 7.86 162.03 5"/>
  <polyline class="cls-12" points="28.64 98.95 43.68 98.95 47.33 99.07 61.71 99.07 65.36 99.2 83.39 99.2 85.05 99.07 90.25 99.07 91.91 98.95 93.67 98.95 95.33 98.84 97.1 98.72 98.76 98.6 100.53 98.48 102.19 98.36 103.96 98.24 105.62 98.12 107.39 97.88 109.05 97.65 110.82 97.41 112.48 97.05 114.24 96.7 115.9 96.34 117.67 95.98 119.33 95.5 121.1 94.91 122.76 94.31 124.53 93.71 126.19 93 127.96 92.29 129.62 91.33 131.39 90.5 133.05 89.43 134.82 88.36 136.48 87.05 138.25 85.74 139.91 84.31 141.67 82.76 143.33 81.21 145.1 79.31 146.76 77.4 148.53 75.38 150.19 73.11 151.96 70.73 152.73 69.54 153.62 68.23 154.5 66.92 155.39 65.49 156.16 64.06 157.05 62.63 157.93 61.09 158.82 59.54 159.59 57.87 160.48 56.2 161.36 54.54 162.25 52.75 163.02 50.85 163.9 48.94 164.79 47.03 165.68 44.89 166.45 42.87 167.33 40.72 168.22 38.46 169.1 36.2 169.88 33.82 170.76 31.43 171.65 28.82 172.53 26.32 173.31 23.58 174.19 20.84 175.08 17.98 175.96 15.12 176.73 12.14 177.62 9.05 178.5 5.83 178.73 5"/>
  <line class="cls-12" x1="184.37" y1="35.37" x2="202.34" y2="35.37"/>
  <polyline class="cls-7" points="28.64 98.95 36.49 98.95 40.14 99.07 50.87 99.07 54.52 99.2 58.17 99.2 61.71 99.31 65.36 99.31 69.01 99.43 72.55 99.55 76.2 99.55 83.39 99.79 85.05 99.91 86.82 99.91 88.48 100.03 90.25 100.15 91.91 100.15 93.67 100.27 95.33 100.38 97.1 100.38 98.76 100.5 100.53 100.62 102.19 100.74 103.96 100.86 105.62 100.98 107.39 101.1 109.05 101.22 110.82 101.45 112.48 101.57 114.24 101.7 115.9 101.93 117.67 102.05 119.33 102.29 121.1 102.53 122.76 102.65 124.53 102.88 126.19 103.12 127.96 103.48 129.62 103.72 131.39 103.96 133.05 104.31 134.82 104.55 136.48 104.91 138.25 105.27 139.91 105.74 141.67 106.1 143.33 106.46 145.1 106.93 146.76 107.41 148.53 107.89 150.19 108.48 151.96 108.96 152.73 109.32 153.62 109.55 154.5 109.91 155.39 110.15 156.16 110.51 157.05 110.86 157.93 111.1 158.82 111.46 159.59 111.82 161.36 112.53 162.25 112.29 163.02 112.06 163.9 111.82 164.79 111.58 165.68 111.46 166.45 111.22 167.33 110.98 168.22 110.74 169.1 110.63 169.88 110.51 170.76 110.39 171.65 110.27 174.19 110.27 175.96 110.51 176.73 110.63 177.62 110.86 178.5 111.22 179.39 111.58 180.16 111.94 181.93 112.89 182.82 113.36 183.59 113.84 184.48 114.32 185.36 114.91 186.14 115.39 187.02 115.99 187.91 116.58 188.79 117.06 189.56 117.53 190.45 118.01 191.33 118.49 192.22 118.96 192.99 119.44 193.88 119.79 194.76 120.15 195.65 120.51 196.42 120.87 197.31 121.1 198.19 121.34 199.08 121.46 199.85 121.7 200.73 121.82 202.5 122.06 203.28 122.17 204.16 122.17 205.05 122.3 206.71 122.3 207.59 122.42 220.42 122.42 221.31 122.53 227.28 122.53 228.16 122.65 232.48 122.65 233.36 122.77 234.36 122.77"/>
  <polyline class="cls-7" points="28.64 122.18 29.3 122.06 47.33 122.06 50.87 121.94 58.17 121.94 61.71 121.82 69.01 121.82 72.55 121.7 76.2 121.7 79.74 121.58 83.39 121.46 86.82 121.46 88.48 121.34 90.25 121.34 91.91 121.22 93.67 121.22 95.33 121.1 97.1 121.1 98.76 120.99 100.53 120.87 102.19 120.87 103.96 120.75 105.62 120.63 107.39 120.63 109.05 120.51 110.82 120.39 112.48 120.27 114.24 120.15 115.9 120.03 117.67 119.91 119.33 119.79 121.1 119.56 122.76 119.44 124.53 119.32 126.19 119.08 127.96 118.96 129.62 118.72 131.39 118.49 133.05 118.37 134.82 118.13 136.48 117.89 138.25 117.53 139.91 117.29 141.67 117.06 143.33 116.7 145.1 116.46 146.76 116.1 148.53 115.75 150.19 115.39 151.96 114.91 152.73 114.79 153.62 114.56 154.5 114.32 155.39 114.08 156.16 113.96 157.05 113.72 157.93 113.48 158.82 113.24 159.59 113.01 160.48 112.77 161.36 112.53 162.25 112.89 163.02 113.24 163.9 113.72 164.79 114.08 165.68 114.44 166.45 114.91 167.33 115.27 168.22 115.75 169.1 116.1 169.88 116.58 170.76 117.06 171.65 117.41 172.53 117.89 173.31 118.37 174.19 118.84 175.08 119.2 175.96 119.68 176.73 120.15 177.62 120.63 178.5 120.99 179.39 121.46 180.16 121.82 181.05 122.3 181.93 122.65 182.82 123.01 183.59 123.37 184.48 123.72 185.36 123.96 186.14 124.2 187.02 124.44 187.91 124.56 188.79 124.68 189.56 124.8 190.45 124.92 191.33 124.92 192.22 124.8 192.99 124.68 193.88 124.56 194.76 124.44 195.65 124.32 196.42 124.08 197.31 123.84 198.19 123.72 199.08 123.49 199.85 123.25 200.73 123.13 201.62 123.01 202.5 122.89 203.28 122.77 204.16 122.65 205.05 122.53 206.71 122.53 207.59 122.41 220.42 122.41 221.31 122.53 227.28 122.53 228.16 122.65 232.48 122.65 233.36 122.77 234.36 122.77"/>
  <polyline class="cls-7" points="28.64 122.3 29.3 122.42 47.33 122.42 50.87 122.53 58.17 122.53 61.71 122.65 69.01 122.65 72.55 122.77 76.2 122.77 83.39 123.01 86.82 123.01 88.48 123.13 90.25 123.13 91.91 123.25 93.67 123.25 95.33 123.37 97.1 123.37 98.76 123.49 100.53 123.6 102.19 123.6 103.96 123.72 105.62 123.84 107.39 123.84 109.05 123.96 110.82 124.08 112.48 124.2 114.24 124.32 115.9 124.44 117.67 124.56 119.33 124.68 121.1 124.8 122.76 125.03 124.53 125.15 126.19 125.39 127.96 125.51 129.62 125.75 131.39 125.87 133.05 126.1 134.82 126.35 136.48 126.58 138.25 126.82 139.91 127.18 141.67 127.42 143.33 127.77 145.1 128.01 146.76 128.37 148.53 128.73 150.19 129.08 151.96 129.56 152.73 129.8 153.62 129.92 154.5 130.15 155.39 130.39 156.16 130.63 157.93 131.11 158.82 131.35 159.59 131.58 160.48 131.82 161.36 132.18 162.25 132.42 163.02 132.66 163.9 133.01 164.79 133.25 165.68 133.61 166.45 133.96 167.33 134.21 168.22 134.56 169.1 134.92 169.88 135.28 170.76 135.51 171.65 135.87 172.53 136.23 173.31 136.59 174.19 137.06 175.96 137.78 176.73 138.13 177.62 138.49 178.5 138.97 179.39 139.32 180.16 139.68 181.05 140.04 181.93 140.51 182.82 140.87 183.59 141.23 184.48 141.59 185.36 141.94 186.14 142.3 187.02 142.66 187.91 143.02 188.79 143.37 189.56 143.61 190.45 143.85 191.33 144.09 192.22 144.33 192.99 144.56 193.88 144.8 194.76 144.92 195.65 145.04 196.42 145.16 197.31 145.28 198.19 145.4 199.08 145.4 199.85 145.52 200.73 145.52 201.62 145.64 234.36 145.64"/>
  <polyline class="cls-7" points="28.64 75.14 32.84 75.14 36.49 75.02 43.68 75.02 47.33 74.9 50.87 74.9 54.52 74.78 58.17 74.78 61.71 74.66 65.36 74.66 69.01 74.54 72.55 74.42 76.2 74.3 79.74 74.19 83.39 74.07 85.05 73.95 86.82 73.83 88.48 73.83 90.25 73.71 91.91 73.59 93.67 73.47 95.33 73.35 97.1 73.23 98.76 73.11 100.53 72.99 102.19 72.88 103.96 72.76 105.62 72.64 107.39 72.4 109.05 72.28 110.82 72.16 112.48 71.92 114.24 71.69 115.9 71.45 117.67 71.33 119.33 71.09 121.1 70.85 122.76 70.49 124.53 70.26 126.19 69.9 127.96 69.66 129.62 69.3 131.39 68.95 133.05 68.59 134.82 68.23 136.48 67.76 138.25 67.4 139.91 66.92 141.67 66.44 143.33 65.97 145.1 65.49 146.76 65.02 148.53 64.54 150.19 65.13 151.96 65.85 152.73 66.21 153.62 66.56 155.39 67.28 156.16 67.63 158.82 68.71 159.59 69.07 160.48 69.42 161.36 69.78 162.25 70.02 163.02 70.38 163.9 70.61 164.79 70.85 165.68 70.97 166.45 71.21 167.33 71.33 169.1 71.33 169.88 71.21 170.76 71.09 171.65 70.97 172.53 70.73 173.31 70.38 174.19 70.14 175.08 69.78 175.96 69.42 176.73 68.95 177.62 69.42 178.5 70.14 179.39 70.85 180.16 71.57 181.05 72.28 181.93 72.99 182.82 73.71 183.59 74.3 184.48 74.78 185.36 75.26 186.14 75.5 187.02 75.73 187.91 75.73 188.79 75.61 189.56 75.38 190.45 74.9 191.33 74.42 192.22 73.71 192.99 73.95 193.88 74.78 194.76 75.5 195.65 76.09 196.42 76.69 197.31 77.28 198.19 77.76 199.08 78.11 199.85 78.47 200.73 78.71 201.62 78.83 203.28 78.83 205.05 78.35 205.93 78 206.71 77.64 207.59 77.4 208.48 77.04 209.36 76.69 210.14 76.45 211.02 76.33 211.91 76.09 212.79 76.09 213.56 75.97 220.42 75.97 221.31 76.09 223.08 76.09 223.85 76.21 225.62 76.21 226.51 76.33 227.28 76.33 228.16 76.45 229.05 76.45 229.93 76.57 230.71 76.57 231.59 76.69 232.48 76.69 233.36 76.8 234.14 76.93 234.36 76.93"/>
  <polyline class="cls-7" points="28.64 98.6 36.49 98.6 40.14 98.48 50.87 98.48 54.52 98.36 58.17 98.36 61.71 98.24 65.36 98.24 69.01 98.12 72.55 98 76.2 98 79.74 97.88 83.39 97.77 85.05 97.65 86.82 97.65 88.48 97.53 90.25 97.41 91.91 97.41 93.67 97.29 95.33 97.17 97.1 97.17 98.76 97.05 100.53 96.93 102.19 96.81 103.96 96.69 105.62 96.57 107.39 96.45 109.05 96.34 110.82 96.1 112.48 95.98 114.24 95.86 115.9 95.62 117.67 95.5 119.33 95.27 121.1 95.03 122.76 94.91 124.53 94.67 126.19 94.43 127.96 94.07 129.62 93.84 131.39 93.6 133.05 93.24 134.82 93 136.48 92.64 138.25 92.29 139.91 91.93 141.67 91.45 143.33 91.09 145.1 90.62 146.76 90.14 148.53 89.79 150.19 89.19 151.96 88.71 152.73 88.48 153.62 88.36 154.5 88.71 155.39 89.07 156.16 89.43 157.05 89.79 158.82 90.5 159.59 90.86 160.48 91.21 161.36 91.69 162.25 92.05 163.02 92.41 163.9 92.76 164.79 93.24 165.68 93.6 166.45 93.95 167.33 94.31 168.22 94.67 169.1 94.91 169.88 95.27 170.76 95.5 171.65 95.74 172.53 95.98 173.31 96.1 174.19 96.22 175.96 96.22 176.73 96.1 177.62 95.98 178.5 95.74 179.39 95.5 180.16 95.27 181.05 94.91 181.93 94.55 182.82 94.19 183.59 94.79 184.48 95.5 185.36 96.22 186.14 96.93 187.02 97.53 187.91 98.24 188.79 98.84 189.56 99.43 190.45 100.03 191.33 100.5 192.22 100.98 192.99 101.34 193.88 101.7 194.76 101.93 195.65 102.05 196.42 102.17 198.19 102.17 199.08 102.05 199.85 101.81 200.73 101.57 201.62 101.34 202.5 100.98 203.28 100.74 204.16 100.38 205.05 100.15 205.93 99.91 206.71 99.67 207.59 99.55 208.48 99.43 209.36 99.31 210.14 99.19 220.42 99.19 221.31 99.31 224.74 99.31 225.62 99.43 227.28 99.43 228.16 99.55 229.93 99.55 230.71 99.67 232.48 99.67 233.36 99.79 234.36 99.79"/>
  <polyline class="cls-7" points="28.64 75.5 32.84 75.5 36.49 75.61 43.68 75.61 47.33 75.73 50.87 75.73 54.52 75.85 58.17 75.85 61.71 75.97 65.36 75.97 69.01 76.09 72.55 76.21 76.2 76.33 79.74 76.45 83.39 76.57 85.05 76.69 86.82 76.8 88.48 76.8 90.25 76.93 91.91 77.04 93.67 77.16 95.33 77.28 97.1 77.4 98.76 77.52 100.53 77.64 102.19 77.76 103.96 77.88 105.62 78 107.39 78.23 109.05 78.35 110.82 78.47 112.48 78.71 114.24 78.95 115.9 79.07 117.67 79.31 119.33 79.54 121.1 79.78 122.76 80.14 124.53 80.38 126.19 80.74 127.96 80.97 129.62 81.33 131.39 81.69 133.05 82.04 134.82 82.4 136.48 82.88 138.25 83.24 139.91 83.71 141.67 84.19 143.33 84.78 145.1 85.26 146.76 85.86 148.53 86.45 150.19 87.05 151.96 87.64 152.73 88 153.62 88.24 154.5 88 155.39 87.76 156.16 87.41 157.05 87.17 158.82 86.69 159.59 86.45 160.48 86.21 161.36 86.09 162.25 85.86 163.02 85.62 163.9 85.5 164.79 85.38 168.22 85.38 169.1 85.62 169.88 85.74 170.76 85.98 171.65 86.33 172.53 86.69 173.31 87.17 174.19 87.64 175.08 88.12 175.96 88.71 176.73 89.19 177.62 89.91 178.5 90.5 179.39 91.21 180.16 91.93 181.05 92.64 181.93 93.36 182.82 94.07 183.59 93.72 184.48 93.36 185.36 93 186.14 92.76 187.02 92.52 187.91 92.29 189.56 92.29 190.45 92.41 191.33 92.64 192.22 93 192.99 93.36 193.88 93.72 194.76 94.19 195.65 94.67 196.42 95.03 197.31 95.5 198.19 95.98 199.08 96.34 199.85 96.81 201.62 97.53 202.5 97.77 203.28 98 204.16 98.24 205.05 98.48 205.93 98.6 206.71 98.72 207.59 98.84 208.48 98.95 209.36 98.95 210.14 99.07 214.45 99.07 215.33 99.19 220.42 99.19 221.31 99.31 224.74 99.31 225.62 99.43 227.28 99.43 228.16 99.55 229.93 99.55 230.71 99.67 232.48 99.67 233.36 99.79 234.36 99.79"/>
  <path class="cls-6" d="M28.64,122.3h.66l3.54.12h18.03l3.65.12h10.84l3.65.12h7.19l3.54.12h8.74l1.77.12h8.51l1.77.12h34.28l1.66-.12h8.63l1.66-.12h7.74l.89-.12h8.51l.89-.12h12.83l.88-.12h19.69l.89-.12h35.28M28.64,122.06h15.04l3.65-.12h7.19l3.65-.12h3.54l3.65-.12h3.65l3.54-.12,3.65-.12,3.54-.12,3.65-.12,1.66-.12h1.77l1.66-.12,1.77-.12,1.66-.12,1.77-.12,1.66-.12,1.77-.12,1.66-.12,1.77-.24,1.66-.12,1.77-.24,1.66-.24,1.77-.24,1.66-.24,1.77-.36,1.66-.24,1.77-.48,1.66-.36,1.77-.47,1.66-.48,1.77-.48,1.66-.59,1.77-.59,1.66-.71,1.77-.72,1.66-.83,1.77-.95,1.66-.95,1.77-1.07,1.66-1.19,1.77-1.19,1.66-1.43,1.77-1.43,1.66-1.67,1.77-1.67,1.66-1.9,1.77-2.03,1.66-2.14,1.77-2.26.77-1.31.89-1.19.89-1.31.89-1.31.77-1.43.89-1.43.88-1.55.88-1.55.77-1.55.89-1.67.88-1.67.88-1.79.77-1.79.88-1.9.89-1.91.88-2.02.77-2.14.89-2.02.88-2.26.88-2.26.77-2.38.89-2.38.88-2.5.88-2.5.77-2.74.89-2.62.89-2.86.88-2.86.77-2.97.89-3.1.88-3.22.89-3.22.77-3.45.89-3.45.88-3.57.88-3.69.77-3.81.55-2.38M28.64,98.95h15.04l3.65.12h14.38l3.65.12h18.03l1.66-.12h5.2l1.66-.12h1.77l1.66-.12,1.77-.12,1.66-.12,1.77-.12,1.66-.12,1.77-.12,1.66-.12,1.77-.24,1.66-.24,1.77-.24,1.66-.36,1.77-.36,1.66-.36,1.77-.36,1.66-.48,1.77-.59,1.66-.6,1.77-.6,1.66-.71,1.77-.71,1.66-.95,1.77-.83,1.66-1.07,1.77-1.07,1.66-1.31,1.77-1.31,1.66-1.43,1.77-1.55,1.66-1.55,1.77-1.91,1.66-1.91,1.77-2.02,1.66-2.26,1.77-2.38.77-1.19.89-1.31.89-1.31.89-1.43.77-1.43.89-1.43.88-1.55.88-1.55.77-1.67.89-1.67.88-1.67.88-1.79.77-1.91.88-1.91.89-1.9.88-2.14.77-2.03.89-2.14.88-2.26.88-2.26.77-2.38.89-2.38.88-2.62.88-2.5.77-2.74.89-2.74.89-2.86.88-2.86.77-2.98.89-3.1.88-3.22.22-.83M28.64,98.6h4.2l3.65-.12h7.19l3.65-.12h3.54l3.65-.12h3.65l3.54-.12,3.65-.12,3.65-.12,3.54-.12,3.65-.24,3.54-.24,3.65-.24,1.66-.12,1.77-.24,1.66-.12,1.77-.24,1.66-.24,1.77-.24,1.66-.24,1.77-.24,1.66-.36,1.77-.36,1.66-.36,1.77-.36,1.66-.48,1.77-.48,1.66-.59,1.77-.6,1.66-.71,1.77-.71,1.66-.83,1.77-.83,1.66-.95,1.77-1.07,1.66-1.19,1.77-1.31,1.66-1.31,1.77-1.55,1.66-1.67,1.77-1.79,1.66-2.02,1.77-2.14,1.66-2.38,1.77-2.5,1.66-2.74,1.77-2.97,1.66-3.22,1.77-3.45,1.66-3.69,1.77-4.05,1.66-4.29,1.77-4.64.77-2.38.89-2.62.89-2.5.89-2.74.77-2.86.89-2.86.88-2.98.88-3.1.77-3.22.89-3.22.88-3.45.66-2.86"/>
  <polyline class="cls-7" points="28.64 52.04 29.3 52.15 40.14 52.15 43.68 52.27 47.33 52.27 50.87 52.39 54.52 52.39 58.17 52.51 61.71 52.63 65.36 52.63 69.01 52.75 76.2 52.99 79.74 53.11 83.39 53.35 85.05 53.46 86.82 53.46 88.48 53.58 90.25 53.7 91.91 53.82 93.67 53.94 95.33 54.06 97.1 54.18 98.76 54.3 100.53 54.54 102.19 54.66 103.96 54.77 105.62 55.01 107.39 55.13 109.05 55.37 110.82 55.61 112.48 55.73 114.24 55.97 115.9 56.2 117.67 56.56 119.33 56.8 121.1 57.04 122.76 57.39 124.53 57.75 126.19 57.99 127.96 58.35 129.62 58.82 131.39 59.18 133.05 59.66 134.82 60.02 136.48 60.49 138.25 60.97 139.91 61.56 141.67 62.04 143.33 62.63 145.1 63.23 146.76 63.83 148.53 64.42 150.19 63.94 151.96 63.35 152.73 63.11 153.62 62.87 154.5 62.63 155.39 62.28 156.16 62.16 157.05 61.92 157.93 61.68 158.82 61.56 159.59 61.33 160.48 61.21 163.02 61.21 163.9 61.33 164.79 61.44 165.68 61.56 166.45 61.92 167.33 62.16 168.22 62.52 169.1 62.99 169.88 63.47 170.76 64.06 171.65 64.54 172.53 65.25 173.31 65.85 174.19 66.56 175.08 67.16 175.96 67.87 176.73 68.59 177.62 68.59 178.5 68.23 179.39 67.87 180.16 67.52 181.05 67.28 181.93 67.16 182.82 67.16 183.59 67.28 184.48 67.52 185.36 67.87 186.14 68.35 187.02 68.83 187.91 69.54 188.79 70.14 189.56 70.97 190.45 71.68 191.33 72.4 192.22 73.23 192.99 73.11 193.88 72.4 194.76 71.8 195.65 71.33 196.42 70.97 197.31 70.85 198.19 70.85 199.08 71.09 199.85 71.33 200.73 71.68 201.62 72.16 202.5 72.52 203.28 72.99 204.16 73.35 205.05 73.83 205.93 74.18 206.71 74.54 207.59 74.78 208.48 75.02 209.36 75.26 210.14 75.38 211.02 75.61 211.91 75.61 212.79 75.73 213.56 75.73 214.45 75.85 216.22 75.85 216.99 75.97 220.42 75.97 221.31 76.09 223.08 76.09 223.85 76.21 225.62 76.21 226.51 76.33 227.28 76.33 228.16 76.45 229.05 76.45 229.93 76.57 230.71 76.57 231.59 76.69 232.48 76.69 233.36 76.8 234.14 76.92 234.36 76.92"/>
  <polyline class="cls-6" points="28.64 75.5 29.3 75.5 32.84 75.5 36.49 75.5 40.14 75.5 43.68 75.61 47.33 75.61 50.87 75.61 54.52 75.61 58.17 75.61 61.71 75.61 65.36 75.61 69.01 75.61 72.55 75.61 76.2 75.61 79.74 75.5 83.39 75.5 85.05 75.38 86.81 75.26 88.47 75.26 90.25 75.14 91.91 75.02 93.67 74.78 95.33 74.66 97.1 74.42 98.76 74.3 100.53 74.07 102.19 73.71 103.96 73.35 105.62 72.99 107.39 72.64 109.05 72.16 110.82 71.57 112.48 70.97 114.25 70.38 115.9 69.54 117.67 68.71 119.33 67.76 121.1 66.8 122.76 65.61 124.53 64.3 126.19 62.87 127.96 61.33 129.62 59.66 131.39 57.87 133.05 55.85 134.82 53.58 136.48 51.2 138.25 48.58 139.91 45.72 141.67 42.75 143.33 39.41 145.1 35.84 146.76 32.03 148.53 27.98 150.19 23.58 151.96 18.81 152.73 16.31 153.62 13.69 154.5 11.07 155.39 8.33 156.16 5.48 156.39 5"/>
  <polyline class="cls-7" points="28.64 51.68 29.3 51.56 40.14 51.56 43.68 51.44 47.33 51.44 50.87 51.32 54.52 51.32 58.17 51.2 61.71 51.08 65.36 51.08 69.01 50.97 72.55 50.85 76.2 50.73 79.74 50.61 83.39 50.37 85.05 50.25 86.82 50.25 88.48 50.13 90.25 50.01 91.91 49.89 93.67 49.77 95.33 49.65 97.1 49.54 98.76 49.42 100.53 49.18 102.19 49.06 103.96 48.94 105.62 48.7 107.39 48.58 109.05 48.34 110.82 48.11 112.48 47.99 114.24 47.75 115.9 47.51 117.67 47.15 119.33 46.92 121.1 46.68 122.76 46.32 124.53 45.96 126.19 45.73 127.96 45.37 129.62 45.01 131.39 44.53 133.05 44.18 134.82 43.7 136.48 43.22 138.25 42.75 139.91 42.27 141.67 41.8 143.33 41.2 145.1 40.96 146.76 41.68 148.53 42.27 150.19 42.99 151.96 43.7 152.73 44.06 153.62 44.42 154.5 44.77 155.39 45.13 156.16 45.37 157.05 45.73 157.93 45.96 158.82 46.32 159.59 46.56 160.48 46.68 161.36 46.92 162.25 47.04 163.02 47.15 163.9 47.15 164.79 47.04 165.68 47.04 166.45 46.8 167.33 46.68 168.22 46.44 169.1 46.08 169.88 45.73 171.65 45.01 172.53 44.53 173.31 44.65 175.08 46.08 175.96 46.8 176.73 47.51 177.62 48.22 178.5 48.82 179.39 49.42 180.16 49.89 181.05 50.25 181.93 50.61 182.82 50.73 183.59 50.61 184.48 50.49 185.36 50.13 186.14 49.77 187.02 49.18 187.91 49.06 188.79 49.89 189.56 50.73 190.45 51.56 191.33 52.27 192.22 52.87 192.99 53.35 193.88 53.7 194.76 53.7 195.65 53.58 196.42 53.11 197.31 52.51 198.19 51.68 199.08 51.44 199.85 52.16 200.73 52.87 201.62 53.58 202.5 54.18 203.28 54.66 204.16 55.01 205.05 55.25 205.93 55.37 206.71 55.37 207.59 55.25 208.48 55.01 209.36 54.78 210.14 54.3 211.02 53.94 211.91 53.58 212.79 53.35 213.56 53.11 214.45 52.99 215.33 52.87 216.22 52.75 220.42 52.75 221.31 52.87 222.19 52.87 223.08 52.99 223.85 52.99 224.74 53.11 225.62 53.11 226.51 53.23 227.28 53.23 228.16 53.35 229.05 53.35 229.93 53.47 230.71 53.58 231.59 53.7 232.48 53.7 233.36 53.82 234.14 53.94 234.36 53.94"/>
  <path class="cls-6" d="M28.64,75.14l.66-.12h7.19l3.65-.12h3.54l3.65-.12h3.54l3.65-.12,3.65-.12,3.54-.12,3.65-.12,3.65-.24,3.54-.24,3.65-.24,3.54-.36,3.65-.36,1.66-.24,1.77-.24,1.66-.24,1.77-.24,1.66-.36,1.77-.36,1.66-.36,1.77-.48,1.66-.48,1.77-.48,1.66-.59,1.77-.6,1.66-.71,1.77-.71,1.66-.83,1.77-.95,1.66-.95,1.77-1.07,1.66-1.19,1.77-1.43,1.66-1.43,1.77-1.55,1.66-1.79,1.77-1.9,1.66-2.14,1.77-2.26,1.66-2.5,1.77-2.74,1.66-2.98,1.77-3.22,1.66-3.57,1.77-3.81,1.66-4.17,1.77-4.41,1.66-4.88,1.77-5.12,1.66-5.6.44-1.31M32.84,52.04h3.65l3.65.12h28.87l3.54-.12h3.65l3.54-.12,3.65-.24,1.66-.12,1.77-.12,1.66-.12,1.77-.12,1.66-.24,1.77-.24,1.66-.24,1.77-.36,1.66-.36,1.77-.36,1.66-.48,1.77-.48,1.66-.6,1.77-.6,1.66-.71,1.77-.83,1.66-.83,1.77-1.07,1.66-1.07,1.77-1.31,1.66-1.43,1.77-1.55,1.66-1.67,1.77-1.9,1.66-2.14,1.77-2.26,1.66-2.5,1.77-2.86,1.66-2.98,1.77-3.33,1.66-3.57,1.77-3.93,1.66-4.17.88-2.14"/>
  <polyline class="cls-7" points="28.64 28.7 36.49 28.7 40.14 28.82 43.68 28.82 47.33 28.93 50.87 28.93 54.52 29.05 58.17 29.05 61.71 29.17 69.01 29.41 72.55 29.53 76.2 29.65 79.74 29.89 83.39 30.01 85.05 30.12 86.82 30.24 88.48 30.36 90.25 30.48 91.91 30.6 93.67 30.72 95.33 30.84 97.1 30.96 98.76 31.2 100.53 31.32 102.19 31.55 103.96 31.67 105.62 31.91 107.39 32.03 109.05 32.27 110.82 32.51 112.48 32.74 114.24 32.98 115.9 33.34 117.67 33.58 119.33 33.94 121.1 34.17 122.76 34.53 124.53 34.89 126.19 35.25 127.96 35.72 129.62 36.08 131.39 36.56 133.05 37.03 134.82 37.51 136.48 37.98 138.25 38.58 139.91 39.18 141.67 39.77 143.33 40.37 145.1 40.72 146.76 40.13 148.53 39.53 150.19 39.06 151.96 38.46 152.73 38.22 153.62 37.98 154.5 37.86 155.39 37.63 156.16 37.51 157.05 37.39 157.93 37.27 159.59 37.27 160.48 37.39 161.36 37.51 162.25 37.75 163.02 37.98 163.9 38.22 164.79 38.58 165.68 39.06 166.45 39.53 167.33 40.01 169.1 41.2 169.88 41.91 170.76 42.51 171.65 43.22 172.53 43.94 173.31 44.18 174.19 43.7 175.08 43.34 175.96 43.1 176.73 42.75 177.62 42.63 178.5 42.51 179.39 42.51 180.16 42.75 181.05 43.1 182.82 44.06 183.59 44.77 184.48 45.49 185.36 46.32 186.14 47.27 187.02 48.11 187.91 48.58 188.79 48.11 189.56 47.51 190.45 47.15 191.33 46.92 192.22 46.8 192.99 47.03 193.88 47.39 194.76 47.87 195.65 48.46 196.42 49.18 197.31 49.89 198.19 50.73 199.08 50.73 199.85 49.77 200.73 49.06 201.62 48.46 202.5 48.22 203.28 48.22 204.16 48.34 205.05 48.7 205.93 49.18 206.71 49.54 207.59 50.01 209.36 50.96 210.14 51.32 211.02 51.68 211.91 51.92 212.79 52.15 213.56 52.27 214.45 52.39 216.22 52.63 217.88 52.63 218.76 52.75 220.42 52.75 221.31 52.87 222.19 52.87 223.08 52.99 223.85 52.99 224.74 53.11 225.62 53.11 226.51 53.23 227.28 53.23 228.16 53.35 229.05 53.35 229.93 53.46 230.71 53.58 231.59 53.7 232.48 53.7 233.36 53.82 234.14 53.94 234.36 53.94"/>
  <path class="cls-6" d="M32.84,51.56l3.65-.12h3.65l3.54-.12h3.65l3.54-.12,3.65-.12,3.65-.12,3.54-.24,3.65-.12,3.65-.24,3.54-.36,3.65-.36,3.54-.36,3.65-.6,1.66-.24,1.77-.36,1.66-.24,1.77-.48,1.66-.36,1.77-.48,1.66-.48,1.77-.6,1.66-.59,1.77-.72,1.66-.71,1.77-.83,1.66-.95,1.77-.95,1.66-1.07,1.77-1.31,1.66-1.31,1.77-1.43,1.66-1.67,1.77-1.79,1.66-1.9,1.77-2.14,1.66-2.38,1.77-2.5,1.66-2.86,1.77-3.1,1.66-3.33,1.77-3.69,1.66-3.93.55-1.31M32.84,28.58l3.65.12h28.87l3.65-.12h3.54l3.65-.12,3.54-.24,3.65-.24,1.66-.24,1.77-.12,1.66-.24,1.77-.24,1.66-.24,1.77-.36,1.66-.36,1.77-.36,1.66-.48,1.77-.59,1.66-.6,1.77-.59,1.66-.83,1.77-.83,1.66-.95,1.77-1.07,1.66-1.19,1.77-1.43,1.66-1.43,1.77-1.67,1.66-1.91,1.77-2.14,1.66-2.26,1.77-2.5.22-.36"/>
  <path class="cls-2" d="M28.64,122.3l.66.12h18.03l3.54.12h7.3l3.54.12h7.3l3.54.12h3.65l3.54.12,3.65.12h3.43l1.66.12h1.77l1.66.12h1.77l1.66.12h1.77l1.66.12,1.77.12h1.66l1.77.12,1.66.12h1.77l1.66.12,1.77.12,1.66.12,1.77.12,1.66.12,1.77.12,1.66.11,1.77.12,1.66.24,1.77.12,1.66.24,1.77.12,1.66.24,1.77.12,1.66.24,1.77.24,1.66.24,1.77.24,1.66.36,1.77.24,1.66.36,1.77.24,1.66.36,1.77.36,1.66.36,1.77.48.77.12.89.24.89.24.89.24.77.24.89.24.88.24.88.24.77.23.89.24.88.36.88.24.77.24.88.36.89.24.88.36.77.24.89.36.88.36.88.36.77.24.89.36.88.36.88.36.77.36.89.35.89.48.88.36.77.36.89.36.88.48.89.36.77.36.89.36.88.48.88.36.77.36.89.36.89.36.77.36.89.36.88.36.88.24.77.36.88.24.89.23.88.24.77.24.88.24.88.12.88.12.77.12.89.12.88.12h.89l.77.12h.88l.89.12h32.74M28.64,98.95h7.85l3.65.12h10.73l3.65.12h3.65l3.54.11h3.65l3.65.12,3.54.12h3.65l3.54.12,3.65.12,1.66.12h1.77l1.66.12,1.77.12h1.66l1.77.12,1.66.12h1.77l1.66.12,1.77.12,1.66.12,1.77.12,1.66.12,1.77.12,1.66.12,1.77.23,1.66.12,1.77.12,1.66.24,1.77.12,1.66.24,1.77.24,1.66.12,1.77.24,1.66.24,1.77.36,1.66.24,1.77.24,1.66.36,1.77.24,1.66.36,1.77.36,1.66.48,1.77.36,1.66.36,1.77.48,1.66.48,1.77.47,1.66.6,1.77.47.77.36.89.24.89.36.89.24.77.36.89.36.88.24.88.36.77.36.89.36.88.36.88-.24.77-.24.88-.24.89-.24.88-.12.77-.24.89-.24.88-.24.88-.12.77-.12.89-.12.88-.12h.88l.77-.12.89.12h.89l.88.24.77.12.89.24.88.36.89.36.77.36.89.36.88.48.88.48.77.6.89.47.89.6.77.47.89.6.88.47.88.48.77.59.88.48.89.48.88.47.77.36.88.48.88.36.88.23.77.36.89.24.88.24.89.24.77.12.88.24.89.12h.88l.77.12.88.12h1.77l.77.12h27.65M28.64,75.5h4.2l3.65.12h7.19l3.65.12h3.54l3.65.12h3.65l3.54.12h3.65l3.65.12,3.54.12,3.65.12,3.54.12,3.65.12,1.66.12,1.77.12h1.66l1.77.12,1.66.12,1.77.12,1.66.12,1.77.12,1.66.12,1.77.12,1.66.12,1.77.12,1.66.12,1.77.24,1.66.12,1.77.12,1.66.24,1.77.24,1.66.12,1.77.24,1.66.24,1.77.24,1.66.36,1.77.24,1.66.36,1.77.24,1.66.36,1.77.36,1.66.36,1.77.36,1.66.47,1.77.36,1.66.48,1.77.48,1.66.6,1.77.48,1.66.59,1.77.6,1.66.6,1.77.6.77.36.89.24.89-.24.89-.24.77-.36.89-.24.88-.24.88-.24.77-.24.89-.24.88-.24.88-.12.77-.24.88-.12.89-.12h.88l.77-.12.89.12h.88l.88.12.77.24.89.24.88.36.88.36.77.36.89.47.89.6.88.47.77.6.89.6.88.71.89.6.77.71.89.71.88.72.88.71.77-.24.89-.36.89-.36.77-.36.89-.24.88-.12.88-.12h.77l.88.24.89.12.88.36.77.36.88.36.88.48.88.48.77.36.89.47.88.48.89.36.77.36.88.36.89.36.88.36.77.24.88.24.88.12.89.24.77.12h.89l.88.12h.88l.78.12h24.22M28.64,75.14h4.2l3.65-.12h7.19l3.65-.12h3.54l3.65-.12h3.65l3.54-.12h3.65l3.65-.12,3.54-.12,3.65-.12,3.54-.12,3.65-.12,1.66-.12,1.77-.12h1.66l1.77-.12,1.66-.12,1.77-.12,1.66-.12,1.77-.12,1.66-.12,1.77-.12,1.66-.12,1.77-.12,1.66-.12,1.77-.24,1.66-.12,1.77-.12,1.66-.24,1.77-.24,1.66-.24,1.77-.12,1.66-.24,1.77-.24,1.66-.36,1.77-.24,1.66-.36,1.77-.24,1.66-.36,1.77-.36,1.66-.36,1.77-.36,1.66-.47,1.77-.36,1.66-.48,1.77-.48,1.66-.47,1.77-.48,1.66-.48,1.77-.48,1.66.6,1.77.71.77.36.89.36.89.36.89.36.77.36.89.36.88.36.88.36.77.36.89.36.88.36.88.24.77.36.88.24.89.24.88.12.77.24h.89l.88.12h.88l.77-.12.89-.12.88-.24.88-.12.77-.36.89-.36.89-.24.88-.48.77-.36.89.36.88.71.89.83.77.71.89.71.88.71.88.59.77.6.89.48.89.48.77.36.89.12.88.12.88-.12.77-.36.88-.36.89-.59.88-.6.77.12.88.71.88.72.88.71.77.59.89.48.88.47.89.48.77.24.88.24.89.12.88.12.77-.12.88-.12.88-.36.89-.24.77-.36.89-.36.88-.36.88-.36.78-.24.88-.24.89-.12.88-.12.77-.12.88-.12h1.77l.77-.12h17.36M28.64,52.04l.66.12h10.84l3.54.12h3.65l3.54.12h3.65l3.65.12,3.54.12h3.65l3.65.12,3.54.12,3.65.12,3.54.12,3.65.24,1.66.12h1.77l1.66.12,1.77.12,1.66.12,1.77.12,1.66.12,1.77.12,1.66.12,1.77.24,1.66.12,1.77.12,1.66.24,1.77.12,1.66.24,1.77.24,1.66.12,1.77.24,1.66.24,1.77.36,1.66.24,1.77.24,1.66.36,1.77.36,1.66.24,1.77.36,1.66.48,1.77.36,1.66.48,1.77.36,1.66.48,1.77.48,1.66.6,1.77.48,1.66.6,1.77.6,1.66.59,1.77.6,1.66-.48,1.77-.59.77-.24.89-.24.89-.36.89-.24.77-.24.89-.12.88-.24.88-.24.77-.12.89-.12h.88l.88-.12.77.12h.88l.89.24.88.12.77.24.89.36.88.36.88.48.77.48.89.48.88.6.88.6.77.71.89.6.89.72.88.71.77.72h.89l.88-.36.89-.36.77-.36.89-.24.88-.12h1.66l.89.24.89.36.77.48.89.48.88.71.88.6.77.71.88.83.89.71.88.83.77-.12.88-.59.88-.71.88-.48.77-.36.89-.12h.88l.89.12.77.24.88.36.89.36.88.48.77.48.88.36.88.36.89.36.77.36.89.24.88.24.88.24.78.12.88.12.89.12.88.12h21.57M28.64,51.68l.66-.12h10.84l3.54-.12h3.65l3.54-.12h3.65l3.65-.12,3.54-.12h3.65l3.65-.12,3.54-.12,3.65-.12,3.54-.12,3.65-.24,1.66-.12h1.77l1.66-.12,1.77-.12,1.66-.12,1.77-.12,1.66-.12,1.77-.12,1.66-.12,1.77-.24,1.66-.12,1.77-.12,1.66-.24,1.77-.12,1.66-.24,1.77-.24,1.66-.12,1.77-.24,1.66-.24,1.77-.36,1.66-.24,1.77-.24,1.66-.36,1.77-.36,1.66-.24,1.77-.36,1.66-.47,1.77-.36,1.66-.36,1.77-.48,1.66-.48,1.77-.48,1.66-.48,1.77-.48,1.66-.6,1.77-.24,1.66.71,1.77.6,1.66.71,1.77.72.77.36.89.36.89.36.89.36.77.24.89.36.88.24.88.36.77.24.89.12.88.24.88.12h.77l.88.12.89-.12.88-.12.77-.12.89-.12.88-.36.88-.24.77-.36.89-.36.88-.36.88-.48h.77l.89.83.89.72.88.71.77.71.89.59.88.6.89.6.77.48.89.48.88.24.88.12h.77l.89-.24.89-.24.77-.48.89-.48.88-.36.88.95.77.83.88.71.89.83.88.6.77.48.88.24.88.12.88-.12.77-.47.89-.6.88-.83.89-.36.77.71.88.71.89.6.88.6.77.48.88.36.88.24.89.24h.77l.89-.12.88-.24.88-.36.78-.36.88-.48.89-.36.88-.36.77-.24.88-.24.88-.12.89-.12.77-.12h1.77l.88-.12h14.71M28.64,28.7h7.85l3.65.12h3.54l3.65.12h3.54l3.65.12h3.65l3.54.12,3.65.12,3.65.12,3.54.12,3.65.12,3.54.24,3.65.12,1.66.12,1.77.12,1.66.12,1.77.12,1.66.12,1.77.12,1.66.12,1.77.12,1.66.24,1.77.12,1.66.24,1.77.12,1.66.24,1.77.12,1.66.24,1.77.24,1.66.24,1.77.24,1.66.36,1.77.24,1.66.36,1.77.24,1.66.36,1.77.36,1.66.36,1.77.48,1.66.36,1.77.48,1.66.48,1.77.48,1.66.48,1.77.6,1.66.6,1.77.59,1.66.6,1.77.36,1.66-.6,1.77-.6,1.66-.48,1.77-.59.77-.24.89-.24.89-.12.89-.24.77-.12.89-.12.88-.12h1.66l.89.12.88.12.88.12.77.24.88.36.89.36.88.48.77.48.89.48.88.6.88.6.77.6.89.71.88.71.88.6.77.36.89-.48.89-.36.88-.36.77-.24.89-.24h1.77l.77.12.89.36.88.48.88.6.77.59.89.71.89.83.77.83.89.95.88.59.88-.59.77-.48.88-.48.89-.24.88-.12.77.12.88.36.88.48.88.59.77.71.89.72.88.71.89.24.77-.95.88-.72.89-.6.88-.36.77-.12.88.24.88.24.89.36.77.48.89.36.88.47.88.36.78.36.88.36.89.24.88.24.77.12.88.12.88.12h19.02M28.64,122.18l.66-.12h18.03l3.54-.12h7.3l3.54-.12h7.3l3.54-.12h3.65l3.54-.12,3.65-.12h3.43l1.66-.12h1.77l1.66-.12h1.77l1.66-.12h1.77l1.66-.12,1.77-.12h1.66l1.77-.12,1.66-.12h1.77l1.66-.12,1.77-.12,1.66-.12,1.77-.12,1.66-.12,1.77-.12,1.66-.12,1.77-.23,1.66-.12,1.77-.12,1.66-.24,1.77-.12,1.66-.24,1.77-.24,1.66-.12,1.77-.24,1.66-.24,1.77-.36,1.66-.24,1.77-.24,1.66-.36,1.77-.24,1.66-.36,1.77-.36,1.66-.36,1.77-.48.77-.12.89-.24.89-.24.89-.24.77-.12.89-.24.88-.24.88-.24.77-.24.89-.24.88-.24.88.36.77.36.88.48.89.36.88.36.77.48.89.36.88.47.88.36.77.48.89.36.88.48.88.47.77.48.89.36.89.48.88.48.77.48.89.36.88.48.89.47.77.36.89.36.88.48.88.36.77.36.89.24.89.36.77.24.89.24.88.12.88.12.77.12h2.65l.77-.12.88-.12.88-.12.88-.12.77-.24.89-.24.88-.24.89-.12.77-.24.88-.12.89-.24.88-.12.77-.12h.88l.88-.12.89-.12h1.66l.88-.12h25.88M28.64,98.6h7.85l3.65-.12h10.73l3.65-.12h3.65l3.54-.12h3.65l3.65-.12,3.54-.12h3.65l3.54-.12,3.65-.12,1.66-.12h1.77l1.66-.12,1.77-.12h1.66l1.77-.12,1.66-.12h1.77l1.66-.12,1.77-.12,1.66-.12,1.77-.12,1.66-.12,1.77-.12,1.66-.12,1.77-.24,1.66-.12,1.77-.12,1.66-.24,1.77-.12,1.66-.23,1.77-.24,1.66-.12,1.77-.24,1.66-.24,1.77-.36,1.66-.24,1.77-.24,1.66-.36,1.77-.24,1.66-.36,1.77-.36,1.66-.36,1.77-.48,1.66-.36,1.77-.47,1.66-.48,1.77-.48,1.66-.48,1.77-.48.77-.24.89-.12.89.36.89.36.77.36.89.36.88.36.88.36.77.36.89.36.88.48.88.36.77.36.88.36.89.48.88.36.77.36.89.36.88.36.88.24.77.36.89.23.88.24.88.24.77.12.89.12h1.77l.77-.12.89-.12.88-.24.89-.24.77-.23.89-.36.88-.36.88-.36.77.47.89.71.89.72.77.71.89.71.88.6.88.71.77.47.88.6.89.48.88.48.77.36.88.36.88.24.88.12.77.12h1.77l.89-.12.77-.24.88-.24.89-.24.88-.36.77-.24.88-.36.88-.24.89-.24.77-.24.89-.12.88-.24.88-.12h.78l.88-.12h1.77l.77-.12h20.79"/>
  <rect class="cls-16" x="28.85" y="4.79" width="92.75" height="65.24"/>
  <polyline class="cls-12" points="44.8 33.93 44.9 33.93 44.97 33.91 45.15 33.88 45.5 33.83 46.1 33.7 49.42 33.08 50.02 32.95 50.7 32.82 51.45 32.69 52.3 32.5 53.28 32.31 54.36 32.08 55.59 31.81 57 31.52 58.58 31.17 60.34 30.8 62.35 30.35 64.6 29.82 67.17 29.21 70.05 28.49 73.29 27.64 76.98 26.68 81.12 25.52 85.82 24.16 91.09 22.54 93.83 21.67 96.74 20.71 99.83 19.68 103.09 18.53 106.53 17.31 110.19 15.96 114.06 14.47 118.18 12.85 118.28 12.83"/>
  <polyline class="cls-12" points="44.8 33.96 44.9 33.96 44.97 33.99 45.15 34.01 45.5 34.07 46.1 34.17 47.26 34.39 49.42 34.76 50.02 34.86 50.7 34.97 51.45 35.1 52.3 35.26 53.28 35.42 54.36 35.58 55.59 35.79 60.34 36.51 62.35 36.78 64.6 37.09 67.17 37.44 70.05 37.81 73.29 38.21 76.98 38.63 81.12 39.09 85.82 39.56 91.09 40.04 93.83 40.28 96.74 40.52 99.83 40.73 103.09 40.97 106.53 41.21 110.19 41.45 114.06 41.66 118.18 41.87 118.28 41.87"/>
  <rect class="cls-3" x="28.85" y="4.79" width="92.75" height="65.24"/>
  <line class="cls-11" x1="44.8" y1="7.38" x2="45.61" y2="7.38"/>
  <line class="cls-11" x1="118.28" y1="7.38" x2="117.47" y2="7.38"/>
  <line class="cls-11" x1="44.8" y1="14.03" x2="45.61" y2="14.03"/>
  <line class="cls-11" x1="118.28" y1="14.03" x2="117.47" y2="14.03"/>
  <line class="cls-11" x1="44.8" y1="20.69" x2="45.61" y2="20.69"/>
  <line class="cls-11" x1="118.28" y1="20.69" x2="117.47" y2="20.69"/>
  <line class="cls-11" x1="44.8" y1="27.35" x2="45.61" y2="27.35"/>
  <line class="cls-11" x1="118.28" y1="27.35" x2="117.47" y2="27.35"/>
  <line class="cls-11" x1="44.8" y1="33.99" x2="45.61" y2="33.99"/>
  <line class="cls-11" x1="118.28" y1="33.99" x2="117.47" y2="33.99"/>
  <line class="cls-11" x1="44.8" y1="40.65" x2="45.61" y2="40.65"/>
  <line class="cls-11" x1="118.28" y1="40.65" x2="117.47" y2="40.65"/>
  <line class="cls-11" x1="44.8" y1="47.31" x2="45.61" y2="47.31"/>
  <line class="cls-11" x1="118.28" y1="47.31" x2="117.47" y2="47.31"/>
  <line class="cls-11" x1="44.8" y1="53.97" x2="45.61" y2="53.97"/>
  <line class="cls-11" x1="118.28" y1="53.97" x2="117.47" y2="53.97"/>
  <line class="cls-11" x1="44.8" y1="60.63" x2="45.61" y2="60.63"/>
  <line class="cls-11" x1="118.28" y1="60.63" x2="117.47" y2="60.63"/>
  <path class="cls-14" d="M33.87,54.81c-.84,0-1.42.44-1.74,1.32-.17.47-.26,1.04-.26,1.7,0,.85.14,1.53.43,2.04.34.61.86.91,1.56.91.78,0,1.33-.37,1.67-1.11.24-.52.35-1.17.35-1.96,0-.84-.13-1.49-.39-1.97-.33-.62-.88-.93-1.63-.93M33.86,60.12c-.47,0-.81-.28-1-.83-.13-.36-.19-.84-.19-1.43,0-.79.1-1.39.3-1.79.2-.41.51-.61.95-.61.47,0,.78.21.95.64.16.43.25.97.25,1.63,0,.91-.11,1.54-.34,1.88-.23.34-.53.5-.91.5ZM36.95,60.63h.85v-.89h-.85v.89Z"/>
  <path class="cls-14" d="M38.92,59.22c0,.45.15.82.44,1.12.29.3.73.45,1.3.45.85,0,1.45-.46,1.8-1.37.21-.55.32-1.18.32-1.89,0-.63-.09-1.16-.27-1.58-.32-.76-.91-1.15-1.76-1.15-.63,0-1.1.2-1.43.6-.32.4-.48.86-.48,1.39s.16,1,.49,1.35c.33.35.77.52,1.33.52.28,0,.53-.05.77-.16.24-.1.44-.28.6-.54-.1.89-.28,1.48-.52,1.77-.25.29-.54.44-.89.44-.19,0-.35-.04-.5-.12-.29-.15-.44-.43-.47-.84h-.74M40.77,58.02c-.4,0-.7-.11-.88-.34-.19-.22-.28-.52-.28-.9,0-.4.1-.72.31-.96.21-.24.49-.36.85-.36.33,0,.61.11.82.31.22.21.32.53.32.96,0,.48-.12.81-.36,1-.24.19-.5.29-.79.29Z"/>
  <path class="cls-14" d="M40.94,32.18v4.12h.78v-5.79h-.58c-.1.45-.26.73-.47.86-.21.12-.58.21-1.11.26v.56h1.37"/>
  <path class="cls-14" d="M33.78,9.32v4.12h.78v-5.79h-.58c-.1.45-.26.73-.47.86-.21.12-.58.21-1.1.26v.56h1.37M36.95,13.44h.85v-.89h-.85v.89Z"/>
  <path class="cls-14" d="M40.72,9.32v4.12h.78v-5.79h-.58c-.1.45-.26.73-.47.86-.21.12-.58.21-1.11.26v.56h1.37"/>
  <line class="cls-11" x1="118.28" y1="60.63" x2="118.28" y2="59.82"/>
  <line class="cls-11" x1="118.28" y1="7.38" x2="118.28" y2="8.18"/>
  <line class="cls-11" x1="109.1" y1="60.63" x2="109.1" y2="59.82"/>
  <line class="cls-11" x1="109.1" y1="7.38" x2="109.1" y2="8.18"/>
  <line class="cls-11" x1="99.9" y1="60.63" x2="99.9" y2="59.82"/>
  <line class="cls-11" x1="99.9" y1="7.38" x2="99.9" y2="8.18"/>
  <line class="cls-11" x1="90.72" y1="60.63" x2="90.72" y2="59.82"/>
  <line class="cls-11" x1="90.72" y1="7.38" x2="90.72" y2="8.18"/>
  <line class="cls-11" x1="81.55" y1="60.63" x2="81.55" y2="59.82"/>
  <line class="cls-11" x1="81.55" y1="7.38" x2="81.55" y2="8.18"/>
  <line class="cls-11" x1="72.35" y1="60.63" x2="72.35" y2="59.82"/>
  <line class="cls-11" x1="72.35" y1="7.38" x2="72.35" y2="8.18"/>
  <line class="cls-11" x1="63.17" y1="60.63" x2="63.17" y2="59.82"/>
  <line class="cls-11" x1="63.17" y1="7.38" x2="63.17" y2="8.18"/>
  <line class="cls-11" x1="53.98" y1="60.63" x2="53.98" y2="59.82"/>
  <line class="cls-11" x1="53.98" y1="7.38" x2="53.98" y2="8.18"/>
  <line class="cls-11" x1="44.8" y1="60.63" x2="44.8" y2="59.82"/>
  <line class="cls-11" x1="44.8" y1="7.38" x2="44.8" y2="8.18"/>
  <path class="cls-14" d="M44.94,62.54c-.84,0-1.42.44-1.74,1.32-.17.47-.26,1.04-.26,1.7,0,.85.14,1.53.43,2.04.34.61.86.91,1.56.91.78,0,1.33-.37,1.67-1.11.24-.52.35-1.17.35-1.96,0-.83-.13-1.49-.39-1.97-.34-.62-.88-.93-1.63-.93M44.93,67.85c-.47,0-.81-.28-1-.83-.13-.36-.19-.84-.19-1.43,0-.79.1-1.39.3-1.79.2-.41.51-.61.95-.61.47,0,.78.21.95.64.16.43.24.97.24,1.63,0,.91-.11,1.54-.34,1.88s-.53.5-.91.5ZM73.98,62.54c-.84,0-1.42.44-1.74,1.32-.17.47-.26,1.04-.26,1.7,0,.85.14,1.53.43,2.04.34.61.86.91,1.56.91.78,0,1.33-.37,1.67-1.11.24-.52.35-1.17.35-1.96,0-.83-.13-1.49-.39-1.97-.34-.62-.88-.93-1.63-.93ZM73.97,67.85c-.47,0-.81-.28-1-.83-.13-.36-.19-.84-.19-1.43,0-.79.1-1.39.3-1.79.2-.41.51-.61.95-.61.47,0,.78.21.95.64s.24.97.24,1.63c0,.91-.11,1.54-.34,1.88-.22.34-.53.5-.91.5Z"/>
  <path class="cls-14" d="M77.07,68.36h.85v-.89h-.85v.89ZM80.92,62.54c-.84,0-1.41.44-1.74,1.32-.17.47-.26,1.04-.26,1.7,0,.85.14,1.53.43,2.04.34.61.86.91,1.56.91.78,0,1.33-.37,1.67-1.11.24-.52.35-1.17.35-1.96,0-.83-.13-1.49-.39-1.97-.34-.62-.88-.93-1.63-.93ZM80.91,67.85c-.47,0-.81-.28-1-.83-.13-.36-.19-.84-.19-1.43,0-.79.1-1.39.3-1.79.2-.41.51-.61.95-.61.47,0,.79.21.95.64.16.43.24.97.24,1.63,0,.91-.11,1.54-.34,1.88-.23.34-.53.5-.91.5Z"/>
  <path class="cls-14" d="M83.56,66.88c.04.55.25.96.61,1.23.36.27.78.4,1.26.4.74,0,1.29-.21,1.63-.63.34-.42.51-.91.51-1.46s-.19-.96-.56-1.31c-.37-.34-.82-.52-1.36-.52-.29,0-.54.05-.75.13-.12.05-.25.13-.39.23l.25-1.62h2.47v-.71h-3.02l-.44,3.13.63.04c.13-.17.28-.31.46-.41.18-.1.4-.15.65-.15.35,0,.64.11.89.33.25.22.37.54.37.94,0,.34-.1.64-.31.92-.21.28-.53.41-.96.41-.23,0-.43-.04-.6-.12-.34-.16-.53-.45-.58-.87h-.76"/>
  <path class="cls-14" d="M110.2,62.24c-.84,0-1.41.44-1.74,1.32-.17.47-.26,1.04-.26,1.7,0,.85.14,1.53.43,2.04.34.61.86.91,1.56.91.78,0,1.33-.37,1.68-1.11.24-.52.35-1.17.35-1.96,0-.84-.13-1.49-.39-1.97-.34-.62-.88-.93-1.63-.93M110.19,67.55c-.47,0-.81-.28-1-.83-.13-.36-.19-.84-.19-1.43,0-.79.1-1.39.3-1.79.2-.41.51-.61.95-.61.47,0,.79.21.95.64.16.43.25.97.25,1.63,0,.91-.11,1.54-.34,1.88-.23.34-.53.5-.91.5ZM113.29,68.05h.85v-.89h-.85v.89Z"/>
  <path class="cls-14" d="M117.05,63.93v4.12h.78v-5.79h-.58c-.1.45-.26.73-.47.86-.21.12-.58.21-1.1.26v.56h1.37"/>
  <rect class="cls-13" x="44.8" y="7.38" width="73.48" height="53.25"/>
  <polyline class="cls-7" points="44.8 33.95 44.9 33.95 44.97 33.98 45.15 34.01 45.5 34.06 46.1 34.19 47.26 34.4 49.42 34.78 50.02 34.88 50.7 35.01 51.45 35.15 52.3 35.31 53.28 35.49 54.36 35.68 55.59 35.92 57 36.18 58.58 36.45 60.34 36.79 62.35 37.14 64.6 37.56 67.17 38.01 70.05 38.55 73.29 39.16 81.12 40.56 85.82 41.44 91.09 42.4 93.83 42.9 96.74 43.43 99.83 43.99 103.09 44.57 106.53 45.21 110.19 45.87 114.06 46.59 118.18 47.33 118.28 47.36"/>
  <path class="cls-6" d="M44.8,33.95h.1l.08.03.18.03.35.05.6.11,1.16.21,2.16.37.6.11.68.11.75.13.85.16.98.16,1.08.16,1.23.21,1.41.21,1.58.24,1.76.27,2.01.27,2.26.32,2.56.34,2.89.37,3.24.4,3.69.42,4.14.45,4.69.48,5.27.48,2.74.24,2.91.24,3.09.21,3.26.24,3.44.24,3.66.24,3.87.21,4.12.21h.1M44.8,33.93h.1l.08-.03.18-.03.35-.05.6-.13,1.16-.21,2.16-.4.6-.13.68-.13.75-.13.85-.19.98-.19,1.08-.24,1.23-.27,1.41-.29,1.58-.35,1.76-.37,2.01-.45,2.26-.53,2.56-.61,2.89-.72,3.24-.85,3.69-.96,4.14-1.17,4.69-1.35,5.27-1.62,2.74-.88,2.91-.96,3.09-1.04,3.26-1.14,3.44-1.22,3.66-1.35,3.87-1.49,4.12-1.62.1-.03"/>
  <polyline class="cls-7" points="44.8 33.93 44.9 33.93 44.97 33.9 45.15 33.87 45.5 33.82 46.1 33.69 47.26 33.47 49.42 33.1 50.02 33 50.7 32.86 51.45 32.73 52.3 32.57 53.28 32.39 54.36 32.2 55.59 31.96 57 31.7 58.58 31.43 60.34 31.08 62.35 30.74 64.6 30.32 67.17 29.84 70.05 29.33 73.29 28.72 76.98 28.06 81.12 27.29 91.09 25.48 93.83 24.98 96.74 24.45 99.83 23.89 103.09 23.28 106.53 22.64 110.19 21.98 114.06 21.29 118.18 20.52 118.28 20.52"/>
  <path class="cls-2" d="M44.8,33.95h.1l.08.03.18.03.35.05.6.13,1.16.21,2.16.37.6.11.68.13.75.13.85.16.98.18,1.08.19,1.23.24,1.41.27,1.58.27,1.76.34,2.01.35,2.26.43,2.56.45,2.89.53,3.24.61,3.69.66,4.14.74,4.69.88,5.27.96,2.74.5,2.91.53,3.09.56,3.26.58,3.44.64,3.66.66,3.87.72,4.12.74.1.03M44.8,33.93h.1l.08-.03.18-.03.35-.05.6-.13,1.16-.21,2.16-.37.6-.1.68-.13.75-.13.85-.16.98-.19,1.08-.18,1.23-.24,1.41-.27,1.58-.27,1.76-.35,2.01-.34,2.26-.42,2.56-.48,2.89-.5,3.24-.61,3.69-.66,4.14-.77,4.69-.85,5.27-.96,2.74-.51,2.91-.53,3.09-.56,3.26-.61,3.44-.64,3.66-.66,3.87-.69,4.12-.77h.1"/>
  <path class="cls-15" d="M2.78,11.03c-1.15-1.84-1.72-3.68-1.72-5.52,0-.72.08-1.44.25-2.16.13-.57.32-1.13.55-1.65.15-.34.46-.91.92-1.71h-.74C1.32.96.79,1.92.44,2.89c-.29.83-.44,1.71-.44,2.62,0,1.03.2,2.03.59,3,.39.96.88,1.81,1.45,2.53h.74M8.16,8.56h1.08c-.13-.23-.22-.48-.26-.73-.05-.25-.07-.86-.07-1.82v-1.38c0-.46-.02-.78-.05-.95-.06-.28-.17-.52-.32-.7-.15-.18-.39-.34-.72-.46-.33-.12-.75-.18-1.27-.18s-.99.07-1.38.22c-.4.14-.7.35-.91.61-.21.27-.36.62-.45,1.05l1.01.14c.11-.43.28-.73.51-.9.23-.17.59-.26,1.08-.26.52,0,.91.12,1.18.35.19.17.29.47.29.89,0,.04,0,.13,0,.27-.4.14-1.01.26-1.84.36-.41.05-.72.1-.92.16-.28.08-.52.19-.74.34-.22.15-.4.35-.53.59-.14.25-.2.52-.2.82,0,.51.18.93.54,1.25.36.33.87.49,1.54.49.41,0,.78-.07,1.14-.2.35-.13.72-.36,1.1-.69.03.29.1.54.21.75ZM7.87,5.88c0,.46-.06.8-.17,1.03-.15.3-.37.54-.68.71-.31.17-.66.26-1.06.26s-.71-.09-.92-.27c-.21-.18-.31-.41-.31-.69,0-.18.05-.34.14-.49.1-.15.23-.26.41-.34.18-.08.48-.15.9-.21.75-.11,1.31-.24,1.69-.39v.38Z"/>
  <path class="cls-15" d="M12.64,8.51c.4-.96.59-1.96.59-3,0-.91-.15-1.78-.44-2.62-.34-.97-.88-1.93-1.6-2.89h-.74c.47.8.78,1.38.92,1.72.23.53.41,1.08.54,1.65.17.71.25,1.42.25,2.14,0,1.84-.57,3.68-1.72,5.52h.74c.57-.72,1.05-1.56,1.44-2.53"/>
  <line class="cls-4" x1="28.85" y1="4.64" x2="234.78" y2="4.64"/>
  <polyline class="cls-4" points="28.85 146.11 234.78 146.11 234.78 4.64"/>
  <line class="cls-4" x1="28.85" y1="146.11" x2="28.85" y2="4.64"/>
</svg>