<?xml version="1.0" encoding="UTF-8"?>
<svg id="Livello_1" data-name="Livello 1" xmlns="http://www.w3.org/2000/svg" xmlns:xlink="http://www.w3.org/1999/xlink" viewBox="0 0 122 92.75">
  <defs>
    <style>
      .cls-1, .cls-2, .cls-3 {
        fill: none;
      }

      .cls-4 {
        font-size: 9px;
      }

      .cls-4, .cls-5, .cls-6, .cls-7 {
        fill: #010101;
      }

      .cls-4, .cls-5, .cls-7 {
        font-family: TimesNewRomanPSMT, 'Times New Roman';
      }

      .cls-5 {
        font-size: 7.32px;
      }

      .cls-2 {
        stroke-miterlimit: 10;
      }

      .cls-2, .cls-3 {
        stroke: #010101;
      }

      .cls-8 {
        letter-spacing: .17em;
      }

      .cls-9 {
        clip-path: url(#clippath-1);
      }

      .cls-10 {
        fill: #fff;
      }

      .cls-7 {
        font-size: 10.46px;
      }

      .cls-11 {
        clip-path: url(#clippath);
      }

      .cls-3 {
        stroke-linejoin: bevel;
      }
    </style>
    <clipPath id="clippath">
      <rect class="cls-1" x="2" y="81.01" width="6" height="10.3"/>
    </clipPath>
    <clipPath id="clippath-1">
      <rect class="cls-1" x="43" y="80.01" width="53" height="11.3"/>
    </clipPath>
  </defs>
  <text class="cls-4" transform="translate(19.4 12.45)"><tspan x="0" y="0">a</tspan></text>
  <path class="cls-6" d="M108.56,33.83c0-.92-.75-1.67-1.67-1.67s-1.66.75-1.66,1.67.75,1.67,1.66,1.67,1.67-.75,1.67-1.67Z"/>
  <path class="cls-2" d="M108.56,33.83c0-.92-.75-1.67-1.67-1.67s-1.66.75-1.66,1.67.75,1.67,1.66,1.67,1.67-.75,1.67-1.67Z"/>
  <text class="cls-7" transform="translate(110.36 29.41)"><tspan x="0" y="0">φ</tspan></text>
  <text class="cls-5" transform="translate(116.59 30.98)"><tspan x="0" y="0">1</tspan></text>
  <path class="cls-6" d="M19.27,87.4c0-.92-.75-1.66-1.66-1.66s-1.67.75-1.67,1.66.75,1.67,1.67,1.67,1.66-.75,1.66-1.67Z"/>
  <path class="cls-2" d="M19.27,87.4c0-.92-.75-1.66-1.66-1.66s-1.67.75-1.67,1.66.75,1.67,1.67,1.67,1.66-.75,1.66-1.67Z"/>
  <g class="cls-11">
    <text class="cls-7" transform="translate(1.72 88.94)"><tspan x="0" y="0">φ</tspan></text>
  </g>
  <text class="cls-5" transform="translate(7.95 90.51)"><tspan x="0" y="0">2</tspan></text>
  <path class="cls-10" d="M76.05,35.72l-3.79-3.79M72.26,35.72l3.79-3.79M77.72,33.83c0-1.97-1.6-3.57-3.57-3.57s-3.57,1.6-3.57,3.57,1.6,3.57,3.57,3.57,3.57-1.6,3.57-3.57Z"/>
  <path class="cls-2" d="M76.05,35.72l-3.79-3.79M72.26,35.72l3.79-3.79M77.72,33.83c0-1.97-1.6-3.57-3.57-3.57s-3.57,1.6-3.57,3.57,1.6,3.57,3.57,3.57,3.57-1.6,3.57-3.57Z"/>
  <text class="cls-7" transform="translate(80.82 36.45)"><tspan x="0" y="0">φ</tspan></text>
  <text class="cls-5" transform="translate(87.06 38.02)"><tspan x="0" y="0">ext</tspan></text>
  <line class="cls-2" x1="17.5" y1="33.51" x2="5.5" y2="33.51"/>
  <path class="cls-2" d="M.5,31.51v5M3.5,29.51v8M5.5,27.51v13"/>
  <rect class="cls-2" x="68.5" y="43.51" width="11" height="10"/>
  <line class="cls-2" x1="68.94" y1="43.5" x2="79.36" y2="53.92"/>
  <line class="cls-2" x1="79.36" y1="43.5" x2="68.94" y2="53.92"/>
  <text class="cls-7" transform="translate(60.45 62.92)"><tspan x="0" y="0">E</tspan></text>
  <text class="cls-5" transform="translate(68.17 64.49)"><tspan x="0" y="0">J</tspan></text>
  <text class="cls-7" transform="translate(74.01 62.92)"><tspan class="cls-8" x="0" y="0">,</tspan><tspan x="4.36" y="0">C</tspan></text>
  <text class="cls-5" transform="translate(86.14 64.49)"><tspan x="0" y="0">1</tspan></text>
  <path class="cls-2" d="M106.5,26.51v7M86.5,18.51h20v8M41.5,26.51v-8h20M41.5,33.51v-7M17.5,64.51v23M29.5,33.51h-12v23M41.5,41.51v-8h-12M55.5,48.51h-14v-7M68.5,48.51h-13M93.5,48.51h-14M106.5,41.51v7h-13M114.5,33.51h-8v8M121.5,60.51v-27h-7M94.5,87.51h27v-27M17.5,87.51h27"/>
  <g class="cls-9">
    <path class="cls-3" d="M44.27,87.57c0-3.45,1.7-6.25,3.79-6.25s3.79,2.8,3.79,6.25c0,1.73-.62,3.12-1.39,3.12s-1.39-1.4-1.39-3.12c0-3.45,1.7-6.25,3.79-6.25s3.79,2.8,3.79,6.25c0,1.73-.62,3.12-1.39,3.12s-1.39-1.4-1.39-3.12c0-3.45,1.7-6.25,3.79-6.25s3.79,2.8,3.79,6.25c0,1.73-.62,3.12-1.39,3.12s-1.39-1.4-1.39-3.12c0-3.45,1.69-6.25,3.79-6.25s3.79,2.8,3.79,6.25c0,1.73-.62,3.12-1.39,3.12s-1.39-1.4-1.39-3.12c0-3.45,1.7-6.25,3.79-6.25s3.79,2.8,3.79,6.25c0,1.73-.62,3.12-1.39,3.12s-1.39-1.4-1.39-3.12c0-3.45,1.7-6.25,3.79-6.25s3.79,2.8,3.79,6.25c0,1.73-.62,3.12-1.39,3.12s-1.39-1.4-1.39-3.12c0-3.45,1.7-6.25,3.79-6.25s3.79,2.8,3.79,6.25c0,1.73-.62,3.12-1.39,3.12s-1.39-1.4-1.39-3.12c0-3.45,1.7-6.25,3.79-6.25s3.79,2.8,3.79,6.25c0,1.73-.62,3.12-1.39,3.12s-1.39-1.4-1.39-3.12c0-3.45,1.69-6.25,3.79-6.25s3.79,2.8,3.79,6.25c0,1.73-.62,3.12-1.39,3.12s-1.39-1.4-1.39-3.12c0-3.45,1.7-6.25,3.79-6.25s3.79,2.8,3.79,6.25"/>
  </g>
  <text class="cls-7" transform="translate(63.78 77.15)"><tspan x="0" y="0">L</tspan></text>
  <text class="cls-5" transform="translate(70.9 78.72)"><tspan x="0" y="0">2</tspan></text>
  <path class="cls-2" d="M30.1,64.78H5.1M30.1,56.45H5.1"/>
  <text class="cls-7" transform="translate(33.04 62.87)"><tspan x="0" y="0">C</tspan></text>
  <text class="cls-5" transform="translate(40.52 64.44)"><tspan x="0" y="0">2</tspan></text>
  <path class="cls-3" d="M61.23,19.11c0-3.45,1.72-6.25,3.83-6.25s3.84,2.8,3.84,6.25c0,1.73-.7,3.12-1.57,3.12s-1.56-1.4-1.56-3.12c0-3.45,1.71-6.25,3.83-6.25s3.83,2.8,3.83,6.25c0,1.73-.7,3.12-1.56,3.12s-1.56-1.4-1.56-3.12c0-3.45,1.72-6.25,3.84-6.25s3.83,2.8,3.83,6.25c0,1.73-.7,3.12-1.56,3.12s-1.56-1.4-1.56-3.12c0-3.45,1.72-6.25,3.84-6.25s3.83,2.8,3.83,6.25c0,1.73-.7,3.12-1.56,3.12s-1.56-1.4-1.56-3.12c0-3.45,1.72-6.25,3.84-6.25s3.83,2.8,3.83,6.25"/>
  <text class="cls-7" transform="translate(68.25 8.69)"><tspan x="0" y="0">L</tspan></text>
  <text class="cls-5" transform="translate(75.37 10.26)"><tspan x="0" y="0">1</tspan></text>
</svg>