<?xml version="1.0" encoding="UTF-8"?>
<svg id="Livello_1" data-name="Livello 1" xmlns="http://www.w3.org/2000/svg" xmlns:xlink="http://www.w3.org/1999/xlink" viewBox="0 0 362.08 189.91">
  <defs>
    <style>
      .cls-1, .cls-2, .cls-3, .cls-4, .cls-5, .cls-6, .cls-7 {
        fill: none;
      }

      .cls-8 {
        font-family: TimesNewRomanPSMT, 'Times New Roman';
        font-size: 9px;
      }

      .cls-8, .cls-9, .cls-10, .cls-11, .cls-12, .cls-13, .cls-14, .cls-15, .cls-16, .cls-17, .cls-18, .cls-19, .cls-20, .cls-21, .cls-22, .cls-23, .cls-24, .cls-25 {
        fill: #010101;
      }

      .cls-9, .cls-10, .cls-11, .cls-13 {
        font-family: NewCM10-Italic, NewComputerModern10;
        font-style: italic;
      }

      .cls-9, .cls-22 {
        font-size: 4.8px;
      }

      .cls-10 {
        font-size: 4.8px;
      }

      .cls-11 {
        font-size: 4.8px;
      }

      .cls-2 {
        stroke: #144f8c;
      }

      .cls-2, .cls-3, .cls-4 {
        stroke-miterlimit: 2;
        stroke-width: 1.75px;
      }

      .cls-13, .cls-21 {
        font-size: 8px;
      }

      .cls-3 {
        stroke: #81c17c;
        stroke-dasharray: 5.25 5.25 1.75 5.25;
      }

      .cls-26 {
        clip-path: url(#clippath-17);
      }

      .cls-27 {
        clip-path: url(#clippath-19);
      }

      .cls-28 {
        clip-path: url(#clippath-11);
      }

      .cls-29 {
        clip-path: url(#clippath-16);
      }

      .cls-30 {
        clip-path: url(#clippath-18);
      }

      .cls-31 {
        clip-path: url(#clippath-10);
      }

      .cls-32 {
        clip-path: url(#clippath-15);
      }

      .cls-33 {
        clip-path: url(#clippath-13);
      }

      .cls-34 {
        clip-path: url(#clippath-14);
      }

      .cls-35 {
        clip-path: url(#clippath-12);
      }

      .cls-36 {
        clip-path: url(#clippath-31);
      }

      .cls-37 {
        clip-path: url(#clippath-32);
      }

      .cls-38 {
        clip-path: url(#clippath-33);
      }

      .cls-39 {
        clip-path: url(#clippath-34);
      }

      .cls-40 {
        clip-path: url(#clippath-35);
      }

      .cls-41 {
        clip-path: url(#clippath-30);
      }

      .cls-42 {
        clip-path: url(#clippath-36);
      }

      .cls-43 {
        clip-path: url(#clippath-27);
      }

      .cls-44 {
        clip-path: url(#clippath-29);
      }

      .cls-45 {
        clip-path: url(#clippath-26);
      }

      .cls-46 {
        clip-path: url(#clippath-28);
      }

      .cls-47 {
        clip-path: url(#clippath-20);
      }

      .cls-48 {
        clip-path: url(#clippath-21);
      }

      .cls-49 {
        clip-path: url(#clippath-22);
      }

      .cls-50 {
        clip-path: url(#clippath-23);
      }

      .cls-51 {
        clip-path: url(#clippath-24);
      }

      .cls-52 {
        clip-path: url(#clippath-25);
      }

      .cls-53 {
        clip-path: url(#clippath-1);
      }

      .cls-54 {
        clip-path: url(#clippath-3);
      }

      .cls-55 {
        clip-path: url(#clippath-4);
      }

      .cls-56 {
        clip-path: url(#clippath-2);
      }

      .cls-57 {
        clip-path: url(#clippath-7);
      }

      .cls-58 {
        clip-path: url(#clippath-6);
      }

      .cls-59 {
        clip-path: url(#clippath-9);
      }

      .cls-60 {
        clip-path: url(#clippath-8);
      }

      .cls-61 {
        clip-path: url(#clippath-5);
      }

      .cls-4 {
        stroke: #ce2926;
        stroke-dasharray: 5.25 5.25;
      }

      .cls-62 {
        letter-spacing: 3.75em;
      }

      .cls-63 {
        letter-spacing: 3.75em;
      }

      .cls-64 {
        letter-spacing: 3.75em;
      }

      .cls-65 {
        letter-spacing: 3.75em;
      }

      .cls-14 {
        font-size: 9px;
      }

      .cls-14, .cls-15, .cls-16, .cls-17, .cls-18, .cls-19, .cls-20, .cls-21, .cls-22, .cls-23, .cls-24, .cls-25 {
        font-family: NewCMMath-Regular, NewComputerModernMath;
      }

      .cls-15 {
        font-size: 9px;
      }

      .cls-16 {
        font-size: 9px;
      }

      .cls-17 {
        font-size: 8px;
      }

      .cls-18 {
        font-size: 8px;
      }

      .cls-19 {
        font-size: 8px;
      }

      .cls-20 {
        font-size: 8px;
      }

      .cls-23 {
        font-size: 5.4px;
      }

      .cls-24 {
        font-size: 5.4px;
      }

      .cls-25 {
        font-size: 5.4px;
      }

      .cls-5 {
        stroke-width: .75px;
      }

      .cls-5, .cls-6, .cls-7 {
        stroke: #010101;
        stroke-miterlimit: 1.15;
      }

      .cls-6 {
        stroke-width: .7px;
      }

      .cls-7 {
        stroke-width: .34px;
      }

      .cls-66 {
        clip-path: url(#clippath);
      }
    </style>
    <clipPath id="clippath">
      <rect class="cls-1" x="21.96" y="143.28" width="161" height="1"/>
    </clipPath>
    <clipPath id="clippath-1">
      <rect class="cls-1" x="21.96" y="125.28" width="161" height="19"/>
    </clipPath>
    <clipPath id="clippath-2">
      <rect class="cls-1" x="21.96" y="84.28" width="161" height="14"/>
    </clipPath>
    <clipPath id="clippath-3">
      <rect class="cls-1" x="21.96" y="73.28" width="161" height="24"/>
    </clipPath>
    <clipPath id="clippath-4">
      <rect class="cls-1" x="21.96" y="31.28" width="161" height="19"/>
    </clipPath>
    <clipPath id="clippath-5">
      <rect class="cls-1" x="21.96" y="20.28" width="161" height="28"/>
    </clipPath>
    <clipPath id="clippath-6">
      <rect class="cls-1" x="21.96" y="143.28" width="161" height="1"/>
    </clipPath>
    <clipPath id="clippath-7">
      <rect class="cls-1" x="21.96" y="125.28" width="161" height="19"/>
    </clipPath>
    <clipPath id="clippath-8">
      <rect class="cls-1" x="21.96" y="84.28" width="161" height="12"/>
    </clipPath>
    <clipPath id="clippath-9">
      <rect class="cls-1" x="21.96" y="73.28" width="161" height="20"/>
    </clipPath>
    <clipPath id="clippath-10">
      <rect class="cls-1" x="21.96" y="30.28" width="160" height="14"/>
    </clipPath>
    <clipPath id="clippath-11">
      <rect class="cls-1" x="21.96" y="20.28" width="160" height="20"/>
    </clipPath>
    <clipPath id="clippath-12">
      <rect class="cls-1" x="21.96" y="143.28" width="161" height="1"/>
    </clipPath>
    <clipPath id="clippath-13">
      <rect class="cls-1" x="21.96" y="125.28" width="161" height="19"/>
    </clipPath>
    <clipPath id="clippath-14">
      <rect class="cls-1" x="21.96" y="84.28" width="161" height="13"/>
    </clipPath>
    <clipPath id="clippath-15">
      <rect class="cls-1" x="21.96" y="73.28" width="161" height="24"/>
    </clipPath>
    <clipPath id="clippath-16">
      <rect class="cls-1" x="21.96" y="31.28" width="160" height="19"/>
    </clipPath>
    <clipPath id="clippath-17">
      <rect class="cls-1" x="21.96" y="20.28" width="159" height="27"/>
    </clipPath>
    <clipPath id="clippath-18">
      <rect class="cls-1" x="195.96" y="143.28" width="161" height="1"/>
    </clipPath>
    <clipPath id="clippath-19">
      <rect class="cls-1" x="195.96" y="125.28" width="161" height="12"/>
    </clipPath>
    <clipPath id="clippath-20">
      <rect class="cls-1" x="195.96" y="87.28" width="161" height="11"/>
    </clipPath>
    <clipPath id="clippath-21">
      <rect class="cls-1" x="195.96" y="73.28" width="161" height="18"/>
    </clipPath>
    <clipPath id="clippath-22">
      <rect class="cls-1" x="195.96" y="34.28" width="161" height="18"/>
    </clipPath>
    <clipPath id="clippath-23">
      <rect class="cls-1" x="195.96" y="20.28" width="161" height="24"/>
    </clipPath>
    <clipPath id="clippath-24">
      <rect class="cls-1" x="351.96" y="4.28" width="5" height="2"/>
    </clipPath>
    <clipPath id="clippath-25">
      <rect class="cls-1" x="195.96" y="143.28" width="161" height="1"/>
    </clipPath>
    <clipPath id="clippath-26">
      <rect class="cls-1" x="195.96" y="125.28" width="161" height="12"/>
    </clipPath>
    <clipPath id="clippath-27">
      <rect class="cls-1" x="195.96" y="87.28" width="161" height="7"/>
    </clipPath>
    <clipPath id="clippath-28">
      <rect class="cls-1" x="195.96" y="73.28" width="161" height="12"/>
    </clipPath>
    <clipPath id="clippath-29">
      <rect class="cls-1" x="195.96" y="34.28" width="161" height="8"/>
    </clipPath>
    <clipPath id="clippath-30">
      <rect class="cls-1" x="195.96" y="20.28" width="161" height="13"/>
    </clipPath>
    <clipPath id="clippath-31">
      <rect class="cls-1" x="195.96" y="143.28" width="161" height="1"/>
    </clipPath>
    <clipPath id="clippath-32">
      <rect class="cls-1" x="195.96" y="125.28" width="161" height="13"/>
    </clipPath>
    <clipPath id="clippath-33">
      <rect class="cls-1" x="195.96" y="87.28" width="161" height="11"/>
    </clipPath>
    <clipPath id="clippath-34">
      <rect class="cls-1" x="195.96" y="73.28" width="161" height="17"/>
    </clipPath>
    <clipPath id="clippath-35">
      <rect class="cls-1" x="195.96" y="34.28" width="161" height="16"/>
    </clipPath>
    <clipPath id="clippath-36">
      <rect class="cls-1" x="195.96" y="20.28" width="161" height="23"/>
    </clipPath>
  </defs>
  <text class="cls-13" transform="translate(94.86 165.43)"><tspan x="0" y="0">g</tspan></text>
  <text class="cls-21" transform="translate(98.54 165.43)"><tspan x="0" y="0">/</tspan></text>
  <path class="cls-12" d="M107.18,163.52c-.24.97-.74,2-1.58,2-.54,0-.82-.35-.9-.85-.3.5-.72.85-1.22.85-.61,0-.84-.5-.84-1.14,0-.28.04-.59.12-.9.13-.5.33-1.02.66-1.47.04-.05.1-.07.14-.07.02,0,.05,0,.07.02.04.02.07.06.07.11,0,.03-.02.07-.04.1-.3.42-.59.87-.71,1.35-.04.18-.06.36-.06.52,0,.5.21.9.7.9.44,0,.82-.31,1.09-.74,0-.23.04-.47.1-.72.04-.18.12-.38.27-.38.11,0,.15.09.15.21,0,.06-.02.14-.03.21-.06.24-.14.48-.24.7.07.42.34.72.78.72.63,0,1.1-.74,1.28-1.46.02-.1.03-.2.03-.3,0-.28-.1-.53-.3-.7-.06-.06-.09-.12-.09-.2,0-.09.04-.18.11-.26.08-.08.18-.13.28-.13.07,0,.14.02.18.07.12.1.16.28.16.49,0,.32-.1.72-.18,1.06Z"/>
  <text class="cls-10" transform="translate(107.86 167.03)"><tspan x="0" y="0">c</tspan></text>
  <text class="cls-21" transform="translate(16.85 156.43)"><tspan x="0" y="0">0.</tspan><tspan class="cls-64" x="6.22" y="0">0</tspan><tspan x="40.25" y="0">0.</tspan><tspan class="cls-64" x="46.47" y="0">5</tspan><tspan x="80.5" y="0">1.0</tspan></text>
  <text class="cls-21" transform="translate(137.6 156.43)"><tspan x="0" y="0">1.</tspan><tspan class="cls-65" x="6.22" y="0">5</tspan><tspan x="40.24" y="0">2.0</tspan></text>
  <text class="cls-13" transform="translate(6.73 90.66) rotate(-90)"><tspan x="0" y="0">E</tspan></text>
  <text class="cls-11" transform="translate(8.33 84.98) rotate(-90)"><tspan x="0" y="0">n</tspan></text>
  <text class="cls-21" transform="translate(6.73 82.28) rotate(-90)"><tspan x="0" y="0">/(</tspan></text>
  <text class="cls-13" transform="translate(6.73 75.17) rotate(-90)"><tspan x="0" y="0">ħ</tspan></text>
  <path class="cls-12" d="M4.82,66.43c.97.24,2,.74,2,1.58,0,.54-.35.82-.85.9.5.3.85.72.85,1.22,0,.61-.5.84-1.14.84-.28,0-.59-.04-.9-.12-.5-.13-1.02-.33-1.47-.66-.05-.04-.07-.1-.07-.14,0-.02,0-.05.02-.07.02-.04.06-.07.11-.07.03,0,.07.02.1.04.42.3.87.59,1.35.71.18.04.36.06.52.06.5,0,.9-.21.9-.7,0-.44-.31-.82-.74-1.09-.23,0-.47-.04-.72-.1-.18-.04-.38-.12-.38-.27,0-.11.09-.15.21-.15.06,0,.14.02.21.03.24.06.48.14.7.24.42-.07.72-.34.72-.78,0-.63-.74-1.1-1.46-1.28-.1-.02-.2-.03-.3-.03-.28,0-.53.1-.7.3-.06.06-.12.09-.2.09-.09,0-.18-.04-.26-.11-.08-.08-.13-.18-.13-.28,0-.07.02-.14.07-.18.1-.12.28-.16.49-.16.32,0,.72.1,1.06.18Z"/>
  <text class="cls-22" transform="translate(8.33 65.82) rotate(-90)"><tspan x="0" y="0">10</tspan></text>
  <text class="cls-21" transform="translate(6.73 61.02) rotate(-90)"><tspan x="0" y="0">)</tspan></text>
  <text class="cls-21" transform="translate(10.26 146.73)"><tspan x="0" y="0">0</tspan></text>
  <text class="cls-21" transform="translate(10.26 111.73)"><tspan x="0" y="0">2</tspan></text>
  <text class="cls-21" transform="translate(10.26 76.73)"><tspan x="0" y="0">4</tspan></text>
  <text class="cls-21" transform="translate(10.26 41.73)"><tspan x="0" y="0">6</tspan></text>
  <text class="cls-20" transform="translate(10.26 6.73)"><tspan x="0" y="0">8</tspan></text>
  <g class="cls-66">
    <line class="cls-2" x1="21.96" y1="144.28" x2="182.96" y2="144.28"/>
  </g>
  <g class="cls-53">
    <polyline class="cls-2" points="21.96 126.78 23.23 126.79 24.5 126.82 25.77 126.86 27.03 126.92 28.3 127 29.57 127.09 30.84 127.2 32.1 127.32 33.37 127.46 34.64 127.62 35.91 127.78 37.17 127.96 38.44 128.15 39.71 128.36 40.98 128.57 42.25 128.8 43.51 129.03 44.78 129.28 46.05 129.53 47.32 129.79 48.58 130.05 49.85 130.33 51.12 130.6 52.39 130.89 53.65 131.17 54.92 131.47 56.19 131.76 58.73 132.35 59.99 132.65 61.26 132.96 62.53 133.26 63.8 133.56 65.07 133.86 66.33 134.16 67.6 134.46 68.87 134.76 70.14 135.05 71.4 135.34 72.67 135.63 73.94 135.92 75.21 136.2 76.48 136.48 77.74 136.76 79.01 137.03 80.28 137.3 81.55 137.56 82.82 137.82 84.08 138.07 85.35 138.32 86.62 138.56 87.89 138.8 89.15 139.03 90.42 139.26 91.69 139.48 94.23 139.9 95.49 140.1 96.76 140.3 98.03 140.49 99.3 140.67 100.56 140.85 101.83 141.02 103.1 141.19 104.37 141.35 105.63 141.5 106.9 141.65 108.17 141.79 109.44 141.92 110.7 142.05 111.97 142.18 113.24 142.3 114.51 142.41 115.78 142.52 117.04 142.63 118.31 142.72 119.58 142.82 120.85 142.91 122.11 142.99 123.38 143.07 124.65 143.15 125.92 143.22 127.18 143.29 128.45 143.36 129.72 143.42 130.99 143.47 132.26 143.53 133.52 143.58 134.79 143.63 136.06 143.68 137.33 143.72 138.59 143.76 139.86 143.8 141.13 143.83 142.4 143.87 143.66 143.9 144.93 143.92 146.2 143.95 148.74 144 150 144.02 151.27 144.04 152.54 144.06 153.81 144.08 155.07 144.1 156.34 144.11 157.61 144.12 158.88 144.14 160.14 144.15 161.41 144.16 162.68 144.17 163.95 144.18 165.22 144.19 166.48 144.2 167.75 144.21 169.02 144.21 170.29 144.22 171.55 144.22 172.82 144.23 174.09 144.23 175.36 144.24 176.62 144.24 177.89 144.24 179.16 144.25 180.43 144.25 181.69 144.26 182.96 144.26"/>
  </g>
  <g class="cls-56">
    <polyline class="cls-2" points="21.96 91.78 23.23 91.78 24.5 91.74 25.77 91.7 27.03 91.63 28.3 91.55 29.57 91.44 30.84 91.32 32.1 91.19 33.37 91.03 34.64 90.87 35.91 90.68 37.17 90.48 38.44 90.28 39.71 90.05 40.98 89.82 42.25 89.58 43.51 89.33 44.78 89.07 46.05 88.81 47.32 88.54 48.58 88.27 49.85 87.99 51.12 87.72 52.39 87.44 53.65 87.17 54.92 86.9 56.19 86.63 57.46 86.37 58.73 86.11 59.99 85.86 61.26 85.62 62.53 86.08 63.8 86.55 65.07 87.01 66.33 87.46 67.6 87.9 68.87 88.34 70.14 88.77 71.4 89.19 72.67 89.6 73.94 89.99 75.21 90.38 76.48 90.76 77.74 91.12 79.01 91.47 80.28 91.81 81.55 92.14 82.82 92.46 84.08 92.76 85.35 93.05 86.62 93.33 87.89 93.59 89.15 93.84 90.42 94.08 91.69 94.31 92.96 94.52 94.23 94.72 95.49 94.9 96.76 95.08 98.03 95.24 99.3 95.39 100.56 95.53 101.83 95.65 103.1 95.77 104.37 95.87 105.63 95.97 106.9 96.05 108.17 96.12 109.44 96.19 110.7 96.24 111.97 96.29 113.24 96.33 114.51 96.36 115.78 96.38 117.04 96.4 118.31 96.41 119.58 96.42 120.85 96.42 122.11 96.41 123.38 96.4 124.65 96.39 125.92 96.37 127.18 96.35 129.72 96.31 130.99 96.28 132.26 96.26 133.52 96.23 134.79 96.2 136.06 96.17 137.33 96.14 138.59 96.12 139.86 96.09 141.13 96.06 142.4 96.04 143.66 96.01 144.93 95.99 146.2 95.97 147.47 95.96 148.74 95.94 150 95.92 151.27 95.91 152.54 95.9 153.81 95.89 155.07 95.89 156.34 95.88 158.88 95.88 160.14 95.89 161.41 95.89 162.68 95.9 163.95 95.91 165.22 95.92 166.48 95.94 167.75 95.95 169.02 95.97 170.29 95.99 171.55 96.01 172.82 96.04 174.09 96.06 175.36 96.09 176.62 96.12 177.89 96.15 179.16 96.19 180.43 96.22 181.69 96.25 182.96 96.29"/>
  </g>
  <g class="cls-54">
    <polyline class="cls-2" points="21.96 74.28 23.23 74.3 24.5 74.36 25.77 74.45 27.03 74.58 28.3 74.75 29.57 74.95 30.84 75.18 32.1 75.44 33.37 75.73 34.64 76.05 35.91 76.39 37.17 76.75 38.44 77.14 39.71 77.54 40.98 77.96 42.25 78.39 43.51 78.84 44.78 79.3 46.05 79.76 47.32 80.24 48.58 80.72 49.85 81.21 51.12 81.69 52.39 82.19 53.65 82.68 54.92 83.17 56.19 83.66 57.46 84.15 58.73 84.64 59.99 85.12 61.26 85.6 62.53 85.39 63.8 85.17 65.07 84.97 66.33 84.78 67.6 84.6 68.87 84.44 70.14 84.3 71.4 84.18 72.67 84.07 73.94 83.98 75.21 83.91 76.48 83.87 77.74 83.83 79.01 83.83 80.28 83.83 81.55 83.87 82.82 83.91 84.08 83.98 85.35 84.06 86.62 84.16 87.89 84.28 89.15 84.41 90.42 84.56 91.69 84.71 92.96 84.89 94.23 85.06 95.49 85.26 96.76 85.46 98.03 85.66 99.3 85.87 100.56 86.1 101.83 86.32 103.1 86.55 104.37 86.78 105.63 87.01 106.9 87.25 108.17 87.48 109.44 87.72 110.7 87.96 113.24 88.42 114.51 88.65 115.78 88.89 117.04 89.11 118.31 89.33 119.58 89.56 120.85 89.78 122.11 89.99 123.38 90.2 124.65 90.4 125.92 90.6 127.18 90.8 128.45 90.99 129.72 91.18 130.99 91.37 132.26 91.55 133.52 91.72 134.79 91.89 136.06 92.06 137.33 92.22 138.59 92.38 139.86 92.53 141.13 92.68 142.4 92.83 143.66 92.97 144.93 93.11 146.2 93.24 147.47 93.37 148.74 93.49 150 93.62 151.27 93.74 152.54 93.85 153.81 93.96 155.07 94.07 156.34 94.18 157.61 94.28 158.88 94.39 160.14 94.48 161.41 94.58 162.68 94.67 163.95 94.76 165.22 94.85 166.48 94.94 167.75 95.02 169.02 95.1 170.29 95.19 171.55 95.26 172.82 95.34 174.09 95.42 175.36 95.49 176.62 95.57 177.89 95.64 179.16 95.71 180.43 95.78 181.69 95.85 182.96 95.92"/>
  </g>
  <g class="cls-55">
    <polyline class="cls-2" points="21.96 39.28 23.23 39.26 24.5 39.21 25.77 39.11 27.03 38.98 28.3 38.81 29.57 38.61 30.84 38.38 32.1 38.12 33.37 37.83 34.64 37.52 35.91 37.19 37.17 36.83 38.44 36.46 39.71 36.08 40.98 35.69 42.25 35.29 43.51 34.89 44.78 34.48 46.05 34.08 47.32 33.69 48.58 33.3 49.85 32.92 51.12 32.56 52.39 32.45 53.65 33.02 54.92 33.57 56.19 34.12 57.46 34.64 58.73 35.15 59.99 35.64 61.26 36.1 62.53 36.55 63.8 36.96 65.07 37.35 66.33 37.72 67.6 38.06 68.87 38.37 70.14 38.64 71.4 38.89 72.67 39.11 73.94 39.3 75.21 39.45 76.48 39.57 77.74 39.67 79.01 39.73 80.28 39.76 81.55 39.77 82.82 39.75 84.08 39.71 85.35 39.64 86.62 39.55 87.89 39.44 89.15 39.31 90.42 39.16 91.69 39.01 92.96 38.84 94.23 38.66 95.49 38.48 96.76 38.77 98.03 39.24 99.3 39.7 100.56 40.16 101.83 40.61 103.1 41.05 104.37 41.48 105.63 41.91 106.9 42.32 108.17 42.72 109.44 43.11 110.7 43.49 111.97 43.86 113.24 44.21 114.51 44.56 115.78 44.89 117.04 45.2 118.31 45.5 119.58 45.79 120.85 46.06 122.11 46.33 123.38 46.57 124.65 46.81 125.92 47.03 127.18 47.24 128.45 47.43 129.72 47.61 130.99 47.78 132.26 47.94 133.52 48.08 134.79 48.21 136.06 48.33 137.33 48.45 138.59 48.55 139.86 48.64 141.13 48.72 142.4 48.79 143.66 48.85 144.93 48.91 146.2 48.96 147.47 48.99 148.74 49.03 150 49.06 151.27 49.08 152.54 49.1 153.81 49.11 155.07 49.12 156.34 49.13 157.61 49.14 158.88 49.14 160.14 49.14 161.41 49.14 162.68 49.14 169.02 49.14 170.29 49.14 171.55 49.15 172.82 49.15 174.09 49.16 175.36 49.17 176.62 49.19 177.89 49.21 179.16 49.23 180.43 49.25 181.69 49.28 182.96 49.31"/>
  </g>
  <g class="cls-61">
    <polyline class="cls-2" points="21.96 21.78 23.23 21.81 24.5 21.9 25.77 22.05 27.03 22.24 28.3 22.49 29.57 22.79 30.84 23.14 32.1 23.53 33.37 23.95 34.64 24.41 35.91 24.9 37.17 25.42 38.44 25.96 39.71 26.52 40.98 27.09 42.25 27.67 43.51 28.27 44.78 28.87 46.05 29.47 47.32 30.08 48.58 30.68 49.85 31.28 51.12 31.87 52.39 32.22 53.65 31.9 54.92 31.61 56.19 31.33 57.46 31.09 58.73 30.88 59.99 30.71 61.26 30.56 62.53 30.46 63.8 30.4 65.07 30.37 66.33 30.38 67.6 30.43 68.87 30.53 70.14 30.65 71.4 30.82 72.67 31.02 73.94 31.26 75.21 31.53 76.48 31.83 77.74 32.15 79.01 32.5 80.28 32.87 81.55 33.27 82.82 33.68 84.08 34.11 85.35 34.55 86.62 35 87.89 35.46 89.15 35.92 90.42 36.4 91.69 36.87 94.23 37.82 95.49 38.3 96.76 38.3 98.03 38.11 99.3 37.93 100.56 37.75 101.83 37.58 103.1 37.42 104.37 37.27 105.63 37.13 106.9 37.01 108.17 36.9 109.44 36.81 110.7 36.74 111.97 36.69 113.24 36.66 114.51 36.64 115.78 36.65 117.04 36.68 118.31 36.72 119.58 36.79 120.85 36.88 122.11 36.97 123.38 37.1 124.65 37.23 125.92 37.37 127.18 37.54 128.45 37.71 129.72 37.89 130.99 38.09 132.26 38.29 133.52 38.5 134.79 38.72 136.06 38.95 137.33 39.18 138.59 39.41 139.86 39.65 141.13 39.89 142.4 40.14 143.66 40.38 144.93 40.62 146.2 40.87 148.74 41.36 150 41.61 151.27 41.85 152.54 42.09 153.81 42.33 155.07 42.57 156.34 42.81 157.61 43.04 158.88 43.27 160.14 43.5 161.41 43.72 162.68 43.94 163.95 44.16 165.22 44.38 166.48 44.59 167.75 44.8 169.02 45 170.29 45.21 171.55 45.4 172.82 45.6 174.09 45.79 175.36 45.98 176.62 46.17 177.89 46.35 179.16 46.53 180.43 46.71 181.69 46.88 182.96 47.05"/>
  </g>
  <g class="cls-58">
    <line class="cls-4" x1="21.96" y1="144.28" x2="182.96" y2="144.28"/>
  </g>
  <g class="cls-57">
    <polyline class="cls-4" points="21.96 126.78 23.23 126.79 24.5 126.82 25.77 126.86 27.03 126.92 28.3 126.99 29.57 127.08 30.84 127.19 32.1 127.31 33.37 127.45 34.64 127.6 35.91 127.76 37.17 127.94 38.44 128.13 39.71 128.33 40.98 128.55 42.25 128.77 43.51 129 44.78 129.24 46.05 129.49 47.32 129.75 48.58 130.01 49.85 130.28 51.12 130.56 52.39 130.84 53.65 131.13 54.92 131.42 56.19 131.71 57.46 132.01 58.73 132.31 59.99 132.61 61.26 132.91 62.53 133.21 63.8 133.51 65.07 133.81 66.33 134.12 67.6 134.42 68.87 134.72 70.14 135.02 71.4 135.31 72.67 135.61 73.94 135.9 75.21 136.19 76.48 136.47 77.74 136.75 79.01 137.03 80.28 137.3 81.55 137.57 82.82 137.83 84.08 138.09 85.35 138.35 86.62 138.6 87.89 138.84 89.15 139.08 90.42 139.31 91.69 139.53 92.96 139.75 94.23 139.96 95.49 140.17 96.76 140.37 98.03 140.56 99.3 140.75 100.56 140.94 101.83 141.11 103.1 141.28 104.37 141.44 105.63 141.6 106.9 141.75 108.17 141.89 109.44 142.03 110.7 142.17 111.97 142.29 113.24 142.41 114.51 142.53 115.78 142.64 117.04 142.74 118.31 142.84 119.58 142.94 120.85 143.03 122.11 143.11 123.38 143.19 124.65 143.26 125.92 143.33 127.18 143.4 129.72 143.53 130.99 143.58 132.26 143.63 133.52 143.68 134.79 143.73 136.06 143.77 137.33 143.81 138.59 143.85 139.86 143.88 141.13 143.92 142.4 143.94 143.66 143.97 144.93 144 146.2 144.02 147.47 144.05 148.74 144.06 150 144.08 151.27 144.1 152.54 144.12 153.81 144.13 155.07 144.15 156.34 144.16 157.61 144.17 158.88 144.18 160.14 144.19 161.41 144.2 162.68 144.21 163.95 144.21 165.22 144.22 166.48 144.23 167.75 144.23 169.02 144.24 170.29 144.24 171.55 144.25 172.82 144.25 174.09 144.25 175.36 144.26 176.62 144.26 177.89 144.26 179.16 144.26 180.43 144.27 181.69 144.27 182.96 144.27"/>
  </g>
  <g class="cls-60">
    <polyline class="cls-4" points="21.96 91.78 23.23 91.78 24.5 91.74 25.77 91.7 27.03 91.63 28.3 91.54 29.57 91.44 30.84 91.31 32.1 91.17 33.37 91.02 34.64 90.85 35.91 90.66 37.17 90.46 38.44 90.24 39.71 90.02 40.98 89.78 42.25 89.53 43.51 89.27 44.78 89.01 46.05 88.74 47.32 88.46 48.58 88.17 49.85 87.89 51.12 87.6 52.39 87.31 53.65 87.02 54.92 86.74 56.19 86.45 57.46 86.17 58.73 85.9 59.99 85.64 61.26 85.38 62.53 85.66 63.8 86.11 65.07 86.55 66.33 86.99 67.6 87.42 68.87 87.83 70.14 88.24 71.4 88.64 72.67 89.03 73.94 89.4 75.21 89.77 76.48 90.12 77.74 90.46 79.01 90.79 80.28 91.11 81.55 91.41 82.82 91.7 84.08 91.98 85.35 92.24 86.62 92.49 87.89 92.72 89.15 92.94 90.42 93.15 91.69 93.35 92.96 93.52 94.23 93.69 95.49 93.84 96.76 93.97 98.03 94.1 99.3 94.21 100.56 94.31 101.83 94.39 103.1 94.47 104.37 94.53 105.63 94.58 106.9 94.61 108.17 94.64 109.44 94.65 110.7 94.66 111.97 94.66 113.24 94.65 114.51 94.63 115.78 94.6 117.04 94.56 118.31 94.53 119.58 94.48 120.85 94.42 122.11 94.37 123.38 94.31 124.65 94.24 125.92 94.17 127.18 94.1 129.72 93.95 130.99 93.87 132.26 93.8 133.52 93.72 134.79 93.64 136.06 93.56 137.33 93.48 138.59 93.4 139.86 93.33 141.13 93.26 142.4 93.18 143.66 93.11 144.93 93.04 146.2 92.97 147.47 92.91 148.74 92.85 150 92.79 151.27 92.73 152.54 92.67 153.81 92.62 155.07 92.57 156.34 92.52 157.61 92.47 158.88 92.43 160.14 92.39 161.41 92.35 162.68 92.31 163.95 92.28 165.22 92.25 166.48 92.22 167.75 92.19 169.02 92.16 170.29 92.14 171.55 92.12 172.82 92.09 174.09 92.07 175.36 92.05 176.62 92.04 177.89 92.02 179.16 92.01 180.43 91.99 181.69 91.98 182.96 91.97"/>
  </g>
  <g class="cls-59">
    <polyline class="cls-4" points="21.96 74.28 23.23 74.3 24.5 74.36 25.77 74.45 27.03 74.57 28.3 74.73 29.57 74.92 30.84 75.15 32.1 75.4 33.37 75.68 34.64 75.98 35.91 76.31 37.17 76.67 38.44 77.04 39.71 77.42 40.98 77.83 42.25 78.25 43.51 78.68 44.78 79.12 46.05 79.57 47.32 80.03 48.58 80.5 49.85 80.97 51.12 81.44 52.39 81.91 53.65 82.39 54.92 82.87 56.19 83.34 58.73 84.28 59.99 84.75 61.26 85.21 62.53 85.13 63.8 84.89 65.07 84.67 66.33 84.46 67.6 84.26 68.87 84.08 70.14 83.91 71.4 83.76 72.67 83.64 73.94 83.53 75.21 83.43 76.48 83.36 77.74 83.31 79.01 83.27 80.28 83.26 81.55 83.26 82.82 83.28 84.08 83.33 85.35 83.39 86.62 83.46 87.89 83.55 89.15 83.65 90.42 83.78 91.69 83.91 92.96 84.05 94.23 84.21 95.49 84.37 96.76 84.55 98.03 84.72 99.3 84.91 100.56 85.1 101.83 85.3 103.1 85.5 104.37 85.7 105.63 85.9 106.9 86.11 108.17 86.31 109.44 86.51 110.7 86.72 111.97 86.92 113.24 87.12 114.51 87.31 115.78 87.51 117.04 87.7 118.31 87.89 119.58 88.07 120.85 88.25 122.11 88.42 123.38 88.59 124.65 88.75 125.92 88.91 127.18 89.07 128.45 89.22 129.72 89.36 130.99 89.5 132.26 89.63 133.52 89.76 134.79 89.88 136.06 90 137.33 90.11 138.59 90.22 139.86 90.32 141.13 90.42 142.4 90.51 143.66 90.6 144.93 90.69 146.2 90.77 147.47 90.84 148.74 90.91 150 90.98 151.27 91.05 152.54 91.1 153.81 91.16 155.07 91.21 156.34 91.26 157.61 91.31 158.88 91.35 160.14 91.39 161.41 91.43 162.68 91.46 165.22 91.53 166.48 91.55 167.75 91.58 169.02 91.6 170.29 91.63 171.55 91.65 172.82 91.67 174.09 91.68 175.36 91.7 176.62 91.71 177.89 91.72 179.16 91.74 180.43 91.75 181.69 91.76 182.96 91.77"/>
  </g>
  <g class="cls-31">
    <polyline class="cls-4" points="21.96 39.28 23.23 39.26 24.5 39.21 25.77 39.11 27.03 38.97 28.3 38.81 29.57 38.6 30.84 38.37 32.1 38.1 33.37 37.8 34.64 37.48 35.91 37.14 37.17 36.78 38.44 36.39 39.71 36 40.98 35.59 42.25 35.17 43.51 34.76 44.78 34.33 46.05 33.91 47.32 33.49 48.58 33.08 49.85 32.68 51.12 32.29 52.39 31.97 53.65 32.51 54.92 33.04 56.19 33.55 57.46 34.04 58.73 34.51 59.99 34.97 61.26 35.4 62.53 35.81 63.8 36.19 65.07 36.55 66.33 36.87 67.6 37.17 68.87 37.44 70.14 37.68 71.4 37.89 72.67 38.06 73.94 38.2 75.21 38.31 76.48 38.39 77.74 38.44 79.01 38.46 80.28 38.44 81.55 38.4 82.82 38.32 84.08 38.22 85.35 38.1 86.62 37.96 87.89 37.79 89.15 37.6 90.42 37.4 91.69 37.19 92.96 36.96 94.23 36.72 95.49 36.48 96.76 36.68 98.03 37.09 99.3 37.48 100.56 37.87 101.83 38.25 103.1 38.62 104.37 38.98 105.63 39.33 106.9 39.67 108.17 39.99 109.44 40.3 110.7 40.6 111.97 40.88 113.24 41.14 114.51 41.39 115.78 41.63 117.04 41.85 118.31 42.05 119.58 42.24 120.85 42.42 122.11 42.57 123.38 42.71 124.65 42.84 125.92 42.95 127.18 43.04 128.45 43.12 129.72 43.19 130.99 43.24 132.26 43.27 133.52 43.3 134.79 43.31 136.06 43.3 137.33 43.29 138.59 43.26 139.86 43.23 141.13 43.18 142.4 43.13 143.66 43.06 144.93 42.99 146.2 42.91 147.47 42.83 148.74 42.74 150 42.64 151.27 42.54 152.54 42.44 153.81 42.33 155.07 42.22 156.34 42.11 157.61 42 158.88 41.89 160.14 41.78 161.41 41.67 162.68 41.56 163.95 41.45 165.22 41.34 166.48 41.24 167.75 41.14 169.02 41.04 170.29 40.94 171.55 40.85 172.82 40.76 174.09 40.68 175.36 40.6 176.62 40.52 177.89 40.44 179.16 40.37 180.43 40.3 181.69 40.24 182.96 40.18"/>
  </g>
  <g class="cls-28">
    <polyline class="cls-4" points="21.96 21.78 23.23 21.81 24.5 21.9 25.77 22.03 27.03 22.22 28.3 22.46 29.57 22.75 30.84 23.08 32.1 23.46 33.37 23.87 34.64 24.31 35.91 24.78 37.17 25.27 38.44 25.79 39.71 26.32 40.98 26.87 42.25 27.43 43.51 28 44.78 28.57 46.05 29.15 47.32 29.72 48.58 30.29 49.85 30.86 51.12 31.42 52.39 31.92 53.65 31.56 54.92 31.23 56.19 30.92 57.46 30.64 58.73 30.39 59.99 30.17 61.26 29.99 62.53 29.84 63.8 29.73 65.07 29.65 66.33 29.62 67.6 29.62 68.87 29.66 70.14 29.74 71.4 29.86 72.67 30.01 73.94 30.19 75.21 30.41 76.48 30.65 77.74 30.92 79.01 31.22 80.28 31.54 81.55 31.88 82.82 32.24 84.08 32.61 85.35 32.99 86.62 33.39 87.89 33.79 89.15 34.2 90.42 34.62 91.69 35.03 92.96 35.45 94.23 35.86 95.49 36.28 96.76 36.24 98.03 35.99 99.3 35.75 100.56 35.51 101.83 35.28 103.1 35.06 104.37 34.85 105.63 34.65 106.9 34.47 108.17 34.3 109.44 34.15 110.7 34.02 111.97 33.9 113.24 33.81 114.51 33.74 115.78 33.69 117.04 33.65 118.31 33.64 119.58 33.64 120.85 33.65 122.11 33.69 123.38 33.74 124.65 33.8 125.92 33.88 127.18 33.97 128.45 34.07 129.72 34.18 130.99 34.3 132.26 34.42 133.52 34.56 134.79 34.69 136.06 34.83 137.33 34.98 138.59 35.13 139.86 35.28 141.13 35.43 142.4 35.58 143.66 35.74 144.93 35.89 146.2 36.04 147.47 36.19 148.74 36.33 150 36.47 151.27 36.62 152.54 36.76 153.81 36.89 155.07 37.02 156.34 37.15 157.61 37.28 158.88 37.4 160.14 37.51 161.41 37.62 162.68 37.73 163.95 37.83 165.22 37.93 166.48 38.03 167.75 38.12 169.02 38.21 170.29 38.29 171.55 38.37 172.82 38.44 174.09 38.51 175.36 38.58 176.62 38.64 177.89 38.7 179.16 38.75 180.43 38.8 181.69 38.85 182.96 38.9"/>
  </g>
  <g class="cls-35">
    <line class="cls-3" x1="21.96" y1="144.28" x2="182.96" y2="144.28"/>
  </g>
  <g class="cls-33">
    <polyline class="cls-3" points="21.96 126.78 23.23 126.79 24.5 126.82 25.77 126.86 27.03 126.92 28.3 127 29.57 127.09 30.84 127.2 32.1 127.32 33.37 127.46 34.64 127.62 35.91 127.78 37.17 127.96 38.44 128.15 39.71 128.36 40.98 128.57 42.25 128.8 43.51 129.03 44.78 129.28 46.05 129.53 47.32 129.79 48.58 130.06 49.85 130.33 51.12 130.61 52.39 130.89 53.65 131.18 54.92 131.47 56.19 131.76 58.73 132.36 59.99 132.66 61.26 132.96 62.53 133.26 63.8 133.56 65.07 133.87 66.33 134.17 67.6 134.47 68.87 134.76 70.14 135.06 71.4 135.35 72.67 135.64 73.94 135.93 75.21 136.22 76.48 136.5 77.74 136.78 79.01 137.05 80.28 137.31 81.55 137.58 82.82 137.84 84.08 138.09 85.35 138.34 86.62 138.58 87.89 138.82 89.15 139.06 90.42 139.28 91.69 139.5 92.96 139.72 94.23 139.93 95.49 140.13 96.76 140.33 98.03 140.52 99.3 140.7 100.56 140.88 101.83 141.05 103.1 141.22 104.37 141.38 105.63 141.53 106.9 141.68 108.17 141.82 109.44 141.96 110.7 142.09 111.97 142.21 113.24 142.33 114.51 142.45 115.78 142.56 117.04 142.66 118.31 142.76 119.58 142.85 120.85 142.94 122.11 143.03 123.38 143.11 124.65 143.19 125.92 143.26 127.18 143.33 129.72 143.45 130.99 143.51 132.26 143.56 133.52 143.62 134.79 143.66 136.06 143.71 137.33 143.75 138.59 143.79 139.86 143.82 141.13 143.86 142.4 143.89 143.66 143.92 144.93 143.95 146.2 143.97 148.74 144.02 150 144.04 151.27 144.06 152.54 144.08 153.81 144.1 155.07 144.11 156.34 144.13 157.61 144.14 158.88 144.15 160.14 144.16 161.41 144.17 162.68 144.19 165.22 144.2 166.48 144.21 167.75 144.22 169.02 144.22 170.29 144.23 171.55 144.23 172.82 144.24 174.09 144.24 175.36 144.24 176.62 144.25 177.89 144.25 179.16 144.26 180.43 144.26 181.69 144.26 182.96 144.26"/>
  </g>
  <g class="cls-34">
    <polyline class="cls-3" points="21.96 91.78 23.23 91.78 24.5 91.74 25.77 91.7 27.03 91.63 28.3 91.55 29.57 91.44 30.84 91.32 32.1 91.19 33.37 91.03 34.64 90.87 35.91 90.68 37.17 90.48 38.44 90.28 39.71 90.05 40.98 89.82 42.25 89.58 43.51 89.33 44.78 89.07 46.05 88.81 47.32 88.54 48.58 88.27 49.85 87.99 51.12 87.72 52.39 87.44 53.65 87.17 54.92 86.89 56.19 86.62 57.46 86.36 58.73 86.1 59.99 85.86 61.26 85.62 62.53 86.09 63.8 86.56 65.07 87.02 66.33 87.47 67.6 87.92 68.87 88.35 70.14 88.78 71.4 89.2 72.67 89.61 73.94 90.01 75.21 90.4 76.48 90.77 77.74 91.14 79.01 91.49 80.28 91.83 81.55 92.16 82.82 92.47 84.08 92.78 85.35 93.06 86.62 93.34 87.89 93.6 89.15 93.85 90.42 94.09 91.69 94.31 92.96 94.53 94.23 94.72 95.49 94.91 96.76 95.08 98.03 95.24 99.3 95.39 100.56 95.52 101.83 95.65 103.1 95.76 104.37 95.86 105.63 95.95 106.9 96.03 108.17 96.1 109.44 96.16 110.7 96.21 111.97 96.25 113.24 96.28 114.51 96.31 115.78 96.33 117.04 96.34 118.31 96.35 119.58 96.34 120.85 96.34 122.11 96.33 123.38 96.31 124.65 96.3 125.92 96.27 127.18 96.24 129.72 96.19 130.99 96.16 132.26 96.13 133.52 96.09 134.79 96.06 136.06 96.03 137.33 95.99 138.59 95.96 139.86 95.92 141.13 95.89 142.4 95.86 143.66 95.83 144.93 95.81 146.2 95.78 147.47 95.76 148.74 95.74 150 95.72 151.27 95.7 152.54 95.68 153.81 95.67 155.07 95.66 156.34 95.65 157.61 95.64 158.88 95.64 162.68 95.64 163.95 95.65 165.22 95.65 166.48 95.66 167.75 95.67 169.02 95.69 170.29 95.7 171.55 95.71 172.82 95.73 174.09 95.75 175.36 95.77 176.62 95.8 177.89 95.82 179.16 95.85 180.43 95.87 181.69 95.9 182.96 95.93"/>
  </g>
  <g class="cls-32">
    <polyline class="cls-3" points="21.96 74.28 23.23 74.3 24.5 74.36 25.77 74.45 27.03 74.58 28.3 74.75 29.57 74.95 30.84 75.18 32.1 75.44 33.37 75.73 34.64 76.05 35.91 76.39 37.17 76.75 38.44 77.14 39.71 77.54 40.98 77.96 42.25 78.39 43.51 78.84 44.78 79.3 46.05 79.76 47.32 80.24 48.58 80.72 49.85 81.21 51.12 81.7 52.39 82.19 53.65 82.68 54.92 83.18 56.19 83.67 57.46 84.16 58.73 84.65 59.99 85.14 61.26 85.61 62.53 85.39 63.8 85.17 65.07 84.97 66.33 84.78 67.6 84.6 68.87 84.44 70.14 84.3 71.4 84.17 72.67 84.07 73.94 83.98 75.21 83.92 76.48 83.87 77.74 83.84 79.01 83.83 80.28 83.84 81.55 83.87 82.82 83.92 84.08 83.99 85.35 84.08 86.62 84.18 87.89 84.3 89.15 84.43 90.42 84.58 91.69 84.74 92.96 84.91 94.23 85.1 95.49 85.29 96.76 85.49 98.03 85.7 99.3 85.92 100.56 86.14 101.83 86.37 103.1 86.6 104.37 86.83 105.63 87.06 106.9 87.3 108.17 87.54 109.44 87.78 110.7 88.01 113.24 88.48 114.51 88.71 115.78 88.94 117.04 89.17 118.31 89.4 119.58 89.62 120.85 89.83 122.11 90.05 123.38 90.25 124.65 90.46 125.92 90.66 127.18 90.85 129.72 91.23 130.99 91.41 132.26 91.59 133.52 91.76 134.79 91.93 136.06 92.09 137.33 92.25 138.59 92.4 139.86 92.55 141.13 92.69 142.4 92.83 143.66 92.97 144.93 93.1 146.2 93.23 148.74 93.47 150 93.58 151.27 93.7 152.54 93.81 153.81 93.91 155.07 94.01 156.34 94.11 157.61 94.21 158.88 94.3 160.14 94.39 161.41 94.47 162.68 94.56 163.95 94.64 165.22 94.72 166.48 94.8 167.75 94.87 169.02 94.94 170.29 95.01 171.55 95.08 172.82 95.15 174.09 95.22 175.36 95.28 176.62 95.34 177.89 95.4 179.16 95.46 180.43 95.52 181.69 95.58 182.96 95.64"/>
  </g>
  <g class="cls-29">
    <polyline class="cls-3" points="21.96 39.28 23.23 39.26 24.5 39.21 25.77 39.11 27.03 38.98 28.3 38.81 29.57 38.61 30.84 38.38 32.1 38.12 33.37 37.83 34.64 37.52 35.91 37.18 37.17 36.83 38.44 36.46 39.71 36.08 40.98 35.69 42.25 35.29 43.51 34.89 44.78 34.48 46.05 34.08 47.32 33.68 48.58 33.3 49.85 32.92 51.12 32.56 52.39 32.45 53.65 33.03 54.92 33.58 56.19 34.12 57.46 34.65 58.73 35.16 59.99 35.65 61.26 36.11 62.53 36.56 63.8 36.97 65.07 37.37 66.33 37.73 67.6 38.06 68.87 38.37 70.14 38.65 71.4 38.9 72.67 39.12 73.94 39.3 75.21 39.45 76.48 39.57 77.74 39.66 79.01 39.72 80.28 39.76 81.55 39.76 82.82 39.74 84.08 39.69 85.35 39.62 86.62 39.52 87.89 39.41 89.15 39.28 90.42 39.13 91.69 38.97 92.96 38.8 94.23 38.62 95.49 38.44 96.76 38.81 98.03 39.28 99.3 39.74 100.56 40.2 101.83 40.65 103.1 41.08 104.37 41.52 105.63 41.94 106.9 42.35 108.17 42.74 109.44 43.13 110.7 43.51 111.97 43.87 113.24 44.21 114.51 44.55 115.78 44.87 117.04 45.18 118.31 45.47 119.58 45.75 120.85 46.01 122.11 46.26 123.38 46.5 124.65 46.72 125.92 46.92 127.18 47.12 128.45 47.3 129.72 47.46 130.99 47.62 132.26 47.76 133.52 47.88 134.79 48 136.06 48.1 137.33 48.19 138.59 48.27 139.86 48.34 141.13 48.4 142.4 48.45 143.66 48.49 144.93 48.52 146.2 48.55 147.47 48.56 148.74 48.58 150 48.58 151.27 48.58 152.54 48.58 153.81 48.57 155.07 48.56 156.34 48.55 157.61 48.53 158.88 48.51 160.14 48.49 161.41 48.47 162.68 48.44 163.95 48.42 165.22 48.4 166.48 48.38 167.75 48.37 169.02 48.35 170.29 48.33 171.55 48.32 172.82 48.31 174.09 48.3 175.36 48.3 176.62 48.3 177.89 48.3 179.16 48.3 180.43 48.31 181.69 48.32 182.96 48.33"/>
  </g>
  <g class="cls-26">
    <polyline class="cls-3" points="21.96 21.78 23.23 21.81 24.5 21.9 25.77 22.05 27.03 22.24 28.3 22.49 29.57 22.8 30.84 23.14 32.1 23.53 33.37 23.96 34.64 24.41 35.91 24.9 37.17 25.42 38.44 25.96 39.71 26.52 40.98 27.09 42.25 27.68 43.51 28.27 44.78 28.87 46.05 29.47 47.32 30.08 48.58 30.68 49.85 31.28 51.12 31.87 52.39 32.22 53.65 31.9 54.92 31.6 56.19 31.33 57.46 31.08 58.73 30.88 59.99 30.7 61.26 30.56 62.53 30.46 63.8 30.39 65.07 30.36 66.33 30.38 67.6 30.43 68.87 30.52 70.14 30.65 71.4 30.82 72.67 31.03 73.94 31.26 75.21 31.53 76.48 31.83 77.74 32.16 79.01 32.52 80.28 32.89 81.55 33.29 82.82 33.7 84.08 34.13 85.35 34.57 86.62 35.03 87.89 35.49 89.15 35.96 90.42 36.43 91.69 36.91 94.23 37.86 95.49 38.34 96.76 38.25 98.03 38.06 99.3 37.88 100.56 37.7 101.83 37.53 103.1 37.37 104.37 37.21 105.63 37.08 106.9 36.96 108.17 36.85 109.44 36.76 110.7 36.7 111.97 36.65 113.24 36.62 114.51 36.61 115.78 36.62 117.04 36.65 118.31 36.71 119.58 36.78 120.85 36.87 122.11 36.97 123.38 37.09 124.65 37.23 125.92 37.38 127.18 37.55 128.45 37.72 129.72 37.91 130.99 38.1 132.26 38.31 133.52 38.52 134.79 38.74 136.06 38.96 137.33 39.19 138.59 39.42 139.86 39.66 141.13 39.89 142.4 40.13 143.66 40.37 144.93 40.61 146.2 40.85 148.74 41.33 150 41.56 151.27 41.8 152.54 42.03 153.81 42.26 155.07 42.48 156.34 42.71 157.61 42.92 158.88 43.14 160.14 43.35 161.41 43.56 162.68 43.77 165.22 44.17 166.48 44.36 167.75 44.55 169.02 44.73 170.29 44.92 171.55 45.09 172.82 45.26 174.09 45.44 175.36 45.6 176.62 45.76 177.89 45.92 179.16 46.08 180.43 46.22 181.69 46.37 182.96 46.52"/>
  </g>
  <text class="cls-8" transform="translate(26.79 15.88)"><tspan x="0" y="0">d</tspan></text>
  <path class="cls-12" d="M151.99,19.2l-.34,1.34c-.03.13-.08.34-.1.36-.03.03-.05.04-.09.04s-.11,0-.11-.1c0-.03.09-.37.2-.79l.21-.85c-1.1-.06-1.73-.77-1.73-1.63,0-1.22,1.32-2.42,2.75-2.47l.52-2.08c.04-.15.05-.18.14-.18.11,0,.11.09.11.09l-.03.13-.5,2.04c1.25.09,1.73.92,1.73,1.63,0,1.21-1.31,2.42-2.75,2.47ZM150.61,17.75c0,.9.65,1.22,1.19,1.24l.93-3.7c-1.34.12-2.12,1.38-2.12,2.46ZM152.96,15.3l-.93,3.7c1.35-.11,2.12-1.4,2.12-2.46,0-.79-.51-1.21-1.2-1.24Z"/>
  <text class="cls-25" transform="translate(155.05 20.89)"><tspan x="0" y="0">e</tspan></text>
  <text class="cls-24" transform="translate(157.45 20.89)"><tspan x="0" y="0">xt</tspan></text>
  <text class="cls-15" transform="translate(164.2 19.09)"><tspan x="0" y="0">=</tspan></text>
  <path class="cls-12" d="M177.67,15.73h-1.03c-.1.47-.16.95-.16,1.43,0,.25,0,.84.26,1.49.05.13.05.14.05.2,0,.18-.19.34-.37.34-.14,0-.23-.05-.32-.45-.07-.31-.07-.55-.07-.68,0-.6.08-.99.38-2.32h-1.02l-.5,1.99c-.12.45-.12.47-.24.88-.11.33-.18.59-.45.59-.12,0-.26-.07-.26-.24,0-.06,0-.08.07-.22.38-.82.86-1.91,1.15-3h-.51c-.18,0-.7,0-1.14.69-.05.07-.07.11-.14.11-.11,0-.11-.09-.11-.09,0-.05.23-.46.55-.81.4-.42.74-.42.94-.42h3.02c.17,0,.36,0,.36.22,0,.31-.32.31-.44.31Z"/>
  <text class="cls-13" transform="translate(268.86 165.43)"><tspan x="0" y="0">g</tspan></text>
  <text class="cls-21" transform="translate(272.54 165.43)"><tspan x="0" y="0">/</tspan></text>
  <path class="cls-12" d="M281.18,163.52c-.24.97-.74,2-1.58,2-.54,0-.82-.35-.9-.85-.3.5-.72.85-1.22.85-.61,0-.84-.5-.84-1.14,0-.28.04-.59.12-.9.13-.5.33-1.02.66-1.47.04-.05.1-.07.14-.07.02,0,.05,0,.07.02.04.02.07.06.07.11,0,.03-.02.07-.04.1-.3.42-.59.87-.71,1.35-.04.18-.06.36-.06.52,0,.5.21.9.7.9.44,0,.82-.31,1.09-.74,0-.23.04-.47.1-.72.04-.18.12-.38.27-.38.11,0,.15.09.15.21,0,.06-.02.14-.03.21-.06.24-.14.48-.24.7.07.42.34.72.78.72.63,0,1.1-.74,1.28-1.46.02-.1.03-.2.03-.3,0-.28-.1-.53-.3-.7-.06-.06-.09-.12-.09-.2,0-.09.04-.18.11-.26.08-.08.18-.13.28-.13.07,0,.14.02.18.07.12.1.16.28.16.49,0,.32-.1.72-.18,1.06Z"/>
  <text class="cls-9" transform="translate(281.86 167.03)"><tspan x="0" y="0">c</tspan></text>
  <text class="cls-21" transform="translate(190.85 156.43)"><tspan x="0" y="0">0.</tspan><tspan class="cls-65" x="6.22" y="0">0</tspan><tspan x="40.24" y="0">0.</tspan><tspan class="cls-63" x="46.46" y="0">5</tspan><tspan x="80.49" y="0">1.0</tspan></text>
  <text class="cls-21" transform="translate(311.6 156.43)"><tspan x="0" y="0">1.</tspan><tspan class="cls-63" x="6.22" y="0">5</tspan><tspan x="40.25" y="0">2.</tspan></text>
  <text class="cls-19" transform="translate(358.08 156.43)"><tspan x="0" y="0">0</tspan></text>
  <g class="cls-30">
    <line class="cls-2" x1="195.96" y1="144.28" x2="356.96" y2="144.28"/>
  </g>
  <g class="cls-27">
    <polyline class="cls-2" points="195.96 126.78 197.23 126.79 198.5 126.82 199.77 126.86 201.03 126.92 202.3 126.99 203.57 127.08 204.84 127.19 206.1 127.31 207.37 127.44 208.64 127.59 209.91 127.75 211.17 127.92 212.44 128.11 213.71 128.3 214.98 128.5 216.25 128.71 217.51 128.93 218.78 129.15 220.05 129.38 221.32 129.62 222.58 129.85 223.85 130.09 225.12 130.33 226.39 130.58 227.65 130.82 228.92 131.07 230.19 131.31 231.46 131.55 232.73 131.79 233.99 132.03 235.26 132.26 236.53 132.49 237.8 132.71 239.07 132.92 240.33 133.14 241.6 133.34 242.87 133.54 244.14 133.74 245.4 133.92 246.67 134.1 247.94 134.27 249.21 134.43 250.48 134.58 251.74 134.73 253.01 134.87 254.28 135 255.55 135.12 256.82 135.24 258.08 135.35 259.35 135.44 260.62 135.54 261.89 135.62 263.15 135.7 264.42 135.77 265.69 135.84 266.96 135.9 268.23 135.96 269.49 136 270.76 136.05 272.03 136.09 273.3 136.12 274.56 136.15 275.83 136.18 277.1 136.21 278.37 136.23 279.63 136.25 280.9 136.27 282.17 136.28 283.44 136.3 284.7 136.31 287.24 136.32 288.51 136.33 289.78 136.33 291.04 136.34 292.31 136.35 293.58 136.35 294.85 136.35 296.11 136.35 311.33 136.35 312.59 136.35 316.4 136.35 317.66 136.35 320.2 136.35 321.47 136.34 325.27 136.34 326.54 136.34 330.34 136.34 331.61 136.33 335.41 136.33 336.68 136.33 340.48 136.33 341.75 136.33 345.55 136.33 346.82 136.32 351.89 136.32 353.16 136.32 356.96 136.32"/>
  </g>
  <g class="cls-47">
    <polyline class="cls-2" points="195.96 91.78 197.23 91.78 198.5 91.74 199.77 91.7 201.03 91.63 202.3 91.55 203.57 91.45 204.84 91.33 206.1 91.2 207.37 91.06 208.64 90.9 209.91 90.74 211.17 90.56 212.44 90.38 213.71 90.19 214.98 90 216.25 89.81 217.51 89.63 218.78 89.45 220.05 89.28 221.32 89.13 222.58 89 223.85 88.89 225.12 88.8 226.39 88.75 227.65 88.73 228.92 88.75 230.19 88.81 231.46 88.9 232.73 89.03 233.99 89.19 235.26 89.38 236.53 89.59 237.8 89.82 239.07 90.06 240.33 90.32 241.6 90.58 242.87 90.84 244.14 91.1 245.4 91.36 246.67 91.62 247.94 91.87 249.21 92.11 250.48 92.35 251.74 92.57 253.01 92.78 254.28 92.99 255.55 93.18 256.82 93.36 258.08 93.53 259.35 93.69 260.62 93.84 261.89 93.97 263.15 94.1 264.42 94.21 265.69 94.31 266.96 94.4 268.23 94.49 269.49 94.56 270.76 94.63 272.03 94.69 273.3 94.74 274.56 94.78 275.83 94.81 277.1 94.85 278.37 94.87 279.63 94.89 280.9 94.91 282.17 94.92 283.44 94.94 284.7 94.95 287.24 94.96 288.51 94.97 289.78 94.97 291.04 94.98 292.31 94.99 293.58 95 294.85 95.01 296.11 95.02 297.38 95.04 298.65 95.05 299.92 95.07 301.18 95.09 302.45 95.11 303.72 95.14 304.99 95.16 306.26 95.19 307.52 95.22 308.79 95.26 310.06 95.29 311.33 95.33 312.59 95.37 313.86 95.41 315.13 95.45 316.4 95.5 317.66 95.55 318.93 95.59 320.2 95.64 322.74 95.74 324 95.8 325.27 95.85 326.54 95.9 327.81 95.96 329.07 96.02 330.34 96.08 331.61 96.14 332.88 96.19 334.14 96.25 335.41 96.31 336.68 96.37 337.95 96.44 339.22 96.49 340.48 96.56 341.75 96.62 343.02 96.68 344.29 96.75 345.55 96.81 346.82 96.87 348.09 96.94 349.36 97 350.62 97.07 351.89 97.14 353.16 97.2 354.43 97.26 355.69 97.33 356.96 97.4"/>
  </g>
  <g class="cls-48">
    <polyline class="cls-2" points="195.96 74.28 197.23 74.3 198.5 74.36 199.77 74.45 201.03 74.58 202.3 74.74 203.57 74.94 204.84 75.17 206.1 75.42 207.37 75.7 208.64 76 209.91 76.32 211.17 76.66 212.44 77.01 213.71 77.37 214.98 77.73 216.25 78.1 217.51 78.47 218.78 78.83 220.05 79.18 221.32 79.51 222.58 79.83 223.85 80.13 225.12 80.4 226.39 80.64 227.65 80.85 228.92 81.02 230.19 81.16 231.46 81.26 232.73 81.33 233.99 81.37 235.26 81.39 236.53 81.39 237.8 81.37 239.07 81.35 240.33 81.32 241.6 81.3 242.87 81.27 244.14 81.25 245.4 81.24 246.67 81.24 247.94 81.26 249.21 81.28 250.48 81.32 251.74 81.37 253.01 81.43 254.28 81.5 255.55 81.59 256.82 81.69 258.08 81.8 259.35 81.92 260.62 82.05 261.89 82.19 263.15 82.33 264.42 82.48 265.69 82.64 266.96 82.8 268.23 82.96 269.49 83.13 270.76 83.3 272.03 83.46 273.3 83.63 274.56 83.8 275.83 83.97 277.1 84.13 278.37 84.3 279.63 84.46 280.9 84.62 282.17 84.77 283.44 84.92 284.7 85.06 285.97 85.21 287.24 85.35 288.51 85.48 289.78 85.61 291.04 85.74 292.31 85.86 293.58 85.97 294.85 86.08 296.11 86.19 297.38 86.3 298.65 86.39 299.92 86.49 301.18 86.58 303.72 86.75 304.99 86.83 306.26 86.91 307.52 86.99 308.79 87.06 310.06 87.14 311.33 87.21 312.59 87.27 313.86 87.34 315.13 87.4 316.4 87.47 317.66 87.53 318.93 87.6 320.2 87.66 321.47 87.72 322.74 87.78 324 87.84 325.27 87.9 326.54 87.96 327.81 88.02 329.07 88.08 330.34 88.14 331.61 88.21 332.88 88.27 334.14 88.33 335.41 88.39 336.68 88.45 339.22 88.57 340.48 88.64 341.75 88.7 343.02 88.76 344.29 88.82 345.55 88.89 346.82 88.95 348.09 89.01 349.36 89.08 350.62 89.14 351.89 89.21 353.16 89.27 354.43 89.33 355.69 89.4 356.96 89.46"/>
  </g>
  <g class="cls-49">
    <polyline class="cls-2" points="195.96 39.28 197.23 39.26 198.5 39.21 199.77 39.12 201.03 38.99 202.3 38.82 203.57 38.63 204.84 38.41 206.1 38.17 207.37 37.91 208.64 37.64 209.91 37.36 211.17 37.07 212.44 36.8 213.71 36.53 214.98 36.29 216.25 36.08 217.51 35.91 218.78 35.79 220.05 35.73 221.32 35.74 222.58 35.81 223.85 35.94 225.12 36.13 226.39 36.36 227.65 36.63 228.92 36.92 230.19 37.23 232.73 37.85 233.99 38.15 235.26 38.44 236.53 38.71 237.8 38.97 239.07 39.19 240.33 39.4 241.6 39.58 242.87 39.73 244.14 39.86 245.4 39.96 246.67 40.05 247.94 40.1 249.21 40.14 250.48 40.16 251.74 40.17 253.01 40.18 255.55 40.18 256.82 40.19 258.08 40.21 259.35 40.25 260.62 40.31 261.89 40.4 263.15 40.52 264.42 40.66 265.69 40.83 266.96 41.03 268.23 41.24 269.49 41.47 270.76 41.71 272.03 41.97 273.3 42.23 274.56 42.49 275.83 42.76 277.1 43.03 278.37 43.3 279.63 43.55 280.9 43.81 282.17 44.06 283.44 44.3 284.7 44.53 285.97 44.76 287.24 44.97 288.51 45.17 289.78 45.37 291.04 45.56 292.31 45.73 293.58 45.9 294.85 46.06 296.11 46.21 297.38 46.35 298.65 46.47 299.92 46.6 301.18 46.71 302.45 46.82 303.72 46.92 304.99 47.01 306.26 47.1 307.52 47.18 308.79 47.26 310.06 47.33 311.33 47.41 312.59 47.47 313.86 47.55 315.13 47.61 316.4 47.67 317.66 47.74 318.93 47.8 320.2 47.87 322.74 48 324 48.07 325.27 48.14 326.54 48.22 327.81 48.29 329.07 48.37 330.34 48.45 331.61 48.54 332.88 48.62 334.14 48.71 335.41 48.81 336.68 48.9 337.95 49 339.22 49.1 340.48 49.21 341.75 49.31 343.02 49.42 344.29 49.53 345.55 49.65 346.82 49.76 348.09 49.88 349.36 49.99 350.62 50.12 351.89 50.24 353.16 50.36 354.43 50.48 355.69 50.61 356.96 50.74"/>
  </g>
  <g class="cls-50">
    <polyline class="cls-2" points="195.96 21.78 197.23 21.81 198.5 21.9 199.77 22.05 201.03 22.24 202.3 22.49 203.57 22.78 204.84 23.12 206.1 23.49 207.37 23.89 208.64 24.31 209.91 24.75 211.17 25.19 212.44 25.64 213.71 26.07 214.98 26.49 216.25 26.89 217.51 27.24 218.78 27.55 220.05 27.81 221.32 28.01 222.58 28.15 223.85 28.24 225.12 28.29 226.39 28.3 227.65 28.28 228.92 28.26 230.19 28.23 231.46 28.21 232.73 28.2 233.99 28.22 235.26 28.25 236.53 28.32 237.8 28.41 239.07 28.54 240.33 28.69 241.6 28.87 242.87 29.07 244.14 29.3 245.4 29.55 246.67 29.81 247.94 30.09 249.21 30.38 250.48 30.67 251.74 30.96 253.01 31.24 254.28 31.51 255.55 31.77 256.82 32.01 258.08 32.22 259.35 32.41 260.62 32.56 261.89 32.68 263.15 32.77 264.42 32.82 265.69 32.85 266.96 32.85 268.23 32.84 269.49 32.81 270.76 32.78 272.03 32.74 273.3 32.7 274.56 32.67 275.83 32.65 277.1 32.64 278.37 32.64 279.63 32.66 280.9 32.69 282.17 32.75 283.44 32.82 284.7 32.9 285.97 33.01 287.24 33.13 288.51 33.26 289.78 33.41 291.04 33.57 292.31 33.75 293.58 33.93 294.85 34.13 296.11 34.33 297.38 34.54 298.65 34.76 299.92 34.97 301.18 35.2 303.72 35.65 304.99 35.89 306.26 36.12 307.52 36.35 308.79 36.57 310.06 36.8 311.33 37.02 312.59 37.24 313.86 37.46 315.13 37.67 316.4 37.88 317.66 38.09 318.93 38.29 320.2 38.49 321.47 38.68 322.74 38.87 324 39.05 325.27 39.23 326.54 39.4 327.81 39.57 329.07 39.74 330.34 39.9 331.61 40.06 332.88 40.21 334.14 40.37 335.41 40.51 336.68 40.66 337.95 40.81 339.22 40.95 340.48 41.09 341.75 41.22 343.02 41.36 344.29 41.5 345.55 41.63 346.82 41.77 348.09 41.9 349.36 42.03 350.62 42.16 351.89 42.3 353.16 42.42 354.43 42.56 355.69 42.69 356.96 42.82"/>
  </g>
  <g class="cls-51">
    <polyline class="cls-2" points="352.75 4.28 353.16 4.33 354.43 4.47 355.69 4.62 356.96 4.77"/>
  </g>
  <g class="cls-52">
    <line class="cls-4" x1="195.96" y1="144.28" x2="356.96" y2="144.28"/>
  </g>
  <g class="cls-45">
    <polyline class="cls-4" points="195.96 126.78 197.23 126.79 198.5 126.81 199.77 126.86 201.03 126.92 202.3 126.99 203.57 127.08 204.84 127.18 206.1 127.3 207.37 127.43 208.64 127.58 209.91 127.73 211.17 127.9 212.44 128.08 213.71 128.27 214.98 128.47 216.25 128.68 217.51 128.89 218.78 129.12 220.05 129.34 221.32 129.57 222.58 129.81 223.85 130.05 225.12 130.29 226.39 130.53 227.65 130.78 228.92 131.02 230.19 131.26 232.73 131.75 233.99 131.98 235.26 132.22 236.53 132.45 237.8 132.67 239.07 132.9 240.33 133.11 241.6 133.32 242.87 133.52 244.14 133.72 245.4 133.91 246.67 134.09 247.94 134.26 249.21 134.43 250.48 134.59 251.74 134.74 253.01 134.88 254.28 135.01 255.55 135.14 256.82 135.25 258.08 135.36 259.35 135.46 260.62 135.56 261.89 135.64 263.15 135.72 264.42 135.8 265.69 135.86 266.96 135.92 268.23 135.97 269.49 136.02 270.76 136.06 272.03 136.1 273.3 136.14 274.56 136.17 275.83 136.2 277.1 136.22 278.37 136.24 279.63 136.26 280.9 136.27 282.17 136.29 283.44 136.3 284.7 136.31 285.97 136.31 287.24 136.32 288.51 136.33 289.78 136.33 291.04 136.33 292.31 136.33 294.85 136.33 296.11 136.34 297.38 136.34 298.65 136.33 302.45 136.33 303.72 136.33 304.99 136.33 306.26 136.33 307.52 136.33 308.79 136.32 310.06 136.32 311.33 136.32 312.59 136.32 313.86 136.31 315.13 136.31 316.4 136.31 317.66 136.31 318.93 136.31 320.2 136.3 321.47 136.3 322.74 136.3 324 136.3 325.27 136.3 326.54 136.29 327.81 136.29 329.07 136.29 330.34 136.28 331.61 136.28 332.88 136.28 334.14 136.28 335.41 136.28 336.68 136.27 337.95 136.27 339.22 136.27 340.48 136.26 341.75 136.26 343.02 136.26 344.29 136.26 345.55 136.26 346.82 136.25 348.09 136.25 349.36 136.25 350.62 136.24 351.89 136.24 353.16 136.24 354.43 136.24 355.69 136.24 356.96 136.23"/>
  </g>
  <g class="cls-43">
    <polyline class="cls-4" points="195.96 91.78 197.23 91.78 198.5 91.74 199.77 91.7 201.03 91.63 202.3 91.55 203.57 91.44 204.84 91.32 206.1 91.19 207.37 91.04 208.64 90.87 209.91 90.7 211.17 90.52 212.44 90.33 213.71 90.13 214.98 89.93 216.25 89.73 217.51 89.53 218.78 89.33 220.05 89.15 221.32 88.98 222.58 88.83 223.85 88.69 225.12 88.58 226.39 88.51 227.65 88.46 228.92 88.45 230.19 88.47 231.46 88.54 232.73 88.64 233.99 88.76 235.26 88.92 236.53 89.1 237.8 89.3 239.07 89.51 240.33 89.73 241.6 89.96 242.87 90.19 244.14 90.42 245.4 90.65 246.67 90.88 247.94 91.1 249.21 91.3 250.48 91.5 251.74 91.69 253.01 91.87 254.28 92.04 255.55 92.19 256.82 92.33 258.08 92.46 259.35 92.58 260.62 92.68 261.89 92.77 263.15 92.85 264.42 92.91 265.69 92.97 266.96 93.01 268.23 93.04 269.49 93.06 270.76 93.08 272.03 93.08 273.3 93.07 274.56 93.06 275.83 93.04 277.1 93.02 278.37 92.99 279.63 92.95 280.9 92.91 282.17 92.87 283.44 92.82 284.7 92.78 285.97 92.73 287.24 92.68 288.51 92.63 289.78 92.58 291.04 92.53 292.31 92.49 293.58 92.44 294.85 92.4 296.11 92.35 297.38 92.31 298.65 92.28 299.92 92.24 301.18 92.21 303.72 92.15 304.99 92.12 306.26 92.1 307.52 92.07 308.79 92.05 310.06 92.03 311.33 92.01 312.59 92 313.86 91.99 315.13 91.97 316.4 91.96 317.66 91.95 318.93 91.94 320.2 91.93 322.74 91.92 324 91.91 325.27 91.9 326.54 91.9 327.81 91.89 329.07 91.89 330.34 91.89 331.61 91.88 332.88 91.88 334.14 91.87 335.41 91.87 336.68 91.87 339.22 91.86 340.48 91.86 341.75 91.86 343.02 91.86 344.29 91.85 345.55 91.85 346.82 91.85 349.36 91.85 350.62 91.85 353.16 91.85 354.43 91.84 356.96 91.84"/>
  </g>
  <g class="cls-46">
    <polyline class="cls-4" points="195.96 74.28 197.23 74.3 198.5 74.35 199.77 74.44 201.03 74.57 202.3 74.72 203.57 74.91 204.84 75.13 206.1 75.37 207.37 75.64 208.64 75.92 209.91 76.23 211.17 76.55 212.44 76.89 213.71 77.22 214.98 77.57 216.25 77.92 217.51 78.27 218.78 78.62 220.05 78.95 221.32 79.27 222.58 79.57 223.85 79.85 225.12 80.11 226.39 80.34 227.65 80.53 228.92 80.69 230.19 80.81 231.46 80.9 232.73 80.95 233.99 80.97 235.26 80.97 236.53 80.96 237.8 80.92 239.07 80.87 240.33 80.82 241.6 80.77 242.87 80.72 244.14 80.67 245.4 80.63 246.67 80.6 247.94 80.58 249.21 80.57 250.48 80.58 251.74 80.59 253.01 80.62 254.28 80.66 255.55 80.71 256.82 80.78 258.08 80.85 259.35 80.93 260.62 81.03 261.89 81.12 263.15 81.23 264.42 81.34 265.69 81.46 266.96 81.57 268.23 81.69 269.49 81.82 270.76 81.94 272.03 82.06 273.3 82.19 274.56 82.31 275.83 82.43 277.1 82.54 278.37 82.65 279.63 82.76 280.9 82.87 282.17 82.97 283.44 83.06 284.7 83.15 285.97 83.24 287.24 83.31 288.51 83.39 289.78 83.46 291.04 83.52 292.31 83.58 293.58 83.63 294.85 83.68 296.11 83.72 297.38 83.76 298.65 83.79 299.92 83.82 301.18 83.84 303.72 83.88 304.99 83.9 306.26 83.91 307.52 83.92 308.79 83.92 310.06 83.93 311.33 83.93 312.59 83.94 315.13 83.94 316.4 83.93 317.66 83.93 318.93 83.93 320.2 83.92 322.74 83.92 324 83.91 325.27 83.91 326.54 83.9 327.81 83.9 329.07 83.89 330.34 83.89 331.61 83.88 332.88 83.88 334.14 83.87 335.41 83.87 336.68 83.86 339.22 83.85 340.48 83.85 341.75 83.84 343.02 83.84 344.29 83.83 345.55 83.83 346.82 83.83 348.09 83.82 349.36 83.82 350.62 83.81 351.89 83.81 353.16 83.81 354.43 83.8 355.69 83.8 356.96 83.8"/>
  </g>
  <g class="cls-44">
    <polyline class="cls-4" points="195.96 39.28 197.23 39.26 198.5 39.21 199.77 39.11 201.03 38.98 202.3 38.81 203.57 38.61 204.84 38.39 206.1 38.14 207.37 37.87 208.64 37.58 209.91 37.28 211.17 36.98 212.44 36.68 213.71 36.39 214.98 36.12 216.25 35.88 217.51 35.67 218.78 35.51 220.05 35.41 221.32 35.37 222.58 35.39 223.85 35.47 225.12 35.61 226.39 35.79 227.65 36.01 228.92 36.25 230.19 36.51 232.73 37.03 233.99 37.28 235.26 37.52 236.53 37.74 237.8 37.94 239.07 38.12 240.33 38.27 241.6 38.39 242.87 38.49 244.14 38.56 245.4 38.61 246.67 38.63 247.94 38.62 249.21 38.6 250.48 38.55 251.74 38.49 253.01 38.43 254.28 38.36 255.55 38.29 256.82 38.22 258.08 38.17 259.35 38.13 260.62 38.12 261.89 38.12 263.15 38.15 264.42 38.21 265.69 38.3 266.96 38.4 268.23 38.53 269.49 38.66 270.76 38.81 272.03 38.97 273.3 39.13 274.56 39.3 275.83 39.46 277.1 39.62 278.37 39.77 279.63 39.92 280.9 40.06 282.17 40.19 283.44 40.31 284.7 40.42 285.97 40.52 287.24 40.61 288.51 40.69 289.78 40.75 291.04 40.81 292.31 40.85 293.58 40.88 294.85 40.9 296.11 40.9 297.38 40.9 298.65 40.9 299.92 40.88 301.18 40.85 302.45 40.82 303.72 40.78 304.99 40.73 306.26 40.68 307.52 40.63 308.79 40.57 310.06 40.51 311.33 40.46 312.59 40.39 313.86 40.33 315.13 40.27 316.4 40.21 317.66 40.15 318.93 40.1 320.2 40.05 322.74 39.94 324 39.9 325.27 39.86 326.54 39.81 327.81 39.78 329.07 39.74 330.34 39.71 331.61 39.68 332.88 39.66 334.14 39.63 335.41 39.61 336.68 39.59 337.95 39.57 339.22 39.56 340.48 39.54 341.75 39.53 343.02 39.51 344.29 39.5 345.55 39.49 346.82 39.49 348.09 39.47 349.36 39.47 350.62 39.46 351.89 39.46 353.16 39.45 354.43 39.44 355.69 39.44 356.96 39.44"/>
  </g>
  <g class="cls-41">
    <polyline class="cls-4" points="195.96 21.78 197.23 21.81 198.5 21.89 199.77 22.03 201.03 22.22 202.3 22.45 203.57 22.73 204.84 23.05 206.1 23.4 207.37 23.77 208.64 24.17 209.91 24.58 211.17 25 212.44 25.42 213.71 25.83 214.98 26.22 216.25 26.59 217.51 26.92 218.78 27.21 220.05 27.44 221.32 27.62 222.58 27.73 223.85 27.8 225.12 27.81 226.39 27.78 227.65 27.73 228.92 27.66 230.19 27.58 231.46 27.51 232.73 27.46 233.99 27.42 235.26 27.4 236.53 27.4 237.8 27.44 239.07 27.5 240.33 27.58 241.6 27.7 242.87 27.84 244.14 28 245.4 28.18 246.67 28.38 247.94 28.58 249.21 28.8 250.48 29.02 251.74 29.24 253.01 29.45 254.28 29.65 255.55 29.83 256.82 30 258.08 30.14 259.35 30.24 260.62 30.32 261.89 30.36 263.15 30.37 264.42 30.35 265.69 30.3 266.96 30.22 268.23 30.13 269.49 30.02 270.76 29.91 272.03 29.79 273.3 29.67 274.56 29.56 275.83 29.46 277.1 29.37 278.37 29.29 279.63 29.22 280.9 29.18 282.17 29.14 283.44 29.13 284.7 29.13 285.97 29.14 287.24 29.17 288.51 29.21 289.78 29.27 291.04 29.33 292.31 29.4 293.58 29.49 294.85 29.58 296.11 29.67 297.38 29.77 298.65 29.87 299.92 29.97 301.18 30.08 302.45 30.18 303.72 30.29 304.99 30.39 306.26 30.49 307.52 30.58 308.79 30.67 310.06 30.76 311.33 30.85 312.59 30.92 313.86 30.99 315.13 31.06 316.4 31.12 317.66 31.18 318.93 31.23 320.2 31.27 321.47 31.31 322.74 31.35 324 31.38 325.27 31.4 326.54 31.42 327.81 31.44 329.07 31.46 330.34 31.46 331.61 31.47 332.88 31.48 334.14 31.48 336.68 31.48 339.22 31.47 340.48 31.47 341.75 31.47 343.02 31.46 344.29 31.46 345.55 31.45 346.82 31.44 348.09 31.44 349.36 31.43 350.62 31.42 351.89 31.42 353.16 31.41 354.43 31.4 355.69 31.4 356.96 31.39"/>
  </g>
  <g class="cls-36">
    <line class="cls-3" x1="195.96" y1="144.28" x2="356.96" y2="144.28"/>
  </g>
  <g class="cls-37">
    <polyline class="cls-3" points="195.96 126.78 197.23 126.79 198.5 126.82 199.77 126.86 201.03 126.92 202.3 126.99 203.57 127.08 204.84 127.19 206.1 127.31 207.37 127.44 208.64 127.59 209.91 127.75 211.17 127.92 212.44 128.11 213.71 128.3 214.98 128.5 216.25 128.71 217.51 128.93 218.78 129.15 220.05 129.39 221.32 129.62 222.58 129.85 223.85 130.1 225.12 130.34 226.39 130.58 227.65 130.83 228.92 131.07 230.19 131.31 231.46 131.56 232.73 131.8 233.99 132.03 235.26 132.26 236.53 132.49 237.8 132.72 239.07 132.94 240.33 133.15 241.6 133.35 242.87 133.55 244.14 133.75 245.4 133.93 246.67 134.11 247.94 134.28 249.21 134.44 250.48 134.6 251.74 134.74 253.01 134.89 254.28 135.01 255.55 135.14 256.82 135.25 258.08 135.36 259.35 135.46 260.62 135.55 261.89 135.64 263.15 135.72 264.42 135.79 265.69 135.85 266.96 135.91 268.23 135.97 269.49 136.02 270.76 136.06 272.03 136.1 273.3 136.14 274.56 136.17 275.83 136.2 277.1 136.22 278.37 136.24 279.63 136.26 280.9 136.28 282.17 136.3 283.44 136.31 284.7 136.32 287.24 136.33 288.51 136.34 289.78 136.35 291.04 136.35 292.31 136.36 293.58 136.36 294.85 136.36 296.11 136.37 297.38 136.37 298.65 136.37 301.18 136.37 302.45 136.37 320.2 136.37 321.47 136.38 329.07 136.38 330.34 136.38 334.14 136.38 335.41 136.39 339.22 136.39 340.48 136.39 341.75 136.39 343.02 136.39 345.55 136.39 346.82 136.4 348.09 136.4 349.36 136.4 350.62 136.4 351.89 136.4 353.16 136.4 354.43 136.41 355.69 136.41 356.96 136.41"/>
  </g>
  <g class="cls-38">
    <polyline class="cls-3" points="195.96 91.78 197.23 91.78 198.5 91.74 199.77 91.7 201.03 91.63 202.3 91.55 203.57 91.45 204.84 91.33 206.1 91.2 207.37 91.06 208.64 90.9 209.91 90.74 211.17 90.56 212.44 90.38 213.71 90.19 214.98 90 216.25 89.81 217.51 89.63 218.78 89.45 220.05 89.28 221.32 89.13 222.58 88.99 223.85 88.89 225.12 88.8 226.39 88.75 227.65 88.73 228.92 88.75 230.19 88.81 231.46 88.9 232.73 89.03 233.99 89.2 235.26 89.39 236.53 89.6 237.8 89.83 239.07 90.08 240.33 90.33 241.6 90.59 242.87 90.85 244.14 91.12 245.4 91.38 246.67 91.63 247.94 91.88 249.21 92.12 250.48 92.36 251.74 92.58 253.01 92.8 254.28 93 255.55 93.19 256.82 93.37 258.08 93.54 259.35 93.69 260.62 93.83 261.89 93.97 263.15 94.09 264.42 94.2 265.69 94.3 266.96 94.39 268.23 94.47 269.49 94.54 270.76 94.6 272.03 94.65 273.3 94.69 274.56 94.73 275.83 94.76 277.1 94.79 278.37 94.81 279.63 94.83 280.9 94.84 282.17 94.85 283.44 94.85 284.7 94.86 285.97 94.86 287.24 94.86 288.51 94.87 289.78 94.87 291.04 94.87 292.31 94.87 293.58 94.88 294.85 94.88 296.11 94.89 297.38 94.9 298.65 94.91 299.92 94.92 301.18 94.94 302.45 94.95 303.72 94.97 304.99 94.99 306.26 95.01 307.52 95.04 308.79 95.07 310.06 95.1 311.33 95.13 312.59 95.16 313.86 95.2 315.13 95.23 316.4 95.27 317.66 95.31 318.93 95.35 320.2 95.39 322.74 95.47 324 95.52 325.27 95.56 326.54 95.61 327.81 95.65 329.07 95.7 330.34 95.75 331.61 95.8 332.88 95.84 334.14 95.89 335.41 95.94 336.68 95.99 337.95 96.04 339.22 96.09 340.48 96.14 341.75 96.19 343.02 96.23 344.29 96.28 345.55 96.33 346.82 96.38 348.09 96.43 349.36 96.48 350.62 96.53 351.89 96.58 353.16 96.63 354.43 96.68 355.69 96.73 356.96 96.78"/>
  </g>
  <g class="cls-39">
    <polyline class="cls-3" points="195.96 74.28 197.23 74.3 198.5 74.36 199.77 74.45 201.03 74.58 202.3 74.74 203.57 74.94 204.84 75.17 206.1 75.42 207.37 75.7 208.64 76 209.91 76.33 211.17 76.66 212.44 77.01 213.71 77.37 214.98 77.74 216.25 78.1 217.51 78.47 218.78 78.83 220.05 79.18 221.32 79.52 222.58 79.84 223.85 80.14 225.12 80.4 226.39 80.65 227.65 80.85 228.92 81.03 230.19 81.16 231.46 81.26 232.73 81.33 233.99 81.37 235.26 81.39 236.53 81.39 237.8 81.37 239.07 81.35 240.33 81.32 241.6 81.3 242.87 81.27 244.14 81.26 245.4 81.25 246.67 81.25 247.94 81.26 249.21 81.29 250.48 81.33 251.74 81.38 253.01 81.44 254.28 81.52 255.55 81.61 256.82 81.71 258.08 81.82 259.35 81.94 260.62 82.07 261.89 82.21 263.15 82.36 264.42 82.51 265.69 82.67 266.96 82.83 268.23 82.99 269.49 83.16 270.76 83.33 272.03 83.49 273.3 83.66 274.56 83.83 275.83 84 277.1 84.16 278.37 84.32 279.63 84.48 280.9 84.64 282.17 84.79 283.44 84.94 284.7 85.08 287.24 85.35 288.51 85.48 289.78 85.61 291.04 85.72 292.31 85.84 293.58 85.95 294.85 86.05 296.11 86.15 297.38 86.25 298.65 86.34 299.92 86.43 301.18 86.51 302.45 86.59 303.72 86.67 304.99 86.74 306.26 86.81 307.52 86.88 308.79 86.94 310.06 87.01 311.33 87.07 312.59 87.13 313.86 87.19 315.13 87.24 316.4 87.3 317.66 87.35 318.93 87.4 320.2 87.46 321.47 87.51 322.74 87.56 324 87.61 325.27 87.66 326.54 87.71 327.81 87.76 329.07 87.81 330.34 87.87 331.61 87.92 332.88 87.97 334.14 88.01 335.41 88.06 336.68 88.12 339.22 88.22 340.48 88.27 341.75 88.32 343.02 88.37 344.29 88.42 345.55 88.47 346.82 88.52 348.09 88.57 349.36 88.62 350.62 88.67 351.89 88.72 353.16 88.78 354.43 88.83 355.69 88.88 356.96 88.93"/>
  </g>
  <g class="cls-40">
    <polyline class="cls-3" points="195.96 39.28 197.23 39.26 198.5 39.21 199.77 39.12 201.03 38.99 202.3 38.82 203.57 38.63 204.84 38.41 206.1 38.17 207.37 37.91 208.64 37.64 209.91 37.36 211.17 37.07 212.44 36.8 213.71 36.53 214.98 36.29 216.25 36.08 217.51 35.91 218.78 35.79 220.05 35.73 221.32 35.74 222.58 35.81 223.85 35.94 225.12 36.13 226.39 36.37 227.65 36.64 228.92 36.93 230.19 37.24 231.46 37.55 232.73 37.86 233.99 38.16 235.26 38.45 236.53 38.72 237.8 38.97 239.07 39.2 240.33 39.4 241.6 39.58 242.87 39.73 244.14 39.86 245.4 39.96 246.67 40.04 247.94 40.09 249.21 40.13 250.48 40.15 251.74 40.15 255.55 40.15 256.82 40.16 258.08 40.19 259.35 40.23 260.62 40.29 261.89 40.38 263.15 40.5 264.42 40.64 265.69 40.81 266.96 41.01 268.23 41.22 269.49 41.45 270.76 41.7 272.03 41.95 273.3 42.21 274.56 42.47 275.83 42.73 277.1 42.99 278.37 43.25 279.63 43.5 280.9 43.74 282.17 43.98 283.44 44.21 284.7 44.43 285.97 44.64 287.24 44.84 288.51 45.03 289.78 45.21 291.04 45.38 292.31 45.53 293.58 45.68 294.85 45.82 296.11 45.94 297.38 46.06 298.65 46.17 299.92 46.27 301.18 46.36 302.45 46.44 303.72 46.52 304.99 46.59 306.26 46.65 307.52 46.71 308.79 46.77 310.06 46.82 311.33 46.87 312.59 46.91 313.86 46.96 315.13 47 316.4 47.04 317.66 47.08 318.93 47.13 320.2 47.17 322.74 47.26 324 47.31 325.27 47.37 326.54 47.42 327.81 47.48 329.07 47.54 330.34 47.6 331.61 47.66 332.88 47.73 334.14 47.8 335.41 47.87 336.68 47.95 339.22 48.1 340.48 48.19 341.75 48.27 343.02 48.35 344.29 48.44 345.55 48.53 346.82 48.62 348.09 48.71 349.36 48.8 350.62 48.89 351.89 48.98 353.16 49.07 354.43 49.16 355.69 49.26 356.96 49.35"/>
  </g>
  <g class="cls-42">
    <polyline class="cls-3" points="195.96 21.78 197.23 21.81 198.5 21.9 199.77 22.05 201.03 22.24 202.3 22.49 203.57 22.78 204.84 23.12 206.1 23.49 207.37 23.89 208.64 24.31 209.91 24.75 211.17 25.19 212.44 25.64 213.71 26.08 214.98 26.49 216.25 26.89 217.51 27.24 218.78 27.56 220.05 27.81 221.32 28.01 222.58 28.15 223.85 28.24 225.12 28.29 226.39 28.3 227.65 28.28 228.92 28.25 230.19 28.22 231.46 28.2 232.73 28.2 233.99 28.21 235.26 28.25 236.53 28.31 237.8 28.41 239.07 28.53 240.33 28.69 241.6 28.87 242.87 29.08 244.14 29.3 245.4 29.55 246.67 29.82 247.94 30.1 249.21 30.39 250.48 30.68 251.74 30.97 253.01 31.25 254.28 31.52 255.55 31.78 256.82 32.01 258.08 32.22 259.35 32.4 260.62 32.55 261.89 32.66 263.15 32.74 264.42 32.79 265.69 32.81 266.96 32.81 268.23 32.79 269.49 32.76 270.76 32.72 272.03 32.67 273.3 32.64 274.56 32.6 275.83 32.58 277.1 32.57 278.37 32.58 279.63 32.6 280.9 32.64 282.17 32.69 283.44 32.76 284.7 32.85 285.97 32.96 287.24 33.08 288.51 33.22 289.78 33.37 291.04 33.53 292.31 33.71 293.58 33.89 294.85 34.08 296.11 34.28 297.38 34.48 298.65 34.69 299.92 34.9 301.18 35.12 303.72 35.56 304.99 35.77 306.26 35.99 307.52 36.2 308.79 36.41 310.06 36.62 311.33 36.82 312.59 37.02 313.86 37.22 315.13 37.41 316.4 37.59 317.66 37.77 318.93 37.95 320.2 38.12 321.47 38.28 322.74 38.44 324 38.59 325.27 38.74 326.54 38.89 327.81 39.02 329.07 39.15 330.34 39.29 331.61 39.41 332.88 39.53 334.14 39.65 335.41 39.77 336.68 39.89 339.22 40.1 340.48 40.21 341.75 40.32 343.02 40.42 344.29 40.53 345.55 40.63 346.82 40.73 348.09 40.83 349.36 40.93 350.62 41.03 351.89 41.13 353.16 41.22 354.43 41.33 355.69 41.42 356.96 41.52"/>
  </g>
  <text class="cls-8" transform="translate(200.79 15.88)"><tspan x="0" y="0">e</tspan></text>
  <path class="cls-12" d="M315.69,18.62l-.34,1.34c-.03.13-.08.34-.1.36-.03.03-.05.04-.09.04s-.11,0-.11-.1c0-.03.09-.37.2-.79l.21-.85c-1.1-.06-1.73-.77-1.73-1.63,0-1.22,1.32-2.42,2.75-2.47l.52-2.08c.04-.15.05-.18.14-.18.11,0,.11.09.11.09l-.03.13-.5,2.04c1.25.09,1.73.92,1.73,1.63,0,1.21-1.31,2.42-2.75,2.47ZM314.31,17.18c0,.9.65,1.22,1.19,1.24l.93-3.7c-1.34.12-2.12,1.38-2.12,2.46ZM316.66,14.72l-.93,3.7c1.35-.11,2.12-1.4,2.12-2.46,0-.79-.51-1.21-1.2-1.24Z"/>
  <text class="cls-24" transform="translate(318.75 20.31)"><tspan x="0" y="0">ex</tspan></text>
  <text class="cls-23" transform="translate(324 20.31)"><tspan x="0" y="0">t</tspan></text>
  <text class="cls-14" transform="translate(327.9 18.51)"><tspan x="0" y="0">=</tspan></text>
  <text class="cls-16" transform="translate(337.67 14.6)"><tspan x="0" y="0">49</tspan></text>
  <text class="cls-14" transform="translate(337.76 24.67)"><tspan x="0" y="0">50</tspan></text>
  <path class="cls-12" d="M351.67,15.15h-1.03c-.1.47-.16.95-.16,1.43,0,.25,0,.84.26,1.49.05.13.05.14.05.2,0,.18-.19.34-.37.34-.14,0-.23-.05-.32-.45-.07-.31-.07-.55-.07-.68,0-.6.08-.99.38-2.32h-1.02l-.5,1.99c-.12.45-.12.47-.24.88-.11.33-.18.59-.45.59-.12,0-.26-.07-.26-.24,0-.06,0-.08.07-.22.38-.82.86-1.91,1.15-3h-.51c-.18,0-.7,0-1.14.69-.05.07-.07.11-.14.11-.11,0-.11-.09-.11-.09,0-.05.23-.46.55-.81.4-.42.74-.42.94-.42h3.02c.17,0,.36,0,.36.22,0,.31-.32.31-.44.31Z"/>
  <line class="cls-7" x1="336.7" y1="16.74" x2="347" y2="16.74"/>
  <line class="cls-5" x1="21.96" y1="144.64" x2="21.96" y2="147.64"/>
  <line class="cls-5" x1="62.21" y1="144.64" x2="62.21" y2="147.64"/>
  <line class="cls-5" x1="102.46" y1="144.64" x2="102.46" y2="147.64"/>
  <line class="cls-5" x1="142.71" y1="144.64" x2="142.71" y2="147.64"/>
  <line class="cls-5" x1="182.96" y1="144.64" x2="182.96" y2="147.64"/>
  <line class="cls-5" x1="21.61" y1="144.28" x2="18.61" y2="144.28"/>
  <line class="cls-5" x1="21.61" y1="109.28" x2="18.61" y2="109.28"/>
  <line class="cls-5" x1="21.61" y1="74.28" x2="18.61" y2="74.28"/>
  <line class="cls-5" x1="21.61" y1="39.28" x2="18.61" y2="39.28"/>
  <line class="cls-5" x1="21.61" y1="4.28" x2="18.61" y2="4.28"/>
  <line class="cls-5" x1="195.96" y1="144.64" x2="195.96" y2="147.64"/>
  <line class="cls-5" x1="236.21" y1="144.64" x2="236.21" y2="147.64"/>
  <line class="cls-5" x1="276.46" y1="144.64" x2="276.46" y2="147.64"/>
  <line class="cls-5" x1="316.71" y1="144.64" x2="316.71" y2="147.64"/>
  <line class="cls-5" x1="356.96" y1="144.64" x2="356.96" y2="147.64"/>
  <line class="cls-5" x1="195.61" y1="144.28" x2="192.61" y2="144.28"/>
  <line class="cls-5" x1="195.61" y1="109.28" x2="192.61" y2="109.28"/>
  <line class="cls-5" x1="195.61" y1="74.28" x2="192.61" y2="74.28"/>
  <line class="cls-5" x1="195.61" y1="39.28" x2="192.61" y2="39.28"/>
  <line class="cls-5" x1="195.61" y1="4.28" x2="192.61" y2="4.28"/>
  <line class="cls-2" x1="30.9" y1="122.28" x2="45.9" y2="122.28"/>
  <line class="cls-2" x1="30.9" y1="122.28" x2="45.9" y2="122.28"/>
  <line class="cls-2" x1="30.9" y1="122.28" x2="45.9" y2="122.28"/>
  <line class="cls-2" x1="30.9" y1="122.28" x2="45.9" y2="122.28"/>
  <line class="cls-2" x1="30.9" y1="122.28" x2="45.9" y2="122.28"/>
  <line class="cls-2" x1="30.9" y1="122.28" x2="45.9" y2="122.28"/>
  <line class="cls-2" x1="30.9" y1="122.28" x2="45.9" y2="122.28"/>
  <line class="cls-2" x1="30.9" y1="122.28" x2="45.9" y2="122.28"/>
  <line class="cls-2" x1="30.9" y1="122.28" x2="45.9" y2="122.28"/>
  <line class="cls-2" x1="30.9" y1="122.28" x2="45.9" y2="122.28"/>
  <line class="cls-4" x1="75.01" y1="122.28" x2="90.01" y2="122.28"/>
  <line class="cls-4" x1="75.01" y1="122.28" x2="90.01" y2="122.28"/>
  <line class="cls-4" x1="75.01" y1="122.28" x2="90.01" y2="122.28"/>
  <line class="cls-4" x1="75.01" y1="122.28" x2="90.01" y2="122.28"/>
  <line class="cls-4" x1="75.01" y1="122.28" x2="90.01" y2="122.28"/>
  <line class="cls-4" x1="75.01" y1="122.28" x2="90.01" y2="122.28"/>
  <line class="cls-4" x1="75.01" y1="122.28" x2="90.01" y2="122.28"/>
  <line class="cls-4" x1="75.01" y1="122.28" x2="90.01" y2="122.28"/>
  <line class="cls-4" x1="75.01" y1="122.28" x2="90.01" y2="122.28"/>
  <line class="cls-4" x1="75.01" y1="122.28" x2="90.01" y2="122.28"/>
  <line class="cls-3" x1="124.46" y1="122.28" x2="139.46" y2="122.28"/>
  <line class="cls-3" x1="124.46" y1="122.28" x2="139.46" y2="122.28"/>
  <line class="cls-3" x1="124.46" y1="122.28" x2="139.46" y2="122.28"/>
  <line class="cls-3" x1="124.46" y1="122.28" x2="139.46" y2="122.28"/>
  <line class="cls-3" x1="124.46" y1="122.28" x2="139.46" y2="122.28"/>
  <line class="cls-3" x1="124.46" y1="122.28" x2="139.46" y2="122.28"/>
  <line class="cls-3" x1="124.46" y1="122.28" x2="139.46" y2="122.28"/>
  <line class="cls-3" x1="124.46" y1="122.28" x2="139.46" y2="122.28"/>
  <line class="cls-3" x1="124.46" y1="122.28" x2="139.46" y2="122.28"/>
  <line class="cls-3" x1="124.46" y1="122.28" x2="139.46" y2="122.28"/>
  <text class="cls-17" transform="translate(50.9 124.73)"><tspan x="0" y="0">Ful</tspan><tspan class="cls-62" x="11.9" y="0">l</tspan><tspan x="44.12" y="0">Q</tspan></text>
  <text class="cls-18" transform="translate(101.24 124.73)"><tspan x="0" y="0">R</tspan></text>
  <text class="cls-17" transform="translate(107.13 124.73)"><tspan x="0" y="0">M</tspan></text>
  <text class="cls-17" transform="translate(144.46 119.93)"><tspan x="0" y="0">Renorm. </tspan></text>
  <text class="cls-21" transform="translate(144.46 129.53)"><tspan x="0" y="0" xml:space="preserve"> QRM</tspan></text>
  <line class="cls-6" x1="21.61" y1="144.28" x2="183.32" y2="144.28"/>
  <line class="cls-6" x1="21.96" y1="144.64" x2="21.96" y2="3.93"/>
  <line class="cls-6" x1="21.61" y1="4.28" x2="183.32" y2="4.28"/>
  <line class="cls-6" x1="182.96" y1="144.64" x2="182.96" y2="3.93"/>
  <line class="cls-6" x1="195.61" y1="144.28" x2="357.32" y2="144.28"/>
  <line class="cls-6" x1="195.96" y1="144.64" x2="195.96" y2="3.93"/>
  <line class="cls-6" x1="195.61" y1="4.28" x2="357.32" y2="4.28"/>
  <line class="cls-6" x1="356.96" y1="144.64" x2="356.96" y2="3.93"/>
</svg>