<?xml version="1.0" encoding="UTF-8"?>
<svg id="Livello_1" data-name="Livello 1" xmlns="http://www.w3.org/2000/svg" xmlns:xlink="http://www.w3.org/1999/xlink" viewBox="0 0 305.08 170.98">
  <defs>
    <style>
      .cls-1, .cls-2, .cls-3, .cls-4, .cls-5, .cls-6, .cls-7 {
        fill: none;
      }

      .cls-8 {
        letter-spacing: 7.41em;
      }

      .cls-9 {
        letter-spacing: 7.41em;
      }

      .cls-10, .cls-11, .cls-12, .cls-13, .cls-14, .cls-15, .cls-16, .cls-17, .cls-18 {
        fill: #010101;
      }

      .cls-10, .cls-11, .cls-13 {
        font-family: NewCM10-Italic, NewComputerModern10;
        font-style: italic;
      }

      .cls-10, .cls-18 {
        font-size: 4.8px;
      }

      .cls-11 {
        font-size: 4.8px;
      }

      .cls-2 {
        stroke: #144f8c;
      }

      .cls-2, .cls-3, .cls-4 {
        stroke-miterlimit: 2;
        stroke-width: 1.6px;
      }

      .cls-13, .cls-16 {
        font-size: 8px;
      }

      .cls-19 {
        clip-path: url(#clippath-17);
      }

      .cls-20 {
        clip-path: url(#clippath-11);
      }

      .cls-21 {
        clip-path: url(#clippath-16);
      }

      .cls-22 {
        clip-path: url(#clippath-10);
      }

      .cls-23 {
        clip-path: url(#clippath-15);
      }

      .cls-24 {
        clip-path: url(#clippath-13);
      }

      .cls-25 {
        clip-path: url(#clippath-14);
      }

      .cls-26 {
        clip-path: url(#clippath-12);
      }

      .cls-27 {
        clip-path: url(#clippath-1);
      }

      .cls-28 {
        clip-path: url(#clippath-3);
      }

      .cls-29 {
        clip-path: url(#clippath-4);
      }

      .cls-30 {
        clip-path: url(#clippath-2);
      }

      .cls-31 {
        clip-path: url(#clippath-7);
      }

      .cls-32 {
        clip-path: url(#clippath-6);
      }

      .cls-33 {
        clip-path: url(#clippath-9);
      }

      .cls-34 {
        clip-path: url(#clippath-8);
      }

      .cls-35 {
        clip-path: url(#clippath-5);
      }

      .cls-36 {
        letter-spacing: 3.75em;
      }

      .cls-3 {
        stroke: #ce2926;
        stroke-dasharray: 4.8 4.8;
      }

      .cls-4 {
        stroke: #81c17c;
        stroke-dasharray: 4.8 4.8 1.6 4.8;
      }

      .cls-14 {
        font-size: 8px;
      }

      .cls-14, .cls-15, .cls-16, .cls-17, .cls-18 {
        font-family: NewCMMath-Regular, NewComputerModernMath;
      }

      .cls-15 {
        font-size: 8px;
      }

      .cls-17 {
        font-size: 4.8px;
      }

      .cls-5 {
        stroke-width: .5px;
      }

      .cls-5, .cls-6, .cls-7 {
        stroke: #010101;
        stroke-miterlimit: 1.15;
      }

      .cls-6 {
        stroke-width: .75px;
      }

      .cls-7 {
        stroke-width: .7px;
      }

      .cls-37 {
        clip-path: url(#clippath);
      }
    </style>
    <clipPath id="clippath">
      <rect class="cls-1" x="21.96" y="124.35" width="278" height="1"/>
    </clipPath>
    <clipPath id="clippath-1">
      <rect class="cls-1" x="21.96" y="107.35" width="278" height="18"/>
    </clipPath>
    <clipPath id="clippath-2">
      <rect class="cls-1" x="21.96" y="68.35" width="278" height="13"/>
    </clipPath>
    <clipPath id="clippath-3">
      <rect class="cls-1" x="21.96" y="57.35" width="278" height="23"/>
    </clipPath>
    <clipPath id="clippath-4">
      <rect class="cls-1" x="21.96" y="17.35" width="278" height="19"/>
    </clipPath>
    <clipPath id="clippath-5">
      <rect class="cls-1" x="21.96" y="7.35" width="278" height="27"/>
    </clipPath>
    <clipPath id="clippath-6">
      <rect class="cls-1" x="21.96" y="124.35" width="274" height="1"/>
    </clipPath>
    <clipPath id="clippath-7">
      <rect class="cls-1" x="21.96" y="107.35" width="278" height="18"/>
    </clipPath>
    <clipPath id="clippath-8">
      <rect class="cls-1" x="21.96" y="68.35" width="278" height="11"/>
    </clipPath>
    <clipPath id="clippath-9">
      <rect class="cls-1" x="21.96" y="57.35" width="278" height="19"/>
    </clipPath>
    <clipPath id="clippath-10">
      <rect class="cls-1" x="21.96" y="17.35" width="278" height="13"/>
    </clipPath>
    <clipPath id="clippath-11">
      <rect class="cls-1" x="21.96" y="7.35" width="278" height="19"/>
    </clipPath>
    <clipPath id="clippath-12">
      <rect class="cls-1" x="21.96" y="124.35" width="277" height="1"/>
    </clipPath>
    <clipPath id="clippath-13">
      <rect class="cls-1" x="21.96" y="107.35" width="276" height="18"/>
    </clipPath>
    <clipPath id="clippath-14">
      <rect class="cls-1" x="21.96" y="68.35" width="276" height="13"/>
    </clipPath>
    <clipPath id="clippath-15">
      <rect class="cls-1" x="21.96" y="57.35" width="276" height="24"/>
    </clipPath>
    <clipPath id="clippath-16">
      <rect class="cls-1" x="21.96" y="17.35" width="275" height="19"/>
    </clipPath>
    <clipPath id="clippath-17">
      <rect class="cls-1" x="21.96" y="7.35" width="275" height="28"/>
    </clipPath>
  </defs>
  <text class="cls-13" transform="translate(153.36 146.5)"><tspan x="0" y="0">g</tspan></text>
  <text class="cls-16" transform="translate(157.04 146.5)"><tspan x="0" y="0">/</tspan></text>
  <path class="cls-12" d="M165.68,144.59c-.24.97-.74,2-1.58,2-.54,0-.82-.35-.9-.85-.3.5-.72.85-1.22.85-.61,0-.84-.5-.84-1.14,0-.28.04-.59.12-.9.13-.5.33-1.02.66-1.47.04-.05.1-.07.14-.07.02,0,.05,0,.07.02.04.02.07.06.07.11,0,.03-.02.07-.04.1-.3.42-.59.87-.71,1.35-.04.18-.06.36-.06.52,0,.5.21.9.7.9.44,0,.82-.31,1.09-.74,0-.23.04-.47.1-.72.04-.18.12-.38.27-.38.11,0,.15.09.15.21,0,.06-.02.14-.03.21-.06.24-.14.48-.24.7.07.42.34.72.78.72.63,0,1.1-.74,1.28-1.46.02-.1.03-.2.03-.3,0-.28-.1-.53-.3-.7-.06-.06-.09-.12-.09-.2,0-.09.04-.18.11-.26.08-.08.18-.13.28-.13.07,0,.14.02.18.07.12.1.16.28.16.49,0,.32-.1.72-.18,1.06Z"/>
  <text class="cls-11" transform="translate(166.36 148.1)"><tspan x="0" y="0">c</tspan></text>
  <text class="cls-16" transform="translate(16.85 137.5)"><tspan x="0" y="0">0.</tspan><tspan class="cls-9" x="6.22" y="0">0</tspan><tspan x="69.5" y="0">0.5</tspan></text>
  <text class="cls-16" transform="translate(155.85 137.5)"><tspan x="0" y="0">1.</tspan><tspan class="cls-8" x="6.22" y="0">0</tspan><tspan x="69.5" y="0">1.</tspan></text>
  <text class="cls-14" transform="translate(231.58 137.5)"><tspan x="0" y="0">5</tspan></text>
  <text class="cls-16" transform="translate(294.85 137.5)"><tspan x="0" y="0">2.</tspan></text>
  <text class="cls-15" transform="translate(301.08 137.5)"><tspan x="0" y="0">0</tspan></text>
  <text class="cls-13" transform="translate(6.73 79.23) rotate(-90)"><tspan x="0" y="0">E</tspan></text>
  <text class="cls-10" transform="translate(8.33 73.54) rotate(-90)"><tspan x="0" y="0">n</tspan></text>
  <text class="cls-16" transform="translate(6.73 70.84) rotate(-90)"><tspan x="0" y="0">/</tspan></text>
  <text class="cls-16" transform="translate(6.73 66.84) rotate(-90)"><tspan x="0" y="0">(</tspan></text>
  <text class="cls-13" transform="translate(6.73 63.73) rotate(-90)"><tspan x="0" y="0">ħ</tspan></text>
  <path class="cls-12" d="M4.82,55c.97.24,2,.74,2,1.58,0,.54-.35.82-.85.9.5.3.85.72.85,1.22,0,.61-.5.84-1.14.84-.28,0-.59-.04-.9-.12-.5-.13-1.02-.33-1.47-.66-.05-.04-.07-.1-.07-.14,0-.02,0-.05.02-.07.02-.04.06-.07.11-.07.03,0,.07.02.1.04.42.3.87.59,1.35.71.18.04.36.06.52.06.5,0,.9-.21.9-.7,0-.44-.31-.82-.74-1.09-.23,0-.47-.04-.72-.1-.18-.04-.38-.12-.38-.27,0-.11.09-.15.21-.15.06,0,.14.02.21.03.24.06.48.14.7.24.42-.07.72-.34.72-.78,0-.63-.74-1.1-1.46-1.28-.1-.02-.2-.03-.3-.03-.28,0-.53.1-.7.3-.06.06-.12.09-.2.09-.09,0-.18-.04-.26-.11-.08-.08-.13-.18-.13-.28,0-.07.02-.14.07-.18.1-.12.28-.16.49-.16.32,0,.72.1,1.06.18Z"/>
  <text class="cls-18" transform="translate(8.33 54.38) rotate(-90)"><tspan x="0" y="0">1</tspan></text>
  <text class="cls-17" transform="translate(8.33 51.98) rotate(-90)"><tspan x="0" y="0">0</tspan></text>
  <text class="cls-16" transform="translate(6.73 49.58) rotate(-90)"><tspan x="0" y="0">)</tspan></text>
  <text class="cls-16" transform="translate(10.26 127.8)"><tspan x="0" y="0">0</tspan></text>
  <text class="cls-16" transform="translate(10.26 94.47)"><tspan x="0" y="0">2</tspan></text>
  <text class="cls-16" transform="translate(10.26 61.13)"><tspan x="0" y="0">4</tspan></text>
  <text class="cls-16" transform="translate(10.26 27.8)"><tspan x="0" y="0">6</tspan></text>
  <g class="cls-37">
    <line class="cls-2" x1="21.96" y1="125.35" x2="299.96" y2="125.35"/>
  </g>
  <g class="cls-27">
    <polyline class="cls-2" points="21.96 108.68 24.15 108.69 26.34 108.72 28.53 108.76 30.72 108.81 32.91 108.89 35.1 108.97 37.29 109.07 39.48 109.19 41.66 109.32 43.85 109.46 46.04 109.62 48.23 109.79 50.42 109.97 52.61 110.16 54.8 110.37 56.99 110.58 59.17 110.8 61.37 111.03 63.55 111.27 65.74 111.51 67.93 111.76 70.12 112.02 72.31 112.28 76.69 112.82 78.88 113.09 81.07 113.37 83.26 113.65 85.44 113.93 87.63 114.22 89.82 114.5 94.2 115.07 96.39 115.36 98.58 115.64 100.77 115.92 105.14 116.48 107.33 116.76 109.52 117.04 111.71 117.31 113.9 117.58 116.09 117.84 118.28 118.11 120.47 118.37 122.65 118.62 124.85 118.87 127.03 119.12 129.23 119.36 131.41 119.59 133.6 119.82 135.79 120.05 137.98 120.27 140.17 120.49 142.36 120.7 144.55 120.9 146.74 121.1 148.92 121.3 151.11 121.48 153.3 121.67 155.49 121.84 157.68 122.01 159.87 122.18 162.06 122.34 164.25 122.49 166.44 122.64 168.62 122.78 170.82 122.92 173 123.05 175.19 123.18 177.38 123.3 179.57 123.41 181.76 123.52 183.95 123.63 186.14 123.73 188.33 123.82 190.51 123.92 192.7 124 194.89 124.09 197.08 124.17 199.27 124.24 201.46 124.31 203.65 124.38 205.84 124.44 208.03 124.5 210.22 124.56 212.4 124.61 214.59 124.66 216.78 124.71 221.16 124.8 223.35 124.84 225.54 124.87 227.73 124.91 232.1 124.97 234.3 125 236.48 125.02 238.67 125.05 240.86 125.07 243.05 125.09 245.24 125.11 247.43 125.13 249.62 125.15 251.81 125.16 256.18 125.2 258.37 125.21 260.56 125.22 262.75 125.23 264.94 125.24 267.13 125.25 269.32 125.26 273.69 125.27 275.89 125.28 278.07 125.29 280.26 125.29 284.64 125.3 286.83 125.3 291.21 125.31 293.4 125.32 295.58 125.32 297.78 125.32 299.96 125.32"/>
  </g>
  <g class="cls-30">
    <polyline class="cls-2" points="21.96 75.35 24.15 75.34 26.34 75.32 28.53 75.27 30.72 75.21 32.91 75.12 35.1 75.03 37.29 74.91 39.48 74.78 41.66 74.63 43.85 74.47 46.04 74.3 48.23 74.11 50.42 73.91 52.61 73.7 54.8 73.47 56.99 73.24 59.17 73 61.37 72.76 63.55 72.5 65.74 72.25 67.93 71.98 70.12 71.72 72.31 71.45 74.5 71.18 76.69 70.92 78.88 70.66 81.07 70.4 83.26 70.14 85.44 69.89 87.63 69.65 89.82 69.47 92.01 69.93 94.2 70.37 96.39 70.81 98.58 71.25 100.77 71.68 102.96 72.1 105.14 72.51 107.33 72.91 109.52 73.3 111.71 73.68 113.9 74.06 116.09 74.42 118.28 74.77 120.47 75.11 122.65 75.44 124.85 75.76 127.03 76.07 129.23 76.36 131.41 76.64 133.6 76.91 135.79 77.17 137.98 77.41 140.17 77.65 142.36 77.87 144.55 78.08 146.74 78.27 148.92 78.46 151.11 78.63 153.3 78.79 155.49 78.94 157.68 79.07 159.87 79.2 162.06 79.32 164.25 79.42 166.44 79.52 168.62 79.6 170.82 79.68 173 79.74 175.19 79.8 177.38 79.85 179.57 79.89 181.76 79.92 183.95 79.95 186.14 79.96 188.33 79.98 190.51 79.98 194.89 79.98 197.08 79.98 199.27 79.96 201.46 79.95 203.65 79.93 205.84 79.91 208.03 79.89 210.22 79.86 214.59 79.81 216.78 79.78 218.97 79.75 221.16 79.72 223.35 79.7 225.54 79.67 227.73 79.64 232.1 79.59 234.3 79.56 236.48 79.54 238.67 79.52 240.86 79.5 243.05 79.48 245.24 79.47 247.43 79.45 249.62 79.44 251.81 79.43 253.99 79.43 256.18 79.42 258.37 79.42 262.75 79.42 264.94 79.42 267.13 79.43 269.32 79.44 273.69 79.46 275.89 79.47 278.07 79.49 280.26 79.51 282.45 79.53 284.64 79.55 286.83 79.57 289.02 79.6 291.21 79.62 293.4 79.65 295.58 79.68 297.78 79.71 299.96 79.74"/>
  </g>
  <g class="cls-28">
    <polyline class="cls-2" points="21.96 58.68 24.15 58.7 26.34 58.76 28.53 58.84 30.72 58.97 32.91 59.12 35.1 59.32 37.29 59.54 39.48 59.79 41.66 60.06 43.85 60.36 46.04 60.68 48.23 61.03 50.42 61.4 52.61 61.78 54.8 62.18 56.99 62.59 59.17 63.02 61.37 63.45 63.55 63.9 65.74 64.35 67.93 64.81 70.12 65.27 72.31 65.74 76.69 66.68 78.88 67.15 81.07 67.62 83.26 68.09 87.63 69.02 89.82 69.42 92.01 69.2 94.2 68.98 96.39 68.78 98.58 68.59 100.77 68.42 102.96 68.26 105.14 68.12 107.33 68 109.52 67.89 111.71 67.8 113.9 67.73 116.09 67.68 118.28 67.65 120.47 67.63 122.65 67.64 124.85 67.66 127.03 67.71 129.23 67.77 131.41 67.84 133.6 67.94 135.79 68.05 137.98 68.17 140.17 68.31 142.36 68.46 144.55 68.62 146.74 68.8 148.92 68.98 151.11 69.18 153.3 69.38 155.49 69.58 157.68 69.79 159.87 70.01 162.06 70.23 164.25 70.46 168.62 70.91 170.82 71.14 175.19 71.6 177.38 71.83 179.57 72.06 181.76 72.29 186.14 72.73 188.33 72.95 190.51 73.16 192.7 73.38 194.89 73.59 197.08 73.79 199.27 73.99 203.65 74.38 205.84 74.57 208.03 74.75 210.22 74.94 212.4 75.11 214.59 75.29 216.78 75.45 221.16 75.77 223.35 75.93 225.54 76.08 227.73 76.22 229.92 76.37 232.1 76.5 234.3 76.64 236.48 76.77 238.67 76.89 240.86 77.02 243.05 77.14 245.24 77.25 247.43 77.37 249.62 77.48 251.81 77.58 253.99 77.69 256.18 77.79 258.37 77.88 260.56 77.98 262.75 78.07 264.94 78.16 267.13 78.25 269.32 78.34 273.69 78.5 275.89 78.58 278.07 78.66 280.26 78.73 284.64 78.88 286.83 78.95 289.02 79.02 291.21 79.09 293.4 79.16 295.58 79.22 297.78 79.29 299.96 79.36"/>
  </g>
  <g class="cls-29">
    <polyline class="cls-2" points="21.96 25.35 24.15 25.33 26.34 25.28 28.53 25.19 30.72 25.06 32.91 24.9 35.1 24.71 37.29 24.49 39.48 24.24 41.66 23.96 43.85 23.66 46.04 23.35 48.23 23.01 50.42 22.66 52.61 22.29 54.8 21.91 59.17 21.15 61.37 20.76 63.55 20.38 65.74 20 67.93 19.63 70.12 19.27 72.31 18.92 74.5 18.86 76.69 19.41 78.88 19.94 81.07 20.46 83.26 20.96 85.44 21.45 87.63 21.92 89.82 22.36 92.01 22.79 94.2 23.19 96.39 23.56 98.58 23.91 100.77 24.23 102.96 24.53 105.14 24.8 107.33 25.04 109.52 25.24 111.71 25.42 113.9 25.57 116.09 25.68 118.28 25.77 120.47 25.83 122.65 25.86 124.85 25.86 127.03 25.83 129.23 25.79 131.41 25.71 133.6 25.62 135.79 25.5 137.98 25.37 140.17 25.22 142.36 25.06 144.55 24.89 146.74 24.71 148.92 24.53 151.11 24.97 153.3 25.43 155.49 25.88 157.68 26.33 159.87 26.77 162.06 27.21 164.25 27.63 166.44 28.05 168.62 28.46 170.82 28.85 173 29.24 175.19 29.62 177.38 29.98 179.57 30.33 181.76 30.67 183.95 31 186.14 31.31 188.33 31.62 190.51 31.91 192.7 32.18 194.89 32.45 197.08 32.7 199.27 32.93 201.46 33.15 203.65 33.36 205.84 33.56 208.03 33.75 210.22 33.92 212.4 34.08 214.59 34.23 216.78 34.37 218.97 34.5 221.16 34.61 223.35 34.71 225.54 34.81 227.73 34.89 229.92 34.97 232.1 35.04 234.3 35.09 236.48 35.14 238.67 35.19 240.86 35.22 243.05 35.25 245.24 35.27 247.43 35.29 249.62 35.31 251.81 35.32 256.18 35.32 258.37 35.32 260.56 35.32 262.75 35.32 264.94 35.31 267.13 35.3 269.32 35.3 273.69 35.29 275.89 35.28 278.07 35.28 280.26 35.27 282.45 35.27 284.64 35.27 286.83 35.27 289.02 35.28 291.21 35.29 293.4 35.3 295.58 35.31 297.78 35.32 299.96 35.34"/>
  </g>
  <g class="cls-35">
    <polyline class="cls-2" points="21.96 8.68 24.15 8.71 26.34 8.8 28.53 8.93 30.72 9.12 32.91 9.36 35.1 9.65 37.29 9.98 39.48 10.35 41.66 10.75 43.85 11.19 46.04 11.66 48.23 12.15 50.42 12.67 52.61 13.2 54.8 13.75 56.99 14.3 59.17 14.87 61.37 15.45 63.55 16.02 65.74 16.6 67.93 17.17 70.12 17.74 72.31 18.31 74.5 18.59 76.69 18.29 78.88 18 81.07 17.74 83.26 17.5 85.44 17.3 87.63 17.13 89.82 17 92.01 16.89 94.2 16.83 96.39 16.8 98.58 16.82 100.77 16.87 102.96 16.96 105.14 17.08 107.33 17.24 109.52 17.44 111.71 17.66 113.9 17.93 116.09 18.21 118.28 18.53 120.47 18.87 122.65 19.23 124.85 19.61 127.03 20.01 129.23 20.43 131.41 20.85 133.6 21.29 135.79 21.74 137.98 22.19 140.17 22.65 142.36 23.11 144.55 23.58 146.74 24.04 148.92 24.51 151.11 24.34 153.3 24.15 155.49 23.96 157.68 23.78 159.87 23.61 162.06 23.44 164.25 23.28 166.44 23.14 168.62 23.01 170.82 22.9 173 22.8 175.19 22.73 177.38 22.67 179.57 22.63 181.76 22.61 183.95 22.62 186.14 22.64 188.33 22.68 190.51 22.75 192.7 22.83 194.89 22.93 197.08 23.04 199.27 23.17 201.46 23.32 203.65 23.48 205.84 23.65 208.03 23.83 210.22 24.02 212.4 24.23 214.59 24.44 216.78 24.66 218.97 24.88 221.16 25.11 223.35 25.34 225.54 25.58 227.73 25.82 232.1 26.3 234.3 26.55 236.48 26.79 238.67 27.04 240.86 27.28 243.05 27.52 245.24 27.76 247.43 28 249.62 28.24 251.81 28.48 253.99 28.71 256.18 28.94 258.37 29.17 260.56 29.39 262.75 29.62 267.13 30.05 269.32 30.27 273.69 30.68 275.89 30.88 278.07 31.08 280.26 31.28 282.45 31.47 284.64 31.66 286.83 31.84 291.21 32.2 293.4 32.38 295.58 32.55 297.78 32.72 299.96 32.89"/>
  </g>
  <g class="cls-32">
    <line class="cls-3" x1="21.96" y1="125.35" x2="299.96" y2="125.35"/>
  </g>
  <g class="cls-31">
    <polyline class="cls-3" points="21.96 108.68 24.15 108.69 26.34 108.71 28.53 108.76 30.72 108.81 32.91 108.88 35.1 108.96 37.29 109.07 39.48 109.18 41.66 109.31 43.85 109.45 46.04 109.6 48.23 109.77 50.42 109.95 52.61 110.14 54.8 110.34 56.99 110.54 59.17 110.76 61.37 110.99 63.55 111.22 65.74 111.46 67.93 111.71 70.12 111.96 72.31 112.23 74.5 112.49 76.69 112.76 78.88 113.03 81.07 113.31 83.26 113.59 87.63 114.15 89.82 114.44 94.2 115.01 96.39 115.29 98.58 115.58 100.77 115.87 102.96 116.15 105.14 116.43 107.33 116.71 109.52 116.99 111.71 117.27 116.09 117.81 118.28 118.08 122.65 118.6 124.85 118.86 127.03 119.11 129.23 119.36 131.41 119.6 133.6 119.83 135.79 120.07 137.98 120.29 140.17 120.51 142.36 120.73 144.55 120.94 146.74 121.14 148.92 121.34 151.11 121.54 153.3 121.72 155.49 121.91 157.68 122.08 159.87 122.25 162.06 122.41 164.25 122.57 166.44 122.72 168.62 122.87 170.82 123.01 173 123.14 175.19 123.27 177.38 123.39 179.57 123.51 181.76 123.62 183.95 123.73 186.14 123.83 188.33 123.93 190.51 124.02 192.7 124.11 194.89 124.19 197.08 124.27 199.27 124.34 201.46 124.41 203.65 124.48 205.84 124.54 208.03 124.6 210.22 124.65 214.59 124.75 216.78 124.8 218.97 124.84 221.16 124.88 223.35 124.92 225.54 124.95 227.73 124.98 232.1 125.04 234.3 125.07 238.67 125.11 240.86 125.13 243.05 125.15 245.24 125.17 249.62 125.2 251.81 125.21 256.18 125.24 258.37 125.25 260.56 125.26 262.75 125.27 267.13 125.28 269.32 125.29 271.51 125.3 273.69 125.3 275.89 125.3 278.07 125.31 280.26 125.32 282.45 125.32 284.64 125.32 286.83 125.32 291.21 125.33 293.4 125.33 295.58 125.34 297.78 125.34 299.96 125.34"/>
  </g>
  <g class="cls-34">
    <polyline class="cls-3" points="21.96 75.35 24.15 75.34 26.34 75.31 28.53 75.27 30.72 75.2 32.91 75.12 35.1 75.02 37.29 74.91 39.48 74.77 41.66 74.62 43.85 74.46 46.04 74.28 48.23 74.09 50.42 73.88 52.61 73.66 54.8 73.44 56.99 73.2 59.17 72.95 61.37 72.7 63.55 72.44 65.74 72.17 70.12 71.62 72.31 71.35 74.5 71.07 76.69 70.79 78.88 70.51 81.07 70.24 83.26 69.97 85.44 69.7 87.63 69.45 89.82 69.2 92.01 69.47 94.2 69.9 96.39 70.32 98.58 70.73 100.77 71.14 102.96 71.54 105.14 71.93 107.33 72.31 109.52 72.68 111.71 73.05 113.9 73.39 116.09 73.73 118.28 74.06 120.47 74.38 122.65 74.68 124.85 74.98 127.03 75.26 129.23 75.52 131.41 75.78 133.6 76.02 135.79 76.25 137.98 76.46 140.17 76.66 142.36 76.85 144.55 77.03 146.74 77.19 148.92 77.34 151.11 77.47 153.3 77.6 155.49 77.71 157.68 77.8 159.87 77.89 162.06 77.96 164.25 78.02 166.44 78.07 168.62 78.11 170.82 78.14 173 78.16 175.19 78.17 177.38 78.17 179.57 78.16 181.76 78.15 183.95 78.12 186.14 78.09 188.33 78.05 190.51 78.01 192.7 77.96 194.89 77.91 197.08 77.85 199.27 77.79 201.46 77.72 203.65 77.65 205.84 77.58 208.03 77.51 210.22 77.43 212.4 77.36 214.59 77.28 216.78 77.21 221.16 77.05 223.35 76.98 225.54 76.9 227.73 76.83 232.1 76.69 234.3 76.62 236.48 76.55 238.67 76.49 240.86 76.43 243.05 76.37 245.24 76.31 249.62 76.2 251.81 76.15 256.18 76.05 258.37 76.01 260.56 75.97 262.75 75.93 264.94 75.89 267.13 75.86 269.32 75.83 271.51 75.8 273.69 75.77 275.89 75.74 278.07 75.71 280.26 75.69 282.45 75.67 284.64 75.65 286.83 75.63 289.02 75.61 291.21 75.6 293.4 75.58 295.58 75.57 297.78 75.55 299.96 75.54"/>
  </g>
  <g class="cls-33">
    <polyline class="cls-3" points="21.96 58.68 24.15 58.7 26.34 58.75 28.53 58.84 30.72 58.96 32.91 59.11 35.1 59.29 37.29 59.5 39.48 59.74 41.66 60 43.85 60.29 46.04 60.61 48.23 60.94 50.42 61.29 52.61 61.66 54.8 62.04 56.99 62.43 59.17 62.84 61.37 63.26 63.55 63.69 65.74 64.12 67.93 64.56 70.12 65.01 72.31 65.46 74.5 65.91 76.69 66.36 78.88 66.81 81.07 67.26 83.26 67.71 87.63 68.6 89.82 69.04 92.01 68.95 94.2 68.72 96.39 68.5 98.58 68.3 100.77 68.1 102.96 67.92 105.14 67.76 107.33 67.61 109.52 67.48 111.71 67.37 113.9 67.27 116.09 67.2 118.28 67.14 120.47 67.11 122.65 67.09 124.85 67.09 127.03 67.1 129.23 67.14 131.41 67.19 133.6 67.26 135.79 67.34 137.98 67.44 140.17 67.55 142.36 67.68 144.55 67.81 146.74 67.96 148.92 68.12 151.11 68.28 153.3 68.45 155.49 68.63 157.68 68.82 159.87 69 162.06 69.2 164.25 69.39 166.44 69.59 168.62 69.79 170.82 69.98 173 70.18 175.19 70.38 177.38 70.57 179.57 70.77 181.76 70.96 186.14 71.34 188.33 71.52 190.51 71.7 192.7 71.87 194.89 72.04 197.08 72.2 199.27 72.36 201.46 72.52 203.65 72.67 205.84 72.82 208.03 72.96 210.22 73.09 212.4 73.23 214.59 73.35 216.78 73.47 218.97 73.59 221.16 73.7 223.35 73.8 225.54 73.91 227.73 74 232.1 74.18 234.3 74.27 236.48 74.34 238.67 74.42 240.86 74.49 243.05 74.55 245.24 74.62 247.43 74.68 249.62 74.73 251.81 74.79 253.99 74.84 256.18 74.88 258.37 74.93 260.56 74.96 262.75 75 264.94 75.04 267.13 75.07 269.32 75.1 271.51 75.13 273.69 75.15 275.89 75.18 278.07 75.2 280.26 75.22 282.45 75.24 284.64 75.25 286.83 75.27 291.21 75.3 293.4 75.31 295.58 75.32 297.78 75.33 299.96 75.34"/>
  </g>
  <g class="cls-22">
    <polyline class="cls-3" points="21.96 25.35 24.15 25.33 26.34 25.28 28.53 25.18 30.72 25.06 32.91 24.89 35.1 24.7 37.29 24.48 39.48 24.22 41.66 23.94 43.85 23.63 46.04 23.3 48.23 22.96 50.42 22.59 52.61 22.21 54.8 21.83 56.99 21.43 59.17 21.03 61.37 20.62 63.55 20.21 65.74 19.81 67.93 19.42 70.12 19.03 72.31 18.66 74.5 18.36 76.69 18.87 78.88 19.37 81.07 19.86 83.26 20.32 85.44 20.78 87.63 21.21 89.82 21.62 92.01 22.01 94.2 22.37 96.39 22.71 98.58 23.03 100.77 23.31 102.96 23.57 105.14 23.8 107.33 24 109.52 24.16 111.71 24.3 113.9 24.4 116.09 24.48 118.28 24.52 120.47 24.54 122.65 24.52 124.85 24.48 127.03 24.41 129.23 24.31 131.41 24.19 133.6 24.05 135.79 23.88 137.98 23.7 140.17 23.5 142.36 23.29 144.55 23.07 146.74 22.84 148.92 22.6 151.11 22.8 153.3 23.19 155.49 23.57 157.68 23.95 159.87 24.32 162.06 24.68 164.25 25.04 166.44 25.37 168.62 25.7 170.82 26.02 173 26.32 175.19 26.61 177.38 26.89 179.57 27.15 181.76 27.4 183.95 27.64 186.14 27.86 188.33 28.06 190.51 28.25 192.7 28.42 194.89 28.57 197.08 28.72 199.27 28.84 201.46 28.96 203.65 29.05 205.84 29.14 208.03 29.2 210.22 29.26 212.4 29.3 214.59 29.32 216.78 29.34 218.97 29.34 221.16 29.33 223.35 29.31 225.54 29.28 227.73 29.24 229.92 29.19 232.1 29.13 234.3 29.06 236.48 28.98 238.67 28.9 240.86 28.82 243.05 28.72 245.24 28.63 247.43 28.53 249.62 28.42 251.81 28.32 253.99 28.21 256.18 28.1 258.37 27.99 260.56 27.88 262.75 27.77 264.94 27.66 267.13 27.55 269.32 27.45 271.51 27.34 273.69 27.24 275.89 27.14 278.07 27.05 280.26 26.96 282.45 26.87 284.64 26.78 286.83 26.7 291.21 26.54 293.4 26.47 295.58 26.4 297.78 26.34 299.96 26.28"/>
  </g>
  <g class="cls-20">
    <polyline class="cls-3" points="21.96 8.68 24.15 8.71 26.34 8.79 28.53 8.92 30.72 9.1 32.91 9.33 35.1 9.6 37.29 9.92 39.48 10.27 41.66 10.66 43.85 11.07 46.04 11.52 48.23 11.99 50.42 12.48 52.61 12.99 54.8 13.51 56.99 14.04 59.17 14.58 61.37 15.12 63.55 15.67 65.74 16.21 67.93 16.76 70.12 17.3 72.31 17.83 74.5 18.3 76.69 17.96 78.88 17.63 81.07 17.34 83.26 17.06 85.44 16.82 87.63 16.61 89.82 16.43 92.01 16.28 94.2 16.16 96.39 16.09 98.58 16.05 100.77 16.05 102.96 16.08 105.14 16.15 107.33 16.26 109.52 16.4 111.71 16.57 113.9 16.78 116.09 17.01 118.28 17.27 120.47 17.55 122.65 17.85 124.85 18.18 127.03 18.52 129.23 18.87 131.41 19.24 133.6 19.62 135.79 20.01 137.98 20.4 140.17 20.8 142.36 21.2 144.55 21.61 146.74 22 148.92 22.41 151.11 22.36 153.3 22.11 157.68 21.64 159.87 21.41 162.06 21.19 164.25 20.98 166.44 20.78 168.62 20.6 170.82 20.43 173 20.28 175.19 20.15 177.38 20.04 179.57 19.94 181.76 19.87 183.95 19.81 186.14 19.78 188.33 19.76 190.51 19.76 192.7 19.78 194.89 19.81 197.08 19.86 199.27 19.92 201.46 20 203.65 20.09 205.84 20.18 208.03 20.29 210.22 20.41 212.4 20.53 214.59 20.66 216.78 20.8 218.97 20.94 221.16 21.08 223.35 21.23 225.54 21.38 227.73 21.53 229.92 21.68 232.1 21.83 234.3 21.98 236.48 22.13 238.67 22.27 240.86 22.42 243.05 22.56 245.24 22.7 249.62 22.98 251.81 23.11 253.99 23.23 256.18 23.36 258.37 23.48 260.56 23.59 262.75 23.7 267.13 23.91 269.32 24.01 271.51 24.11 273.69 24.2 275.89 24.28 278.07 24.36 280.26 24.44 282.45 24.52 284.64 24.59 286.83 24.65 289.02 24.71 291.21 24.77 293.4 24.83 295.58 24.88 297.78 24.93 299.96 24.98"/>
  </g>
  <g class="cls-26">
    <line class="cls-4" x1="21.96" y1="125.35" x2="299.96" y2="125.35"/>
  </g>
  <g class="cls-24">
    <polyline class="cls-4" points="21.96 108.68 24.15 108.69 26.34 108.72 28.53 108.76 30.72 108.81 32.91 108.89 35.1 108.97 37.29 109.07 39.48 109.19 41.66 109.32 43.85 109.46 46.04 109.62 48.23 109.79 50.42 109.97 52.61 110.16 54.8 110.37 56.99 110.58 59.17 110.8 61.37 111.03 63.55 111.27 65.74 111.52 67.93 111.77 70.12 112.02 72.31 112.29 76.69 112.82 78.88 113.1 81.07 113.38 83.26 113.66 85.44 113.94 87.63 114.22 89.82 114.51 92.01 114.8 94.2 115.08 96.39 115.37 98.58 115.65 100.77 115.94 105.14 116.5 107.33 116.78 109.52 117.05 111.71 117.33 116.09 117.87 118.28 118.13 120.47 118.39 122.65 118.64 124.85 118.9 127.03 119.14 129.23 119.39 131.41 119.62 133.6 119.86 135.79 120.09 137.98 120.31 140.17 120.52 142.36 120.73 144.55 120.94 146.74 121.14 151.11 121.53 153.3 121.71 155.49 121.89 157.68 122.06 159.87 122.22 162.06 122.38 164.25 122.54 166.44 122.69 168.62 122.83 170.82 122.97 175.19 123.23 177.38 123.35 179.57 123.46 181.76 123.57 183.95 123.68 186.14 123.78 188.33 123.87 190.51 123.97 192.7 124.05 194.89 124.14 197.08 124.21 199.27 124.29 201.46 124.36 203.65 124.43 205.84 124.49 208.03 124.55 210.22 124.6 212.4 124.66 214.59 124.7 216.78 124.75 221.16 124.84 223.35 124.87 225.54 124.91 227.73 124.94 232.1 125 234.3 125.03 238.67 125.08 240.86 125.1 243.05 125.12 245.24 125.14 247.43 125.16 249.62 125.18 251.81 125.19 256.18 125.21 258.37 125.23 260.56 125.24 262.75 125.25 267.13 125.27 269.32 125.27 273.69 125.29 275.89 125.29 278.07 125.3 280.26 125.3 284.64 125.31 286.83 125.32 291.21 125.32 293.4 125.32 295.58 125.33 297.78 125.33 299.96 125.33"/>
  </g>
  <g class="cls-25">
    <polyline class="cls-4" points="21.96 75.35 24.15 75.34 26.34 75.32 28.53 75.27 30.72 75.21 32.91 75.12 35.1 75.03 37.29 74.91 39.48 74.78 41.66 74.63 43.85 74.47 46.04 74.3 48.23 74.11 50.42 73.91 52.61 73.7 54.8 73.47 56.99 73.24 59.17 73 61.37 72.75 63.55 72.5 65.74 72.24 67.93 71.98 70.12 71.71 72.31 71.45 76.69 70.92 78.88 70.66 81.07 70.39 83.26 70.14 85.44 69.89 87.63 69.65 89.82 69.49 92.01 69.95 94.2 70.39 96.39 70.84 98.58 71.27 100.77 71.7 102.96 72.12 105.14 72.54 107.33 72.94 109.52 73.34 111.71 73.72 113.9 74.1 116.09 74.46 118.28 74.82 120.47 75.16 122.65 75.49 124.85 75.81 127.03 76.12 129.23 76.41 131.41 76.7 133.6 76.96 135.79 77.22 137.98 77.47 140.17 77.7 142.36 77.93 144.55 78.14 146.74 78.33 148.92 78.52 151.11 78.69 153.3 78.85 155.49 79 157.68 79.14 159.87 79.26 162.06 79.38 164.25 79.48 166.44 79.57 168.62 79.66 170.82 79.73 173 79.8 175.19 79.85 177.38 79.9 179.57 79.94 181.76 79.97 183.95 79.99 186.14 80.01 188.33 80.02 190.51 80.03 192.7 80.03 194.89 80.03 197.08 80.02 199.27 80.01 203.65 79.98 205.84 79.95 208.03 79.93 210.22 79.91 212.4 79.88 214.59 79.86 216.78 79.83 218.97 79.8 221.16 79.78 223.35 79.75 225.54 79.73 227.73 79.71 229.92 79.68 232.1 79.66 234.3 79.64 238.67 79.61 240.86 79.6 243.05 79.59 245.24 79.58 247.43 79.57 249.62 79.57 251.81 79.57 256.18 79.58 258.37 79.58 260.56 79.59 262.75 79.6 267.13 79.63 269.32 79.65 271.51 79.67 273.69 79.69 275.89 79.71 278.07 79.74 280.26 79.77 284.64 79.83 286.83 79.87 291.21 79.94 293.4 79.98 295.58 80.02 297.78 80.05 299.96 80.1"/>
  </g>
  <g class="cls-23">
    <polyline class="cls-4" points="21.96 58.68 24.15 58.7 26.34 58.76 28.53 58.84 30.72 58.97 32.91 59.12 35.1 59.32 37.29 59.54 39.48 59.79 41.66 60.06 43.85 60.36 46.04 60.69 48.23 61.03 50.42 61.4 52.61 61.78 54.8 62.18 56.99 62.59 59.17 63.02 61.37 63.46 63.55 63.9 65.74 64.36 67.93 64.81 70.12 65.28 72.31 65.75 74.5 66.21 76.69 66.69 78.88 67.16 81.07 67.63 83.26 68.1 87.63 69.03 89.82 69.42 92.01 69.2 94.2 68.98 96.39 68.78 98.58 68.6 100.77 68.43 102.96 68.27 105.14 68.13 107.33 68.01 109.52 67.9 111.71 67.82 113.9 67.75 116.09 67.7 118.28 67.67 120.47 67.66 122.65 67.68 124.85 67.7 127.03 67.75 129.23 67.82 131.41 67.9 133.6 68 135.79 68.12 137.98 68.25 140.17 68.39 142.36 68.55 144.55 68.73 146.74 68.91 148.92 69.1 151.11 69.3 153.3 69.5 155.49 69.72 157.68 69.94 159.87 70.17 162.06 70.39 164.25 70.63 166.44 70.86 168.62 71.1 170.82 71.34 175.19 71.81 177.38 72.05 179.57 72.29 181.76 72.52 183.95 72.75 186.14 72.98 188.33 73.2 190.51 73.43 192.7 73.64 194.89 73.86 197.08 74.07 199.27 74.28 201.46 74.48 203.65 74.68 205.84 74.88 208.03 75.07 210.22 75.25 212.4 75.43 214.59 75.61 216.78 75.78 218.97 75.95 221.16 76.11 223.35 76.27 225.54 76.43 227.73 76.58 232.1 76.87 234.3 77 238.67 77.27 240.86 77.39 243.05 77.52 245.24 77.64 247.43 77.75 249.62 77.87 251.81 77.98 256.18 78.19 258.37 78.29 260.56 78.39 262.75 78.48 264.94 78.57 267.13 78.66 269.32 78.75 273.69 78.93 275.89 79.01 278.07 79.09 280.26 79.17 284.64 79.32 286.83 79.4 289.02 79.47 291.21 79.54 293.4 79.62 295.58 79.69 297.78 79.75 299.96 79.82"/>
  </g>
  <g class="cls-21">
    <polyline class="cls-4" points="21.96 25.35 24.15 25.33 26.34 25.28 28.53 25.19 30.72 25.06 32.91 24.9 35.1 24.71 37.29 24.49 39.48 24.24 41.66 23.96 43.85 23.66 46.04 23.34 48.23 23.01 50.42 22.65 52.61 22.29 54.8 21.91 56.99 21.53 59.17 21.14 61.37 20.76 63.55 20.37 65.74 19.99 67.93 19.62 70.12 19.26 72.31 18.91 74.5 18.88 76.69 19.43 78.88 19.96 81.07 20.48 83.26 20.99 85.44 21.47 87.63 21.94 89.82 22.39 92.01 22.82 94.2 23.22 96.39 23.59 98.58 23.95 100.77 24.27 102.96 24.57 105.14 24.83 107.33 25.07 109.52 25.28 111.71 25.45 113.9 25.6 116.09 25.72 118.28 25.8 120.47 25.86 122.65 25.89 124.85 25.89 127.03 25.87 129.23 25.82 131.41 25.74 133.6 25.65 135.79 25.53 137.98 25.4 140.17 25.25 142.36 25.09 144.55 24.93 146.74 24.75 148.92 24.68 151.11 25.15 153.3 25.62 157.68 26.54 159.87 26.98 162.06 27.42 164.25 27.86 166.44 28.28 168.62 28.69 170.82 29.09 173 29.48 175.19 29.86 177.38 30.22 179.57 30.58 181.76 30.92 183.95 31.25 186.14 31.56 188.33 31.86 190.51 32.15 192.7 32.42 194.89 32.68 197.08 32.93 199.27 33.16 201.46 33.38 203.65 33.58 205.84 33.77 208.03 33.95 210.22 34.12 212.4 34.27 214.59 34.41 216.78 34.54 218.97 34.66 221.16 34.76 223.35 34.86 225.54 34.94 227.73 35.02 229.92 35.08 232.1 35.14 234.3 35.19 236.48 35.23 238.67 35.27 240.86 35.29 243.05 35.31 245.24 35.33 247.43 35.34 249.62 35.35 251.81 35.36 260.56 35.36 262.75 35.36 264.94 35.36 267.13 35.35 273.69 35.35 275.89 35.36 278.07 35.36 280.26 35.37 282.45 35.38 284.64 35.4 286.83 35.42 291.21 35.46 293.4 35.49 295.58 35.53 297.78 35.56 299.96 35.6"/>
  </g>
  <g class="cls-19">
    <polyline class="cls-4" points="21.96 8.68 24.15 8.71 26.34 8.8 28.53 8.93 30.72 9.12 32.91 9.36 35.1 9.65 37.29 9.98 39.48 10.35 41.66 10.75 43.85 11.2 46.04 11.66 48.23 12.16 50.42 12.67 52.61 13.2 54.8 13.75 56.99 14.31 59.17 14.88 61.37 15.45 63.55 16.03 65.74 16.61 67.93 17.18 70.12 17.75 72.31 18.32 74.5 18.59 76.69 18.28 78.88 17.99 81.07 17.73 83.26 17.5 85.44 17.3 87.63 17.13 89.82 16.99 92.01 16.89 94.2 16.83 96.39 16.81 98.58 16.82 100.77 16.88 102.96 16.97 105.14 17.1 107.33 17.27 109.52 17.46 111.71 17.7 113.9 17.97 116.09 18.26 118.28 18.59 120.47 18.93 122.65 19.3 124.85 19.7 127.03 20.1 129.23 20.52 131.41 20.96 133.6 21.41 135.79 21.86 140.17 22.79 142.36 23.27 144.55 23.74 146.74 24.21 148.92 24.57 151.11 24.38 153.3 24.2 155.49 24.02 157.68 23.84 159.87 23.68 162.06 23.52 164.25 23.37 166.44 23.25 168.62 23.13 170.82 23.04 173 22.96 175.19 22.9 177.38 22.87 179.57 22.85 181.76 22.86 183.95 22.88 186.14 22.93 188.33 23 190.51 23.09 192.7 23.19 194.89 23.32 197.08 23.46 199.27 23.61 201.46 23.78 203.65 23.96 205.84 24.16 208.03 24.37 210.22 24.58 212.4 24.81 214.59 25.04 216.78 25.28 221.16 25.77 223.35 26.02 225.54 26.28 227.73 26.54 229.92 26.79 232.1 27.05 234.3 27.31 236.48 27.57 238.67 27.83 240.86 28.09 243.05 28.34 245.24 28.6 247.43 28.85 249.62 29.1 251.81 29.35 253.99 29.59 256.18 29.83 258.37 30.07 260.56 30.3 262.75 30.53 264.94 30.75 267.13 30.98 269.32 31.2 271.51 31.41 273.69 31.62 275.89 31.83 278.07 32.03 280.26 32.23 284.64 32.62 286.83 32.81 291.21 33.18 293.4 33.35 295.58 33.53 297.78 33.7 299.96 33.87"/>
  </g>
  <line class="cls-6" x1="21.96" y1="125.7" x2="21.96" y2="128.7"/>
  <line class="cls-6" x1="91.46" y1="125.7" x2="91.46" y2="128.7"/>
  <line class="cls-6" x1="160.96" y1="125.7" x2="160.96" y2="128.7"/>
  <line class="cls-6" x1="230.46" y1="125.7" x2="230.46" y2="128.7"/>
  <line class="cls-6" x1="299.96" y1="125.7" x2="299.96" y2="128.7"/>
  <line class="cls-6" x1="21.61" y1="125.35" x2="18.61" y2="125.35"/>
  <line class="cls-6" x1="21.61" y1="92.02" x2="18.61" y2="92.02"/>
  <line class="cls-6" x1="21.61" y1="58.68" x2="18.61" y2="58.68"/>
  <line class="cls-6" x1="21.61" y1="25.35" x2="18.61" y2="25.35"/>
  <line class="cls-5" x1="21.61" y1="108.68" x2="20.11" y2="108.68"/>
  <line class="cls-5" x1="21.61" y1="75.35" x2="20.11" y2="75.35"/>
  <line class="cls-5" x1="21.61" y1="42.02" x2="20.11" y2="42.02"/>
  <line class="cls-5" x1="21.61" y1="8.68" x2="20.11" y2="8.68"/>
  <line class="cls-2" x1="147.9" y1="110.35" x2="162.9" y2="110.35"/>
  <line class="cls-2" x1="147.9" y1="110.35" x2="162.9" y2="110.35"/>
  <line class="cls-2" x1="147.9" y1="110.35" x2="162.9" y2="110.35"/>
  <line class="cls-2" x1="147.9" y1="110.35" x2="162.9" y2="110.35"/>
  <line class="cls-2" x1="147.9" y1="110.35" x2="162.9" y2="110.35"/>
  <line class="cls-2" x1="147.9" y1="110.35" x2="162.9" y2="110.35"/>
  <line class="cls-3" x1="192.01" y1="110.35" x2="207.01" y2="110.35"/>
  <line class="cls-3" x1="192.01" y1="110.35" x2="207.01" y2="110.35"/>
  <line class="cls-3" x1="192.01" y1="110.35" x2="207.01" y2="110.35"/>
  <line class="cls-3" x1="192.01" y1="110.35" x2="207.01" y2="110.35"/>
  <line class="cls-3" x1="192.01" y1="110.35" x2="207.01" y2="110.35"/>
  <line class="cls-3" x1="192.01" y1="110.35" x2="207.01" y2="110.35"/>
  <line class="cls-4" x1="241.46" y1="110.35" x2="256.46" y2="110.35"/>
  <line class="cls-4" x1="241.46" y1="110.35" x2="256.46" y2="110.35"/>
  <line class="cls-4" x1="241.46" y1="110.35" x2="256.46" y2="110.35"/>
  <line class="cls-4" x1="241.46" y1="110.35" x2="256.46" y2="110.35"/>
  <line class="cls-4" x1="241.46" y1="110.35" x2="256.46" y2="110.35"/>
  <line class="cls-4" x1="241.46" y1="110.35" x2="256.46" y2="110.35"/>
  <text class="cls-14" transform="translate(167.9 112.8)"><tspan x="0" y="0">F</tspan></text>
  <text class="cls-16" transform="translate(173.12 112.8)"><tspan x="0" y="0">ul</tspan><tspan class="cls-36" x="6.67" y="0">l</tspan><tspan x="38.9" y="0">QRM</tspan></text>
  <text class="cls-16" transform="translate(261.46 108)"><tspan x="0" y="0">Renorm. </tspan></text>
  <text class="cls-16" transform="translate(261.46 117.6)"><tspan x="0" y="0" xml:space="preserve"> QRM</tspan></text>
  <line class="cls-7" x1="21.61" y1="125.35" x2="300.32" y2="125.35"/>
  <line class="cls-7" x1="21.96" y1="125.7" x2="21.96"/>
  <line class="cls-7" x1="21.61" y1=".35" x2="300.32" y2=".35"/>
  <line class="cls-7" x1="299.96" y1="125.7" x2="299.96"/>
</svg>